<?xml version="1.0" encoding="UTF-8"?>
<!DOCTYPE svg PUBLIC "-//W3C//DTD SVG 1.1//EN" "http://www.w3.org/Graphics/SVG/1.1/DTD/svg11.dtd">
<svg xmlns="http://www.w3.org/2000/svg" version="1.1" width="512px" height="512px" style="shape-rendering:geometricPrecision; text-rendering:geometricPrecision; image-rendering:optimizeQuality; fill-rule:evenodd; clip-rule:evenodd" xmlns:xlink="http://www.w3.org/1999/xlink">
<g><path style="opacity:0.98" fill="#000000" d="M 511.5,196.5 C 511.5,201.5 511.5,206.5 511.5,211.5C 509.751,216.281 507.085,220.614 503.5,224.5C 466.482,257.353 429.315,290.019 392,322.5C 402.66,372.815 413.494,423.149 424.5,473.5C 423.57,490.93 414.404,500.263 397,501.5C 392.692,501.381 388.525,500.548 384.5,499C 341.792,472.981 298.792,447.481 255.5,422.5C 212.393,447.764 169.393,473.264 126.5,499C 109.033,505.008 96.1993,499.842 88,483.5C 86.5615,478.238 86.2282,472.904 87,467.5C 98.3179,419.237 108.985,370.903 119,322.5C 80.3439,288.843 42.0105,254.843 4,220.5C 2.72576,217.609 1.22576,214.942 -0.5,212.5C -0.5,207.167 -0.5,201.833 -0.5,196.5C 3.28664,185.555 10.9533,179.055 22.5,177C 72.1849,172.514 121.852,167.847 171.5,163C 191.796,116.24 211.962,69.4066 232,22.5C 239.836,11.7733 250.336,7.93994 263.5,11C 269.821,13.3262 274.987,17.1596 279,22.5C 299.038,69.4066 319.204,116.24 339.5,163C 390.87,167.7 442.204,172.7 493.5,178C 502.443,181.441 508.443,187.608 511.5,196.5 Z"/></g>
<g><path style="opacity:1" fill="#fdc006" d="M 254.5,50.5 C 256.446,52.3527 257.946,54.686 259,57.5C 277,99.5 295,141.5 313,183.5C 317.117,189.278 322.617,193.111 329.5,195C 377.174,199.41 424.841,203.91 472.5,208.5C 437.315,239.52 401.981,270.353 366.5,301C 359.425,308.458 356.925,317.292 359,327.5C 369.167,372.167 379.333,416.833 389.5,461.5C 389.167,462.167 388.833,462.833 388.5,463.5C 348.167,439.333 307.833,415.167 267.5,391C 258.667,387.484 250,387.818 241.5,392C 201.833,415.833 162.167,439.667 122.5,463.5C 122.167,462.833 121.833,462.167 121.5,461.5C 131.667,416.833 141.833,372.167 152,327.5C 154.19,316.729 151.357,307.563 143.5,300C 108.352,269.686 73.3521,239.186 38.5,208.5C 85.1023,203.491 131.769,198.991 178.5,195C 189.211,193.288 196.711,187.455 201,177.5C 218.94,135.171 236.773,92.838 254.5,50.5 Z"/></g>
</svg>
