<?xml version="1.0" standalone="no"?>
<!DOCTYPE svg PUBLIC "-//W3C//DTD SVG 20010904//EN"
 "http://www.w3.org/TR/2001/REC-SVG-20010904/DTD/svg10.dtd">
<svg version="1.0" xmlns="http://www.w3.org/2000/svg"
 width="512.000000pt" height="512.000000pt" viewBox="0 0 512.000000 512.000000"
 preserveAspectRatio="xMidYMid meet">

<g transform="translate(0.000000,512.000000) scale(0.100000,-0.100000)"
fill="#000000" stroke="none">
<path d="M2020 4845 c-266 -34 -502 -105 -735 -220 -558 -275 -968 -745 -1165
-1334 -81 -240 -114 -456 -114 -731 0 -207 10 -314 50 -500 157 -735 688
-1360 1393 -1640 546 -216 1185 -214 1723 5 766 313 1293 991 1412 1815 22
156 29 360 17 480 -6 57 -15 108 -19 112 -4 4 -118 -3 -252 -17 -135 -14 -248
-25 -252 -25 -4 0 -3 -14 2 -30 29 -101 19 -368 -21 -564 -118 -588 -529
-1080 -1084 -1301 -95 -38 -246 -81 -358 -102 -117 -22 -484 -25 -597 -5 -381
68 -688 220 -950 469 -311 295 -495 665 -545 1093 -27 224 -12 440 44 662 54
213 152 422 284 608 81 113 289 319 407 402 306 216 662 328 1045 328 287 0
540 -58 818 -187 42 -20 79 -34 81 -32 21 24 246 421 242 428 -8 13 -219 114
-323 155 -109 42 -319 99 -453 122 -131 22 -509 28 -650 9z"/>
<path d="M3658 3763 l-1098 -1098 -434 434 -435 435 -127 -120 c-71 -65 -157
-146 -192 -179 l-64 -60 453 -445 c250 -244 532 -521 627 -614 l172 -171 1280
1280 1280 1280 -177 177 c-98 98 -180 178 -183 178 -3 0 -499 -494 -1102
-1097z"/>
</g>
</svg>
