<svg width="17" height="17" viewBox="0 0 17 17" fill="none" xmlns="http://www.w3.org/2000/svg">
<path d="M2.125 4.25H3.54167H14.875" stroke="#AC2323" stroke-width="2" stroke-linecap="round" stroke-linejoin="round"/>
<path d="M13.4583 4.25008V14.1667C13.4583 14.5425 13.3091 14.9028 13.0434 15.1685C12.7777 15.4342 12.4174 15.5834 12.0417 15.5834H4.95832C4.5826 15.5834 4.22226 15.4342 3.95659 15.1685C3.69091 14.9028 3.54166 14.5425 3.54166 14.1667V4.25008M5.66666 4.25008V2.83341C5.66666 2.45769 5.81591 2.09736 6.08159 1.83168C6.34727 1.566 6.7076 1.41675 7.08332 1.41675H9.91666C10.2924 1.41675 10.6527 1.566 10.9184 1.83168C11.1841 2.09736 11.3333 2.45769 11.3333 2.83341V4.25008" stroke="#AC2323" stroke-width="2" stroke-linecap="round" stroke-linejoin="round"/>
<path d="M7.08334 7.79175V12.0417" stroke="#AC2323" stroke-width="2" stroke-linecap="round" stroke-linejoin="round"/>
<path d="M9.91666 7.79175V12.0417" stroke="#AC2323" stroke-width="2" stroke-linecap="round" stroke-linejoin="round"/>
</svg>
