<svg width="40" height="40" viewBox="0 0 40 40" fill="none" xmlns="http://www.w3.org/2000/svg">
<path fill-rule="evenodd" clip-rule="evenodd" d="M6.15808 19.3215C5.60001 20.4425 5.60001 21.7178 5.60001 24.2683V32.234C5.60001 35.7762 5.60001 37.5473 6.79111 38.6477C7.9822 39.7481 9.89925 39.7481 13.7333 39.7481H13.75V30.3556C13.75 28.6928 15.1841 27.4771 16.7833 27.4771H22.8833C24.4826 27.4771 25.9167 28.6928 25.9167 30.3556V39.7481H25.9333C29.7674 39.7481 31.6845 39.7481 32.8756 38.6477C34.0667 37.5473 34.0667 35.7762 34.0667 32.234V24.2683C34.0667 21.7178 34.0667 20.4425 33.5086 19.3215C32.9505 18.2005 31.9025 17.3705 29.8063 15.7106L27.773 14.1005C23.9842 11.1002 22.0899 9.6001 19.8333 9.6001C17.5768 9.6001 15.6824 11.1002 11.8937 14.1005L9.86035 15.7106C7.76422 17.3705 6.71615 18.2005 6.15808 19.3215ZM23.9167 39.7481V30.3556C23.9167 29.9435 23.5301 29.4771 22.8833 29.4771H16.7833C16.1366 29.4771 15.75 29.9435 15.75 30.3556V39.7481H23.9167Z" fill="white"/>
</svg>
