<?xml version="1.0" encoding="UTF-8"?>
<!DOCTYPE svg PUBLIC "-//W3C//DTD SVG 1.1//EN" "http://www.w3.org/Graphics/SVG/1.1/DTD/svg11.dtd">
<svg xmlns="http://www.w3.org/2000/svg" version="1.1" width="512px" height="512px" style="shape-rendering:geometricPrecision; text-rendering:geometricPrecision; image-rendering:optimizeQuality; fill-rule:evenodd; clip-rule:evenodd" xmlns:xlink="http://www.w3.org/1999/xlink">
<g><path style="opacity:0.982" fill="#020100" d="M 511.5,235.5 C 511.5,242.833 511.5,250.167 511.5,257.5C 506.924,276.916 495.757,291.249 478,300.5C 465.278,336.275 452.278,371.942 439,407.5C 435.016,416.151 428.516,421.985 419.5,425C 310.167,425.667 200.833,425.667 91.5,425C 82.4841,421.985 75.9841,416.151 72,407.5C 58.7216,371.942 45.7216,336.275 33,300.5C 15.2426,291.249 4.07588,276.916 -0.5,257.5C -0.5,250.167 -0.5,242.833 -0.5,235.5C 7.70919,204.359 28.0425,187.859 60.5,186C 70.5041,167.017 83.8374,150.684 100.5,137C 106.025,133.53 111.358,133.696 116.5,137.5C 119.32,142.257 119.153,146.924 116,151.5C 97.3512,166.469 82.8512,184.635 72.5,206C 64.9108,207.231 57.2441,207.897 49.5,208C 23.4042,217.693 14.5709,235.859 23,262.5C 38.2715,287.25 58.4382,292.083 83.5,277C 86.538,274.297 89.2046,271.297 91.5,268C 95.8333,264.667 100.167,264.667 104.5,268C 121.693,288.275 141.36,290.942 163.5,276C 166.564,270.597 171.064,267.097 177,265.5C 178.627,265.625 180.127,266.125 181.5,267C 197.758,287.234 217.092,290.901 239.5,278C 243.167,274.333 246.833,270.667 250.5,267C 253.833,266.333 257.167,266.333 260.5,267C 274.599,285.274 292.266,289.941 313.5,281C 319.426,277.079 324.759,272.412 329.5,267C 333.334,264.963 337.001,265.296 340.5,268C 357.719,288.24 377.386,290.907 399.5,276C 402.069,273.521 404.402,270.854 406.5,268C 410.833,264.667 415.167,264.667 419.5,268C 433.823,286.329 451.489,290.329 472.5,280C 493.499,263.67 496.999,244.17 483,221.5C 470.747,209.192 455.913,204.026 438.5,206C 416.226,163.491 382.226,134.491 336.5,119C 287.287,102.761 237.62,101.261 187.5,114.5C 185.209,114.378 183.209,113.545 181.5,112C 180.512,109.833 179.179,108 177.5,106.5C 177.274,101.45 179.274,97.6166 183.5,95C 252.416,76.4912 318.416,83.8245 381.5,117C 411.167,133.333 434.167,156.333 450.5,186C 482.919,187.847 503.252,204.347 511.5,235.5 Z"/></g>
<g><path style="opacity:1" fill="#fea86a" d="M 116.5,137.5 C 122.826,132.669 129.492,128.335 136.5,124.5C 142.671,132.435 148.838,132.435 155,124.5C 155.498,121.183 155.665,117.85 155.5,114.5C 162.973,112.011 170.306,109.344 177.5,106.5C 179.179,108 180.512,109.833 181.5,112C 183.209,113.545 185.209,114.378 187.5,114.5C 237.62,101.261 287.287,102.761 336.5,119C 382.226,134.491 416.226,163.491 438.5,206C 455.913,204.026 470.747,209.192 483,221.5C 496.999,244.17 493.499,263.67 472.5,280C 451.489,290.329 433.823,286.329 419.5,268C 415.167,264.667 410.833,264.667 406.5,268C 404.402,270.854 402.069,273.521 399.5,276C 377.386,290.907 357.719,288.24 340.5,268C 337.001,265.296 333.334,264.963 329.5,267C 324.759,272.412 319.426,277.079 313.5,281C 292.266,289.941 274.599,285.274 260.5,267C 257.167,266.333 253.833,266.333 250.5,267C 246.833,270.667 243.167,274.333 239.5,278C 217.092,290.901 197.758,287.234 181.5,267C 180.127,266.125 178.627,265.625 177,265.5C 171.064,267.097 166.564,270.597 163.5,276C 141.36,290.942 121.693,288.275 104.5,268C 100.167,264.667 95.8333,264.667 91.5,268C 89.2046,271.297 86.538,274.297 83.5,277C 58.4382,292.083 38.2715,287.25 23,262.5C 14.5709,235.859 23.4042,217.693 49.5,208C 57.2441,207.897 64.9108,207.231 72.5,206C 82.8512,184.635 97.3512,166.469 116,151.5C 119.153,146.924 119.32,142.257 116.5,137.5 Z"/></g>
<g><path style="opacity:0.936" fill="#040201" d="M 155.5,114.5 C 155.665,117.85 155.498,121.183 155,124.5C 148.838,132.435 142.671,132.435 136.5,124.5C 134.949,112.888 139.949,108.388 151.5,111C 152.705,112.376 154.038,113.542 155.5,114.5 Z"/></g>
<g><path style="opacity:1" fill="#090503" d="M 176.5,151.5 C 188.94,152.715 192.107,158.715 186,169.5C 176.5,179 167,188.5 157.5,198C 148.294,203.059 142.627,200.559 140.5,190.5C 140.295,187.771 141.128,185.438 143,183.5C 153.759,172.237 164.926,161.57 176.5,151.5 Z"/></g>
<g><path style="opacity:1" fill="#090503" d="M 328.5,151.5 C 332.059,151.408 335.392,152.241 338.5,154C 348.333,163.833 358.167,173.667 368,183.5C 373.093,192.64 370.593,198.307 360.5,200.5C 357.771,200.705 355.438,199.872 353.5,198C 344,188.5 334.5,179 325,169.5C 319.567,162.165 320.734,156.165 328.5,151.5 Z"/></g>
<g><path style="opacity:1" fill="#030201" d="M 252.5,164.5 C 258.327,163.937 262.494,166.27 265,171.5C 265.667,187.167 265.667,202.833 265,218.5C 262.328,225.501 257.495,227.668 250.5,225C 248.19,223.363 246.69,221.196 246,218.5C 245.333,202.833 245.333,187.167 246,171.5C 247.694,168.642 249.861,166.309 252.5,164.5 Z"/></g>
<g><path style="opacity:1" fill="#c58964" d="M 97.5,290.5 C 117.127,306.761 138.794,309.928 162.5,300C 167.761,297.455 172.594,294.288 177,290.5C 197.279,307.201 219.446,310.034 243.5,299C 247.676,296.412 251.676,293.579 255.5,290.5C 274.073,305.803 294.739,309.303 317.5,301C 323.535,298.29 329.035,294.79 334,290.5C 352.781,305.731 373.614,309.231 396.5,301C 402.535,298.29 408.035,294.79 413,290.5C 424.788,300.987 438.621,306.153 454.5,306C 442.759,338.317 430.593,370.483 418,402.5C 417.097,403.701 415.931,404.535 414.5,405C 308.5,405.667 202.5,405.667 96.5,405C 92.9212,402.369 90.4212,398.869 89,394.5C 78.3584,364.906 67.5251,335.406 56.5,306C 72.2293,305.819 85.896,300.652 97.5,290.5 Z"/></g>
</svg>
