<?xml version="1.0" encoding="UTF-8"?>
<!DOCTYPE svg PUBLIC "-//W3C//DTD SVG 1.1//EN" "http://www.w3.org/Graphics/SVG/1.1/DTD/svg11.dtd">
<svg xmlns="http://www.w3.org/2000/svg" version="1.1" width="512px" height="512px" style="shape-rendering:geometricPrecision; text-rendering:geometricPrecision; image-rendering:optimizeQuality; fill-rule:evenodd; clip-rule:evenodd" xmlns:xlink="http://www.w3.org/1999/xlink">
<g><path style="opacity:0.982" fill="#020202" d="M 52.5,-0.5 C 55.5,-0.5 58.5,-0.5 61.5,-0.5C 73.0167,5.75855 84.6834,11.7586 96.5,17.5C 108.834,11.9994 120.834,5.99944 132.5,-0.5C 135.167,-0.5 137.833,-0.5 140.5,-0.5C 152.054,5.86103 163.888,11.861 176,17.5C 188.112,11.861 199.946,5.86103 211.5,-0.5C 214.167,-0.5 216.833,-0.5 219.5,-0.5C 231.166,5.99944 243.166,11.9994 255.5,17.5C 267.834,11.9994 279.834,5.99944 291.5,-0.5C 294.167,-0.5 296.833,-0.5 299.5,-0.5C 311.054,5.86103 322.888,11.861 335,17.5C 347.112,11.861 358.946,5.86103 370.5,-0.5C 373.167,-0.5 375.833,-0.5 378.5,-0.5C 390.166,5.99944 402.166,11.9994 414.5,17.5C 426.348,11.7433 438.015,5.74335 449.5,-0.5C 452.5,-0.5 455.5,-0.5 458.5,-0.5C 459.122,0.626561 459.955,1.62656 461,2.5C 461.667,26.5 461.667,50.5 461,74.5C 459.951,78.265 458.618,81.9317 457,85.5C 451.047,93.7877 444.714,101.788 438,109.5C 435.816,112.866 434.483,116.533 434,120.5C 433.667,199.167 433.333,277.833 433,356.5C 431.429,358.923 429.263,360.256 426.5,360.5C 422.91,360.456 420.41,358.789 419,355.5C 418.501,349.509 418.334,343.509 418.5,337.5C 413.833,337.5 409.167,337.5 404.5,337.5C 300.5,337.5 196.5,337.5 92.5,337.5C 92.5,355.5 92.5,373.5 92.5,391.5C 91.5742,397.445 89.7408,403.111 87,408.5C 81.573,415.683 75.9064,422.683 70,429.5C 67.676,432.48 66.176,435.813 65.5,439.5C 64.5206,442.625 64.1872,445.958 64.5,449.5C 191.833,449.5 319.167,449.5 446.5,449.5C 446.813,445.958 446.479,442.625 445.5,439.5C 444.824,435.813 443.324,432.48 441,429.5C 435.094,422.683 429.427,415.683 424,408.5C 419.898,400.989 418.231,392.989 419,384.5C 420.913,381.72 423.413,380.053 426.5,379.5C 428.583,380.029 430.417,381.029 432,382.5C 433.122,389.112 435.122,395.446 438,401.5C 444.714,409.212 451.047,417.212 457,425.5C 458.618,429.068 459.951,432.735 461,436.5C 461.667,460.167 461.667,483.833 461,507.5C 460.338,508.984 459.504,510.317 458.5,511.5C 455.5,511.5 452.5,511.5 449.5,511.5C 438.015,505.257 426.348,499.257 414.5,493.5C 402.166,499.001 390.166,505.001 378.5,511.5C 375.833,511.5 373.167,511.5 370.5,511.5C 358.946,505.139 347.112,499.139 335,493.5C 322.888,499.139 311.054,505.139 299.5,511.5C 296.833,511.5 294.167,511.5 291.5,511.5C 279.834,505.001 267.834,499.001 255.5,493.5C 243.166,499.001 231.166,505.001 219.5,511.5C 216.833,511.5 214.167,511.5 211.5,511.5C 199.946,505.139 188.112,499.139 176,493.5C 163.888,499.139 152.054,505.139 140.5,511.5C 137.833,511.5 135.167,511.5 132.5,511.5C 120.834,505.001 108.834,499.001 96.5,493.5C 84.6834,499.241 73.0167,505.241 61.5,511.5C 58.5,511.5 55.5,511.5 52.5,511.5C 51.8783,510.373 51.045,509.373 50,508.5C 49.3333,484.5 49.3333,460.5 50,436.5C 51.0485,432.735 52.3819,429.068 54,425.5C 59.9526,417.212 66.2859,409.212 73,401.5C 75.1841,398.134 76.5175,394.467 77,390.5C 77.6667,300.5 77.6667,210.5 77,120.5C 76.5175,116.533 75.1841,112.866 73,109.5C 66.2859,101.788 59.9526,93.7877 54,85.5C 52.3819,81.9317 51.0485,78.265 50,74.5C 49.3333,50.5 49.3333,26.5 50,2.5C 51.045,1.62656 51.8783,0.626561 52.5,-0.5 Z"/></g>
<g><path style="opacity:1" fill="#c9c2ca" d="M 430.5,27.5 C 432.456,33.412 433.123,39.7453 432.5,46.5C 309.833,46.5 187.167,46.5 64.5,46.5C 64.1685,37.4754 64.5018,28.4754 65.5,19.5C 75.6487,24.6581 85.8154,29.6581 96,34.5C 109.789,28.8563 123.289,22.523 136.5,15.5C 149.496,22.2486 162.663,28.582 176,34.5C 189.442,28.4461 202.775,22.1128 216,15.5C 228.706,22.3523 241.706,28.6857 255,34.5C 268.746,28.9595 282.08,22.6261 295,15.5C 308.111,21.9723 321.278,28.3056 334.5,34.5C 348.071,28.7151 361.404,22.3818 374.5,15.5C 386.833,21.6667 399.167,27.8333 411.5,34C 413.167,34.6667 414.833,34.6667 416.5,34C 421.068,31.5482 425.735,29.3815 430.5,27.5 Z"/></g>
<g><path style="opacity:1" fill="#b2aab3" d="M 432.5,46.5 C 433.123,39.7453 432.456,33.412 430.5,27.5C 435.28,24.6076 440.28,21.9409 445.5,19.5C 446.498,28.4754 446.832,37.4754 446.5,46.5C 441.833,46.5 437.167,46.5 432.5,46.5 Z"/></g>
<g><path style="opacity:1" fill="#aa3131" d="M 445.5,71.5 C 445.5,68.5 445.5,65.5 445.5,62.5C 441.167,62.5 436.833,62.5 432.5,62.5C 310.167,62.5 187.833,62.5 65.5,62.5C 65.5,65.5 65.5,68.5 65.5,71.5C 64.5206,68.3752 64.1872,65.0419 64.5,61.5C 191.833,61.5 319.167,61.5 446.5,61.5C 446.813,65.0419 446.479,68.3752 445.5,71.5 Z"/></g>
<g><path style="opacity:1" fill="#e84343" d="M 432.5,62.5 C 432.893,69.5958 431.393,76.2625 428,82.5C 419.894,91.9384 412.561,101.938 406,112.5C 404.561,132.454 404.061,152.454 404.5,172.5C 328.166,172.333 251.833,172.5 175.5,173C 171.993,174.33 170.327,176.83 170.5,180.5C 163.833,180.5 157.167,180.5 150.5,180.5C 149.857,177.012 147.857,174.512 144.5,173C 127.17,172.5 109.837,172.333 92.5,172.5C 92.6666,153.164 92.5,133.83 92,114.5C 90.8854,110.271 89.2187,106.271 87,102.5C 81.573,95.3168 75.9064,88.3168 70,81.5C 67.682,78.531 66.182,75.1977 65.5,71.5C 65.5,68.5 65.5,65.5 65.5,62.5C 187.833,62.5 310.167,62.5 432.5,62.5 Z"/></g>
<g><path style="opacity:1" fill="#d53030" d="M 432.5,62.5 C 436.833,62.5 441.167,62.5 445.5,62.5C 445.5,65.5 445.5,68.5 445.5,71.5C 444.818,75.1977 443.318,78.531 441,81.5C 435.094,88.3168 429.427,95.3168 424,102.5C 421.781,106.271 420.115,110.271 419,114.5C 418.5,133.83 418.333,153.164 418.5,172.5C 413.833,172.5 409.167,172.5 404.5,172.5C 404.061,152.454 404.561,132.454 406,112.5C 412.561,101.938 419.894,91.9384 428,82.5C 431.393,76.2625 432.893,69.5958 432.5,62.5 Z"/></g>
<g><path style="opacity:1" fill="#f1eff1" d="M 150.5,180.5 C 157.167,180.5 163.833,180.5 170.5,180.5C 170.41,184.665 172.41,186.998 176.5,187.5C 252.332,188.499 328.332,188.833 404.5,188.5C 404.5,233.167 404.5,277.833 404.5,322.5C 300.833,322.5 197.167,322.5 93.5,322.5C 93.5,277.833 93.5,233.167 93.5,188.5C 110.675,188.83 127.675,188.497 144.5,187.5C 147.932,186.401 149.932,184.067 150.5,180.5 Z"/></g>
<g><path style="opacity:1" fill="#a5a2a5" d="M 176.5,187.5 C 257.167,187.5 337.833,187.5 418.5,187.5C 418.832,232.67 418.499,277.67 417.5,322.5C 417.5,277.833 417.5,233.167 417.5,188.5C 413.167,188.5 408.833,188.5 404.5,188.5C 328.332,188.833 252.332,188.499 176.5,187.5 Z"/></g>
<g><path style="opacity:1" fill="#b7b5b7" d="M 144.5,187.5 C 127.675,188.497 110.675,188.83 93.5,188.5C 93.5,233.167 93.5,277.833 93.5,322.5C 92.5013,277.67 92.1679,232.67 92.5,187.5C 109.833,187.5 127.167,187.5 144.5,187.5 Z"/></g>
<g><path style="opacity:1" fill="#e1dee1" d="M 404.5,188.5 C 408.833,188.5 413.167,188.5 417.5,188.5C 417.5,233.167 417.5,277.833 417.5,322.5C 413.167,322.5 408.833,322.5 404.5,322.5C 404.5,277.833 404.5,233.167 404.5,188.5 Z"/></g>
<g><path style="opacity:1" fill="#080808" d="M 134.5,225.5 C 143.164,224.5 151.164,226.333 158.5,231C 161.742,235.536 160.742,238.702 155.5,240.5C 149.788,236.43 143.455,234.93 136.5,236C 132.067,238.331 131.4,241.498 134.5,245.5C 141.208,248.236 147.874,251.069 154.5,254C 164.769,262.619 165.102,271.619 155.5,281C 144.384,287.488 133.718,286.822 123.5,279C 117.186,272.189 118.52,268.856 127.5,269C 133.9,275.715 141.234,277.048 149.5,273C 153.737,268.939 153.403,265.272 148.5,262C 141.336,259.39 134.336,256.39 127.5,253C 119.064,241.076 121.398,231.909 134.5,225.5 Z"/></g>
<g><path style="opacity:1" fill="#040404" d="M 174.5,225.5 C 177.365,225.055 179.865,225.722 182,227.5C 189.944,239.776 198.277,251.776 207,263.5C 207.333,251.5 207.667,239.5 208,227.5C 211,224.833 214,224.833 217,227.5C 217.667,245.5 217.667,263.5 217,281.5C 213.841,285.436 210.508,285.436 207,281.5C 198.753,270.007 190.753,258.34 183,246.5C 182.667,258.5 182.333,270.5 182,282.5C 179,286.5 176,286.5 173,282.5C 172.333,264.167 172.333,245.833 173,227.5C 173.717,226.956 174.217,226.289 174.5,225.5 Z"/></g>
<g><path style="opacity:1" fill="#080808" d="M 251.5,225.5 C 256.598,224.429 259.764,226.429 261,231.5C 266.389,246.61 272.056,261.61 278,276.5C 280.219,282.93 278.053,285.763 271.5,285C 269.169,281.853 267.502,278.353 266.5,274.5C 258.193,273.502 249.86,273.169 241.5,273.5C 240.705,277.72 239.038,281.553 236.5,285C 230.839,285.667 228.672,283.167 230,277.5C 236,261.5 242,245.5 248,229.5C 249.032,227.973 250.199,226.64 251.5,225.5 Z"/></g>
<g><path style="opacity:1" fill="#070707" d="M 308.5,225.5 C 317.461,224.393 325.794,226.06 333.5,230.5C 336.653,234.888 335.653,237.888 330.5,239.5C 315.702,231.408 304.535,234.742 297,249.5C 295.669,268.84 304.503,277.007 323.5,274C 325.792,272.71 327.792,271.043 329.5,269C 335.167,267.672 337.667,269.839 337,275.5C 322.738,288.784 308.405,288.784 294,275.5C 280.717,253.52 285.551,236.853 308.5,225.5 Z"/></g>
<g><path style="opacity:1" fill="#070707" d="M 354.5,225.5 C 357.365,225.055 359.865,225.722 362,227.5C 362.171,232.864 362.671,238.198 363.5,243.5C 369.683,237.483 376.017,231.649 382.5,226C 387.822,225.66 389.989,228.16 389,233.5C 381.5,240.333 374,247.167 366.5,254C 374.03,261.865 381.864,269.365 390,276.5C 392.569,282.256 390.736,285.089 384.5,285C 377.03,278.532 369.864,271.698 363,264.5C 362.794,270.884 362.294,277.217 361.5,283.5C 358.329,286.335 355.496,286.002 353,282.5C 352.333,264.5 352.333,246.5 353,228.5C 353.513,227.473 354.013,226.473 354.5,225.5 Z"/></g>
<g><path style="opacity:1" fill="#e1dee1" d="M 253.5,242.5 C 256.974,249.128 259.64,256.128 261.5,263.5C 256.5,263.5 251.5,263.5 246.5,263.5C 248.632,256.438 250.965,249.438 253.5,242.5 Z"/></g>
<g><path style="opacity:1" fill="#d43d3d" d="M 404.5,337.5 C 404.5,337.833 404.5,338.167 404.5,338.5C 300.833,338.5 197.167,338.5 93.5,338.5C 93.8301,356.341 93.4967,374.008 92.5,391.5C 92.5,373.5 92.5,355.5 92.5,337.5C 196.5,337.5 300.5,337.5 404.5,337.5 Z"/></g>
<g><path style="opacity:1" fill="#e84343" d="M 404.5,338.5 C 404.049,358.221 404.549,377.888 406,397.5C 407.139,401.112 408.806,404.446 411,407.5C 416.667,414.5 422.333,421.5 428,428.5C 431.906,434.611 433.406,441.278 432.5,448.5C 310.167,448.5 187.833,448.5 65.5,448.5C 65.5,445.5 65.5,442.5 65.5,439.5C 66.176,435.813 67.676,432.48 70,429.5C 75.9064,422.683 81.573,415.683 87,408.5C 89.7408,403.111 91.5742,397.445 92.5,391.5C 93.4967,374.008 93.8301,356.341 93.5,338.5C 197.167,338.5 300.833,338.5 404.5,338.5 Z"/></g>
<g><path style="opacity:1" fill="#d63030" d="M 404.5,337.5 C 409.167,337.5 413.833,337.5 418.5,337.5C 418.334,343.509 418.501,349.509 419,355.5C 420.41,358.789 422.91,360.456 426.5,360.5C 426.5,366.833 426.5,373.167 426.5,379.5C 423.413,380.053 420.913,381.72 419,384.5C 418.231,392.989 419.898,400.989 424,408.5C 429.427,415.683 435.094,422.683 441,429.5C 443.324,432.48 444.824,435.813 445.5,439.5C 445.5,442.5 445.5,445.5 445.5,448.5C 441.167,448.5 436.833,448.5 432.5,448.5C 433.406,441.278 431.906,434.611 428,428.5C 422.333,421.5 416.667,414.5 411,407.5C 408.806,404.446 407.139,401.112 406,397.5C 404.549,377.888 404.049,358.221 404.5,338.5C 404.5,338.167 404.5,337.833 404.5,337.5 Z"/></g>
<g><path style="opacity:1" fill="#ab3131" d="M 65.5,439.5 C 65.5,442.5 65.5,445.5 65.5,448.5C 187.833,448.5 310.167,448.5 432.5,448.5C 436.833,448.5 441.167,448.5 445.5,448.5C 445.5,445.5 445.5,442.5 445.5,439.5C 446.479,442.625 446.813,445.958 446.5,449.5C 319.167,449.5 191.833,449.5 64.5,449.5C 64.1872,445.958 64.5206,442.625 65.5,439.5 Z"/></g>
<g><path style="opacity:1" fill="#c9c2ca" d="M 432.5,464.5 C 433.123,471.255 432.456,477.588 430.5,483.5C 425.735,481.618 421.068,479.452 416.5,477C 414.833,476.333 413.167,476.333 411.5,477C 399.167,483.167 386.833,489.333 374.5,495.5C 361.504,488.751 348.337,482.418 335,476.5C 321.558,482.554 308.225,488.887 295,495.5C 282.08,488.374 268.746,482.041 255,476.5C 241.706,482.314 228.706,488.648 216,495.5C 202.775,488.887 189.442,482.554 176,476.5C 162.663,482.418 149.496,488.751 136.5,495.5C 123.289,488.477 109.789,482.144 96,476.5C 85.8154,481.342 75.6487,486.342 65.5,491.5C 64.5018,482.525 64.1685,473.525 64.5,464.5C 187.167,464.5 309.833,464.5 432.5,464.5 Z"/></g>
<g><path style="opacity:1" fill="#b2aab3" d="M 432.5,464.5 C 437.167,464.5 441.833,464.5 446.5,464.5C 446.832,473.525 446.498,482.525 445.5,491.5C 440.28,489.059 435.28,486.392 430.5,483.5C 432.456,477.588 433.123,471.255 432.5,464.5 Z"/></g>
</svg>
