<?xml version="1.0" encoding="UTF-8"?>
<!DOCTYPE svg PUBLIC "-//W3C//DTD SVG 1.1//EN" "http://www.w3.org/Graphics/SVG/1.1/DTD/svg11.dtd">
<svg xmlns="http://www.w3.org/2000/svg" version="1.1" width="512px" height="512px" style="shape-rendering:geometricPrecision; text-rendering:geometricPrecision; image-rendering:optimizeQuality; fill-rule:evenodd; clip-rule:evenodd" xmlns:xlink="http://www.w3.org/1999/xlink">
<g><path style="opacity:0.976" fill="#020101" d="M 64.5,-0.5 C 70.8333,-0.5 77.1667,-0.5 83.5,-0.5C 92.3103,1.91027 99.9769,6.41027 106.5,13C 111.651,15.9048 116.985,16.2381 122.5,14C 129.695,7.07368 138.028,2.24034 147.5,-0.5C 153.5,-0.5 159.5,-0.5 165.5,-0.5C 189.844,7.15571 201.011,23.8224 199,49.5C 195.795,64.7039 187.295,75.8706 173.5,83C 178.033,90.2615 181.199,98.0948 183,106.5C 184.224,120.793 184.891,135.127 185,149.5C 199.482,166.283 214.315,182.783 229.5,199C 295.5,199.667 361.5,199.667 427.5,199C 444.155,195.769 460.821,192.602 477.5,189.5C 489.753,191.254 494.919,198.254 493,210.5C 489.333,219.5 485.667,228.5 482,237.5C 478.323,314.411 443.823,372.577 378.5,412C 365.073,419.213 351.073,425.047 336.5,429.5C 335.956,451.209 335.123,472.876 334,494.5C 330.167,502.838 324,508.505 315.5,511.5C 281.833,511.5 248.167,511.5 214.5,511.5C 208.489,507.291 206.156,501.458 207.5,494C 206.749,479.103 213.416,469.436 227.5,465C 237.494,464.5 247.494,464.334 257.5,464.5C 257.5,455.167 257.5,445.833 257.5,436.5C 188.422,429.57 135.589,396.903 99,338.5C 93.8652,329.897 89.5318,320.897 86,311.5C 84.6624,306.96 85.8291,303.293 89.5,300.5C 93.8027,299.796 97.3027,301.13 100,304.5C 121.511,357.01 159.011,392.844 212.5,412C 248.567,422.917 284.901,424.417 321.5,416.5C 373.571,404.223 413.405,375.223 441,329.5C 457.308,299.936 465.641,268.269 466,234.5C 470.038,224.926 474.204,215.426 478.5,206C 462.73,207.752 447.064,210.419 431.5,214C 424.174,214.5 416.841,214.666 409.5,214.5C 409.665,231.859 401.999,244.193 386.5,251.5C 386.665,266.549 380.832,278.549 369,287.5C 369.782,299.618 366.782,310.618 360,320.5C 354.671,326.25 348.171,330.084 340.5,332C 306.5,332.667 272.5,332.667 238.5,332C 232.659,326.389 233.325,321.889 240.5,318.5C 271.835,318.667 303.168,318.5 334.5,318C 343.434,316.712 349.434,311.879 352.5,303.5C 352.5,303.167 352.5,302.833 352.5,302.5C 353.477,299.713 353.81,296.713 353.5,293.5C 319.165,293.667 284.832,293.5 250.5,293C 244.938,287.837 245.271,283.171 251.5,279C 285.833,278.667 320.167,278.333 354.5,278C 359.411,276.384 363.411,273.551 366.5,269.5C 368.353,266.792 369.353,263.792 369.5,260.5C 370.468,258.393 370.802,256.059 370.5,253.5C 362.833,253.5 355.167,253.5 347.5,253.5C 344.428,252.699 342.762,250.699 342.5,247.5C 342.308,244.191 343.641,241.691 346.5,240C 356.167,239.667 365.833,239.333 375.5,239C 382.146,238.348 387.146,235.181 390.5,229.5C 392.065,227.491 393.065,225.157 393.5,222.5C 394.473,220.052 394.806,217.385 394.5,214.5C 343.833,214.5 293.167,214.5 242.5,214.5C 235.053,214.929 227.719,214.429 220.5,213C 204.667,195.167 188.833,177.333 173,159.5C 171.275,156.326 169.942,152.993 169,149.5C 168.667,136.167 168.333,122.833 168,109.5C 157.94,78.5486 136.774,65.5486 104.5,70.5C 75.3826,81.0618 62.8826,101.728 67,132.5C 73.884,154.05 88.384,167.217 110.5,172C 114.212,174.513 115.378,178.013 114,182.5C 112.786,184.049 111.286,185.215 109.5,186C 104.677,186.129 100.011,185.295 95.5,183.5C 86.4067,214.144 85.0734,245.144 91.5,276.5C 91.7157,281.089 89.7157,284.089 85.5,285.5C 81.6453,286.155 78.8119,284.821 77,281.5C 74.2234,268.225 72.0568,254.892 70.5,241.5C 49.9552,248.142 35.7885,241.476 28,221.5C 25.4076,206.684 30.0743,194.684 42,185.5C 42.8323,175.151 42.6656,164.817 41.5,154.5C 19.106,150.375 12.606,138.042 22,117.5C 33.5622,107.971 45.3956,98.8039 57.5,90C 58.5853,87.828 59.9186,85.828 61.5,84C 42.4107,76.5632 32.0774,62.5632 30.5,42C 32.4771,20.2038 43.8105,6.03718 64.5,-0.5 Z"/></g>
<g><path style="opacity:1" fill="#f64b58" d="M 79.5,15.5 C 58.3616,26.9095 52.0283,43.9095 60.5,66.5C 45.7377,56.026 42.5711,42.6927 51,26.5C 58.2794,16.7668 67.7794,13.1002 79.5,15.5 Z"/></g>
<g><path style="opacity:1" fill="#fa6671" d="M 60.5,66.5 C 52.0283,43.9095 58.3616,26.9095 79.5,15.5C 86.8445,16.6743 92.8445,20.1743 97.5,26C 107.762,32.5685 118.429,33.2351 129.5,28C 134.5,24.3333 139.5,20.6667 144.5,17C 162.106,11.4228 174.94,16.9228 183,33.5C 186.381,52.0734 179.048,64.0734 161,69.5C 140.9,54.34 118.734,50.5067 94.5,58C 87.6694,60.8357 81.3361,64.5023 75.5,69C 70.1557,70.0191 65.1557,69.1858 60.5,66.5 Z"/></g>
<g><path style="opacity:1" fill="#eeecee" d="M 242.5,214.5 C 243.149,249.389 242.483,284.055 240.5,318.5C 233.325,321.889 232.659,326.389 238.5,332C 272.5,332.667 306.5,332.667 340.5,332C 348.171,330.084 354.671,326.25 360,320.5C 366.782,310.618 369.782,299.618 369,287.5C 380.832,278.549 386.665,266.549 386.5,251.5C 401.999,244.193 409.665,231.859 409.5,214.5C 416.841,214.666 424.174,214.5 431.5,214C 447.064,210.419 462.73,207.752 478.5,206C 474.204,215.426 470.038,224.926 466,234.5C 465.641,268.269 457.308,299.936 441,329.5C 413.405,375.223 373.571,404.223 321.5,416.5C 246.383,420.021 187.216,391.354 144,330.5C 110.622,277.464 103.789,221.131 123.5,161.5C 91.3977,141.017 83.231,113.351 99,78.5C 100.596,75.6305 102.43,72.9639 104.5,70.5C 136.774,65.5486 157.94,78.5486 168,109.5C 168.333,122.833 168.667,136.167 169,149.5C 169.942,152.993 171.275,156.326 173,159.5C 188.833,177.333 204.667,195.167 220.5,213C 227.719,214.429 235.053,214.929 242.5,214.5 Z"/></g>
<g><path style="opacity:1" fill="#e2dee2" d="M 104.5,70.5 C 102.43,72.9639 100.596,75.6305 99,78.5C 83.231,113.351 91.3977,141.017 123.5,161.5C 103.789,221.131 110.622,277.464 144,330.5C 187.216,391.354 246.383,420.021 321.5,416.5C 284.901,424.417 248.567,422.917 212.5,412C 159.011,392.844 121.511,357.01 100,304.5C 97.3027,301.13 93.8027,299.796 89.5,300.5C 88.167,295.501 86.8336,290.501 85.5,285.5C 89.7157,284.089 91.7157,281.089 91.5,276.5C 85.0734,245.144 86.4067,214.144 95.5,183.5C 100.011,185.295 104.677,186.129 109.5,186C 111.286,185.215 112.786,184.049 114,182.5C 115.378,178.013 114.212,174.513 110.5,172C 88.384,167.217 73.884,154.05 67,132.5C 62.8826,101.728 75.3826,81.0618 104.5,70.5 Z"/></g>
<g><path style="opacity:1" fill="#090909" d="M 103.5,90.5 C 113.648,90.4802 118.482,95.4802 118,105.5C 115.311,112.802 110.144,115.635 102.5,114C 95.9943,110.834 93.4943,105.667 95,98.5C 97.0738,94.9231 99.9072,92.2565 103.5,90.5 Z"/></g>
<g><path style="opacity:1" fill="#f1bf6e" d="M 49.5,115.5 C 50.1667,118.5 50.8333,121.5 51.5,124.5C 51.7774,129.886 52.4441,135.219 53.5,140.5C 46.6351,140.159 40.1351,138.492 34,135.5C 31.8461,131.942 32.3461,128.775 35.5,126C 40.3504,122.637 45.0171,119.137 49.5,115.5 Z"/></g>
<g><path style="opacity:1" fill="#614c2c" d="M 49.5,115.5 C 49.56,114.957 49.8933,114.624 50.5,114.5C 51.487,117.768 51.8204,121.102 51.5,124.5C 50.8333,121.5 50.1667,118.5 49.5,115.5 Z"/></g>
<g><path style="opacity:1" fill="#a4313a" d="M 60.5,158.5 C 58.8417,168.961 57.8417,179.628 57.5,190.5C 57.5,179.5 57.5,168.5 57.5,157.5C 58.791,157.263 59.791,157.596 60.5,158.5 Z"/></g>
<g><path style="opacity:1" fill="#f84c59" d="M 60.5,158.5 C 64.4346,160.434 67.4346,163.434 69.5,167.5C 69.6665,177.172 69.4998,186.839 69,196.5C 62.8832,201.415 58.2165,207.415 55,214.5C 54.3523,219.204 54.519,223.871 55.5,228.5C 43.441,224.843 39.941,217.176 45,205.5C 49.3781,200.627 53.5448,195.627 57.5,190.5C 57.8417,179.628 58.8417,168.961 60.5,158.5 Z"/></g>
<g><path style="opacity:1" fill="#f86570" d="M 69.5,167.5 C 72.9563,169.783 76.2896,172.283 79.5,175C 80.9436,176.126 81.6102,177.626 81.5,179.5C 78.0296,192.713 75.1963,206.046 73,219.5C 68.5993,225.425 62.766,228.425 55.5,228.5C 54.519,223.871 54.3523,219.204 55,214.5C 58.2165,207.415 62.8832,201.415 69,196.5C 69.4998,186.839 69.6665,177.172 69.5,167.5 Z"/></g>
<g><path style="opacity:1" fill="#d3ccd2" d="M 242.5,214.5 C 293.167,214.5 343.833,214.5 394.5,214.5C 394.806,217.385 394.473,220.052 393.5,222.5C 393.5,220.167 393.5,217.833 393.5,215.5C 353.499,215.333 313.499,215.5 273.5,216C 276.877,222.695 282.21,227.028 289.5,229C 323.165,229.5 356.832,229.667 390.5,229.5C 387.146,235.181 382.146,238.348 375.5,239C 365.833,239.333 356.167,239.667 346.5,240C 343.641,241.691 342.308,244.191 342.5,247.5C 336.925,246.548 331.259,246.214 325.5,246.5C 325.256,243.737 323.923,241.571 321.5,240C 307.5,239.333 293.5,239.333 279.5,240C 277.113,241.547 275.78,243.713 275.5,246.5C 274.5,246.5 273.5,246.5 272.5,246.5C 270.389,257.859 274.723,265.359 285.5,269C 312.498,269.5 339.498,269.667 366.5,269.5C 363.411,273.551 359.411,276.384 354.5,278C 320.167,278.333 285.833,278.667 251.5,279C 245.271,283.171 244.938,287.837 250.5,293C 284.832,293.5 319.165,293.667 353.5,293.5C 353.81,296.713 353.477,299.713 352.5,302.5C 352.5,299.833 352.5,297.167 352.5,294.5C 325.833,294.5 299.167,294.5 272.5,294.5C 272.724,298.562 274.724,301.395 278.5,303C 303.164,303.5 327.831,303.667 352.5,303.5C 349.434,311.879 343.434,316.712 334.5,318C 303.168,318.5 271.835,318.667 240.5,318.5C 242.483,284.055 243.149,249.389 242.5,214.5 Z"/></g>
<g><path style="opacity:1" fill="#e4e0e4" d="M 393.5,222.5 C 393.065,225.157 392.065,227.491 390.5,229.5C 356.832,229.667 323.165,229.5 289.5,229C 282.21,227.028 276.877,222.695 273.5,216C 313.499,215.5 353.499,215.333 393.5,215.5C 393.5,217.833 393.5,220.167 393.5,222.5 Z"/></g>
<g><path style="opacity:1" fill="#090909" d="M 325.5,246.5 C 325.046,250.244 323.046,252.744 319.5,254C 306.5,254.667 293.5,254.667 280.5,254C 277.211,252.59 275.544,250.09 275.5,246.5C 275.78,243.713 277.113,241.547 279.5,240C 293.5,239.333 307.5,239.333 321.5,240C 323.923,241.571 325.256,243.737 325.5,246.5 Z"/></g>
<g><path style="opacity:1" fill="#e4e0e4" d="M 275.5,246.5 C 275.544,250.09 277.211,252.59 280.5,254C 293.5,254.667 306.5,254.667 319.5,254C 323.046,252.744 325.046,250.244 325.5,246.5C 331.259,246.214 336.925,246.548 342.5,247.5C 342.762,250.699 344.428,252.699 347.5,253.5C 354.648,254.492 361.981,254.825 369.5,254.5C 369.5,256.5 369.5,258.5 369.5,260.5C 369.353,263.792 368.353,266.792 366.5,269.5C 339.498,269.667 312.498,269.5 285.5,269C 274.723,265.359 270.389,257.859 272.5,246.5C 273.5,246.5 274.5,246.5 275.5,246.5 Z"/></g>
<g><path style="opacity:1" fill="#686668" d="M 347.5,253.5 C 355.167,253.5 362.833,253.5 370.5,253.5C 370.802,256.059 370.468,258.393 369.5,260.5C 369.5,258.5 369.5,256.5 369.5,254.5C 361.981,254.825 354.648,254.492 347.5,253.5 Z"/></g>
<g><path style="opacity:1" fill="#e4e0e4" d="M 352.5,302.5 C 352.5,302.833 352.5,303.167 352.5,303.5C 327.831,303.667 303.164,303.5 278.5,303C 274.724,301.395 272.724,298.562 272.5,294.5C 299.167,294.5 325.833,294.5 352.5,294.5C 352.5,297.167 352.5,299.833 352.5,302.5 Z"/></g>
<g><path style="opacity:1" fill="#030303" d="M 195.5,318.5 C 203.507,318.334 211.507,318.5 219.5,319C 223.5,323.333 223.5,327.667 219.5,332C 211.5,332.667 203.5,332.667 195.5,332C 191.555,327.503 191.555,323.003 195.5,318.5 Z"/></g>
<g><path style="opacity:1" fill="#f8c471" d="M 317.5,433.5 C 319.486,450.802 320.153,468.468 319.5,486.5C 318.868,491.305 316.201,494.472 311.5,496C 308.167,496.667 304.833,496.667 301.5,496C 302.717,494.352 303.55,492.519 304,490.5C 304.667,485.833 304.667,481.167 304,476.5C 303.208,474.356 301.708,473.023 299.5,472.5C 296.833,466.5 296.833,460.5 299.5,454.5C 301.708,453.977 303.208,452.644 304,450.5C 304.499,445.177 304.666,439.844 304.5,434.5C 308.81,433.92 313.143,433.586 317.5,433.5 Z"/></g>
<g><path style="opacity:1" fill="#c09857" d="M 317.5,433.5 C 318.209,432.596 319.209,432.263 320.5,432.5C 320.83,450.674 320.497,468.674 319.5,486.5C 320.153,468.468 319.486,450.802 317.5,433.5 Z"/></g>
<g><path style="opacity:1" fill="#f7cb83" d="M 299.5,454.5 C 296.833,460.5 296.833,466.5 299.5,472.5C 295.406,471.705 292.239,473.038 290,476.5C 291.398,485.008 288.565,491.508 281.5,496C 262.17,496.5 242.836,496.667 223.5,496.5C 221.634,489.005 223.968,483.505 230.5,480C 241.5,479.667 252.5,479.333 263.5,479C 268.099,477.402 270.932,474.235 272,469.5C 272.5,458.505 272.667,447.505 272.5,436.5C 278.167,436.5 283.833,436.5 289.5,436.5C 289.112,441.628 289.612,446.628 291,451.5C 293.196,454.125 296.03,455.125 299.5,454.5 Z"/></g>
</svg>
