<?xml version="1.0" encoding="UTF-8"?>
<!DOCTYPE svg PUBLIC "-//W3C//DTD SVG 1.1//EN" "http://www.w3.org/Graphics/SVG/1.1/DTD/svg11.dtd">
<svg xmlns="http://www.w3.org/2000/svg" version="1.1" width="512px" height="512px" style="shape-rendering:geometricPrecision; text-rendering:geometricPrecision; image-rendering:optimizeQuality; fill-rule:evenodd; clip-rule:evenodd" xmlns:xlink="http://www.w3.org/1999/xlink">
<g><path style="opacity:0.982" fill="#f7b64b" d="M 64.5,-0.5 C 65.5,-0.5 66.5,-0.5 67.5,-0.5C 71.7967,4.29788 76.2967,8.96455 81,13.5C 85.0035,8.66456 89.1702,3.99789 93.5,-0.5C 94.1667,-0.5 94.8333,-0.5 95.5,-0.5C 99.7967,4.29788 104.297,8.96455 109,13.5C 113.703,8.96455 118.203,4.29788 122.5,-0.5C 123.5,-0.5 124.5,-0.5 125.5,-0.5C 129.83,3.99789 133.997,8.66456 138,13.5C 142.703,8.96455 147.203,4.29788 151.5,-0.5C 152.5,-0.5 153.5,-0.5 154.5,-0.5C 158.797,4.29788 163.297,8.96455 168,13.5C 172.703,8.96455 177.203,4.29788 181.5,-0.5C 182.5,-0.5 183.5,-0.5 184.5,-0.5C 188.088,4.59333 192.255,9.25999 197,13.5C 201.703,8.96455 206.203,4.29788 210.5,-0.5C 211.5,-0.5 212.5,-0.5 213.5,-0.5C 217.797,4.29788 222.297,8.96455 227,13.5C 231.003,8.66456 235.17,3.99789 239.5,-0.5C 240.167,-0.5 240.833,-0.5 241.5,-0.5C 245.812,4.47898 250.479,9.14565 255.5,13.5C 260.521,9.14565 265.188,4.47898 269.5,-0.5C 270.167,-0.5 270.833,-0.5 271.5,-0.5C 275.83,3.99789 279.997,8.66456 284,13.5C 288.703,8.96455 293.203,4.29788 297.5,-0.5C 298.5,-0.5 299.5,-0.5 300.5,-0.5C 304.797,4.29788 309.297,8.96455 314,13.5C 318.745,9.25999 322.912,4.59333 326.5,-0.5C 327.5,-0.5 328.5,-0.5 329.5,-0.5C 333.797,4.29788 338.297,8.96455 343,13.5C 347.703,8.96455 352.203,4.29788 356.5,-0.5C 357.5,-0.5 358.5,-0.5 359.5,-0.5C 363.797,4.29788 368.297,8.96455 373,13.5C 377.003,8.66456 381.17,3.99789 385.5,-0.5C 386.5,-0.5 387.5,-0.5 388.5,-0.5C 392.797,4.29788 397.297,8.96455 402,13.5C 406.703,8.96455 411.203,4.29788 415.5,-0.5C 416.167,-0.5 416.833,-0.5 417.5,-0.5C 421.83,3.99789 425.997,8.66456 430,13.5C 434.703,8.96455 439.203,4.29788 443.5,-0.5C 444.5,-0.5 445.5,-0.5 446.5,-0.5C 450.797,4.29788 455.297,8.96455 460,13.5C 460.167,14.3333 460.333,15.1667 460.5,16C 456.75,32.4978 453.083,48.9978 449.5,65.5C 320.167,65.5 190.833,65.5 61.5,65.5C 57.9166,48.9978 54.2499,32.4978 50.5,16C 50.6667,15.1667 50.8333,14.3333 51,13.5C 55.7033,8.96455 60.2033,4.29788 64.5,-0.5 Z"/></g>
<g><path style="opacity:0.996" fill="#fed05b" d="M 61.5,65.5 C 190.833,65.5 320.167,65.5 449.5,65.5C 464.263,161.758 467.763,258.425 460,355.5C 457.32,385.606 453.82,415.606 449.5,445.5C 320.167,445.5 190.833,445.5 61.5,445.5C 46.737,349.242 43.237,252.575 51,155.5C 53.68,125.394 57.18,95.3939 61.5,65.5 Z"/></g>
<g><path style="opacity:1" fill="#f8b64c" d="M 166.5,91.5 C 191.82,91.3134 208.32,103.313 216,127.5C 216.667,132.167 216.667,136.833 216,141.5C 212.267,146.369 208.1,146.702 203.5,142.5C 201.62,119.786 189.286,107.62 166.5,106C 161.202,101.092 161.202,96.2584 166.5,91.5 Z"/></g>
<g><path style="opacity:1" fill="#f8b64c" d="M 411.5,91.5 C 415.846,91.3343 420.179,91.501 424.5,92C 429.821,96.3814 429.821,100.715 424.5,105C 403.832,106.34 392.332,117.173 390,137.5C 387.806,144.728 383.306,146.895 376.5,144C 375.874,143.25 375.374,142.416 375,141.5C 373.657,124.351 379.823,110.518 393.5,100C 399.198,96.3155 405.198,93.4822 411.5,91.5 Z"/></g>
<g><path style="opacity:1" fill="#ff7058" d="M 397.5,193.5 C 394.333,190.502 391,187.669 387.5,185C 372.494,181.366 359.161,184.533 347.5,194.5C 345.703,196.131 344.536,198.131 344,200.5C 341.722,214.879 347.556,224.046 361.5,228C 371.833,228.333 382.167,228.667 392.5,229C 395.29,231.21 396.123,234.044 395,237.5C 392.611,244.293 387.777,248.126 380.5,249C 377.442,249.458 374.442,249.124 371.5,248C 368.289,244.958 365.289,241.791 362.5,238.5C 357.963,240.121 353.629,242.121 349.5,244.5C 356.135,257.456 366.801,262.956 381.5,261C 384.999,260.697 388.332,259.864 391.5,258.5C 373.202,293.633 346.869,321.133 312.5,341C 274.846,363.247 234.18,373.247 190.5,371C 164.524,368.928 142.691,358.428 125,339.5C 120.461,333.756 116.961,327.422 114.5,320.5C 118.025,323.431 122.025,325.598 126.5,327C 140.94,329.959 153.44,326.459 164,316.5C 166.977,311.887 168.81,306.887 169.5,301.5C 170.468,299.393 170.802,297.059 170.5,294.5C 169.167,294.5 167.833,294.5 166.5,294.5C 163.833,294.5 161.167,294.5 158.5,294.5C 157.081,293.549 155.415,293.216 153.5,293.5C 153.5,295.5 153.5,297.5 153.5,299.5C 153.789,302.649 153.289,305.649 152,308.5C 137.734,318.3 127.068,315.3 120,299.5C 117.043,291.754 116.043,283.754 117,275.5C 121.638,263.057 130.138,259.557 142.5,265C 144.452,267.074 146.285,269.241 148,271.5C 152.759,269.205 157.592,267.038 162.5,265C 151.365,249.601 137.032,245.768 119.5,253.5C 133.142,225.107 152.808,201.607 178.5,183C 220.426,152.137 267.426,137.803 319.5,140C 345.908,141.789 368.074,152.289 386,171.5C 391.149,178.13 394.982,185.464 397.5,193.5 Z"/></g>
<g><path style="opacity:1" fill="#f8b64c" d="M 113.5,140.5 C 117.846,140.334 122.179,140.501 126.5,141C 131.436,144.958 131.769,149.291 127.5,154C 105.138,155.362 92.9714,167.195 91,189.5C 86.7,195.664 82.0333,195.997 77,190.5C 76.1485,172.701 82.9819,158.534 97.5,148C 102.603,144.809 107.936,142.309 113.5,140.5 Z"/></g>
<g><path style="opacity:1" fill="#fffcfb" d="M 397.5,193.5 C 398.363,195.421 399.029,197.421 399.5,199.5C 394.922,200.102 390.422,201.102 386,202.5C 383.216,200.893 380.716,198.726 378.5,196C 372.405,194.734 366.738,195.734 361.5,199C 356.167,203 356.167,207 361.5,211C 370.167,211.333 378.833,211.667 387.5,212C 392.054,212.464 396.387,213.631 400.5,215.5C 409.481,222.269 412.648,231.269 410,242.5C 405.833,250.168 399.667,255.502 391.5,258.5C 388.332,259.864 384.999,260.697 381.5,261C 366.801,262.956 356.135,257.456 349.5,244.5C 353.629,242.121 357.963,240.121 362.5,238.5C 365.289,241.791 368.289,244.958 371.5,248C 374.442,249.124 377.442,249.458 380.5,249C 387.777,248.126 392.611,244.293 395,237.5C 396.123,234.044 395.29,231.21 392.5,229C 382.167,228.667 371.833,228.333 361.5,228C 347.556,224.046 341.722,214.879 344,200.5C 344.536,198.131 345.703,196.131 347.5,194.5C 359.161,184.533 372.494,181.366 387.5,185C 391,187.669 394.333,190.502 397.5,193.5 Z"/></g>
<g><path style="opacity:1" fill="#ff725a" d="M 399.5,199.5 C 400.4,204.772 400.733,210.105 400.5,215.5C 396.387,213.631 392.054,212.464 387.5,212C 378.833,211.667 370.167,211.333 361.5,211C 356.167,207 356.167,203 361.5,199C 366.738,195.734 372.405,194.734 378.5,196C 380.716,198.726 383.216,200.893 386,202.5C 390.422,201.102 394.922,200.102 399.5,199.5 Z"/></g>
<g><path style="opacity:1" fill="#fffcfb" d="M 304.5,202.5 C 326.051,200.885 336.218,210.885 335,232.5C 333.324,237.178 330.491,241.011 326.5,244C 318.773,247.464 310.773,250.131 302.5,252C 301.572,252.388 300.905,253.055 300.5,254C 303.55,262.649 305.884,271.483 307.5,280.5C 302.314,281.562 297.314,283.229 292.5,285.5C 285.354,261.257 278.354,236.924 271.5,212.5C 282.43,208.688 293.43,205.355 304.5,202.5 Z"/></g>
<g><path style="opacity:1" fill="#fffbfa" d="M 253.5,215.5 C 255.144,215.286 256.644,215.62 258,216.5C 264.798,239.731 271.298,263.064 277.5,286.5C 277.182,287.647 276.516,288.481 275.5,289C 271.191,290.327 266.858,291.494 262.5,292.5C 255.96,267.803 249.294,243.137 242.5,218.5C 246.427,218.074 250.093,217.074 253.5,215.5 Z"/></g>
<g><path style="opacity:1" fill="#ff7159" d="M 302.5,215.5 C 315.684,214.846 320.517,220.846 317,233.5C 310.008,237.443 302.508,240.11 294.5,241.5C 293.568,234.934 292.234,228.434 290.5,222C 290.833,221.167 291.167,220.333 291.5,219.5C 295.035,217.434 298.702,216.1 302.5,215.5 Z"/></g>
<g><path style="opacity:1" fill="#fffbfb" d="M 225.5,223.5 C 226.5,223.5 227.5,223.5 228.5,223.5C 235.144,248.074 241.477,272.741 247.5,297.5C 242.376,298.431 237.376,299.765 232.5,301.5C 230.541,290.831 227.874,280.331 224.5,270C 215.917,271.933 207.251,273.933 198.5,276C 197.484,276.519 196.818,277.353 196.5,278.5C 199.327,288.81 201.994,299.143 204.5,309.5C 199.111,310.353 193.778,311.186 188.5,312C 182.169,288.345 175.836,264.679 169.5,241C 169.645,240.228 169.978,239.561 170.5,239C 175.184,237.765 179.851,236.598 184.5,235.5C 186.67,244.512 189.003,253.512 191.5,262.5C 192,262.833 192.5,263.167 193,263.5C 202.375,261.395 211.542,258.729 220.5,255.5C 217.243,246.374 215.076,237.041 214,227.5C 217.952,226.239 221.786,224.906 225.5,223.5 Z"/></g>
<g><path style="opacity:1" fill="#fffcfb" d="M 153.5,299.5 C 154.451,298.081 154.784,296.415 154.5,294.5C 155.833,294.5 157.167,294.5 158.5,294.5C 161.167,294.5 163.833,294.5 166.5,294.5C 167.209,295.404 168.209,295.737 169.5,295.5C 169.5,297.5 169.5,299.5 169.5,301.5C 168.81,306.887 166.977,311.887 164,316.5C 153.44,326.459 140.94,329.959 126.5,327C 122.025,325.598 118.025,323.431 114.5,320.5C 110.424,316.91 107.257,312.577 105,307.5C 102.336,300.338 100.503,293.005 99.5,285.5C 100.097,270.959 106.764,260.293 119.5,253.5C 137.032,245.768 151.365,249.601 162.5,265C 157.592,267.038 152.759,269.205 148,271.5C 146.285,269.241 144.452,267.074 142.5,265C 130.138,259.557 121.638,263.057 117,275.5C 116.043,283.754 117.043,291.754 120,299.5C 127.068,315.3 137.734,318.3 152,308.5C 153.289,305.649 153.789,302.649 153.5,299.5 Z"/></g>
<g><path style="opacity:1" fill="#ffb8ad" d="M 166.5,294.5 C 167.833,294.5 169.167,294.5 170.5,294.5C 170.802,297.059 170.468,299.393 169.5,301.5C 169.5,299.5 169.5,297.5 169.5,295.5C 168.209,295.737 167.209,295.404 166.5,294.5 Z"/></g>
<g><path style="opacity:1" fill="#ffbeb3" d="M 158.5,294.5 C 157.167,294.5 155.833,294.5 154.5,294.5C 154.784,296.415 154.451,298.081 153.5,299.5C 153.5,297.5 153.5,295.5 153.5,293.5C 155.415,293.216 157.081,293.549 158.5,294.5 Z"/></g>
<g><path style="opacity:1" fill="#f8b64c" d="M 421.5,317.5 C 426.109,316.974 430.443,317.641 434.5,319.5C 437.407,323.642 437.074,327.476 433.5,331C 419.083,331.782 408.25,338.282 401,350.5C 399.425,356.541 397.758,362.541 396,368.5C 389.505,373.454 385.005,372.12 382.5,364.5C 382.987,348.357 389.653,335.524 402.5,326C 408.453,322.081 414.786,319.248 421.5,317.5 Z"/></g>
<g><path style="opacity:1" fill="#f8b64c" d="M 282.5,382.5 C 314.266,384.099 330.766,400.766 332,432.5C 328.432,436.938 324.265,437.605 319.5,434.5C 318.612,422.349 313.612,412.183 304.5,404C 297.983,400.362 290.983,398.362 283.5,398C 278.931,395.459 277.431,391.625 279,386.5C 279.69,384.65 280.856,383.316 282.5,382.5 Z"/></g>
<g><path style="opacity:0.982" fill="#f7b64b" d="M 61.5,445.5 C 190.833,445.5 320.167,445.5 449.5,445.5C 453.083,462.002 456.75,478.502 460.5,495C 460.333,495.833 460.167,496.667 460,497.5C 455.297,502.035 450.797,506.702 446.5,511.5C 445.5,511.5 444.5,511.5 443.5,511.5C 439.203,506.702 434.703,502.035 430,497.5C 425.997,502.335 421.83,507.002 417.5,511.5C 416.833,511.5 416.167,511.5 415.5,511.5C 411.203,506.702 406.703,502.035 402,497.5C 397.297,502.035 392.797,506.702 388.5,511.5C 387.5,511.5 386.5,511.5 385.5,511.5C 381.17,507.002 377.003,502.335 373,497.5C 368.297,502.035 363.797,506.702 359.5,511.5C 358.5,511.5 357.5,511.5 356.5,511.5C 352.203,506.702 347.703,502.035 343,497.5C 338.297,502.035 333.797,506.702 329.5,511.5C 328.5,511.5 327.5,511.5 326.5,511.5C 322.912,506.407 318.745,501.74 314,497.5C 309.297,502.035 304.797,506.702 300.5,511.5C 299.5,511.5 298.5,511.5 297.5,511.5C 293.203,506.702 288.703,502.035 284,497.5C 279.997,502.335 275.83,507.002 271.5,511.5C 270.833,511.5 270.167,511.5 269.5,511.5C 265.188,506.521 260.521,501.854 255.5,497.5C 250.479,501.854 245.812,506.521 241.5,511.5C 240.833,511.5 240.167,511.5 239.5,511.5C 235.17,507.002 231.003,502.335 227,497.5C 222.297,502.035 217.797,506.702 213.5,511.5C 212.5,511.5 211.5,511.5 210.5,511.5C 206.203,506.702 201.703,502.035 197,497.5C 192.255,501.74 188.088,506.407 184.5,511.5C 183.5,511.5 182.5,511.5 181.5,511.5C 177.203,506.702 172.703,502.035 168,497.5C 163.297,502.035 158.797,506.702 154.5,511.5C 153.5,511.5 152.5,511.5 151.5,511.5C 147.203,506.702 142.703,502.035 138,497.5C 133.997,502.335 129.83,507.002 125.5,511.5C 124.5,511.5 123.5,511.5 122.5,511.5C 118.203,506.702 113.703,502.035 109,497.5C 104.297,502.035 99.7967,506.702 95.5,511.5C 94.8333,511.5 94.1667,511.5 93.5,511.5C 89.1702,507.002 85.0035,502.335 81,497.5C 76.2967,502.035 71.7967,506.702 67.5,511.5C 66.5,511.5 65.5,511.5 64.5,511.5C 60.2033,506.702 55.7033,502.035 51,497.5C 50.8333,496.667 50.6667,495.833 50.5,495C 54.2499,478.502 57.9166,462.002 61.5,445.5 Z"/></g>
</svg>
