<?xml version="1.0" encoding="UTF-8"?>
<!DOCTYPE svg PUBLIC "-//W3C//DTD SVG 1.1//EN" "http://www.w3.org/Graphics/SVG/1.1/DTD/svg11.dtd">
<svg xmlns="http://www.w3.org/2000/svg" version="1.1" width="512px" height="512px" style="shape-rendering:geometricPrecision; text-rendering:geometricPrecision; image-rendering:optimizeQuality; fill-rule:evenodd; clip-rule:evenodd" xmlns:xlink="http://www.w3.org/1999/xlink">
<g><path style="opacity:0.986" fill="#000000" d="M 511.5,171.5 C 511.5,173.5 511.5,175.5 511.5,177.5C 509.204,181.869 507.371,186.536 506,191.5C 504.833,192.667 503.667,193.833 502.5,195C 488.52,196.831 474.52,198.497 460.5,200C 444.261,206.786 428.261,214.119 412.5,222C 399.294,246.913 385.961,271.746 372.5,296.5C 363.191,303.308 354.024,310.308 345,317.5C 342.652,333.794 340.486,350.128 338.5,366.5C 346.649,382.797 354.815,399.13 363,415.5C 365.833,418.333 368.667,421.167 371.5,424C 370.692,426.088 369.692,428.088 368.5,430C 359.5,430.667 350.5,430.667 341.5,430C 339.759,428.38 337.925,426.88 336,425.5C 328.333,401.5 320.667,377.5 313,353.5C 310.165,352.084 307.498,350.417 305,348.5C 304.548,364.22 305.215,379.887 307,395.5C 313.201,403.403 319.035,411.569 324.5,420C 323.257,421.154 322.257,422.488 321.5,424C 310.923,424.819 300.423,424.652 290,423.5C 287.966,419.48 285.966,415.48 284,411.5C 279.907,383.18 275.907,354.846 272,326.5C 267.5,320.667 263,314.833 258.5,309C 229.061,310.477 199.727,313.144 170.5,317C 163.271,323.196 155.771,329.029 148,334.5C 145.057,340.724 141.89,346.724 138.5,352.5C 135.333,347.5 132.167,342.5 129,337.5C 125.915,342.672 122.581,347.672 119,352.5C 116.243,347.318 113.743,341.985 111.5,336.5C 107.833,335.167 104.167,335.167 100.5,336.5C 99.2939,339.079 97.9606,341.579 96.5,344C 102.658,362.473 108.824,380.973 115,399.5C 115.465,400.931 116.299,402.097 117.5,403C 126.167,408.333 134.833,413.667 143.5,419C 142.547,420.955 141.213,422.622 139.5,424C 128.167,424.667 116.833,424.667 105.5,424C 102.898,423.117 100.731,421.617 99,419.5C 95.3333,413.833 91.6667,408.167 88,402.5C 80.1319,379.229 72.4652,355.896 65,332.5C 63.2458,330.75 61.0792,330.083 58.5,330.5C 54.4816,348.429 50.1482,366.263 45.5,384C 54.3651,398.035 63.0317,412.201 71.5,426.5C 68.7204,428.117 65.7204,429.284 62.5,430C 52.5,430.667 42.5,430.667 32.5,430C 30.04,428.542 27.8734,426.709 26,424.5C 23.2869,390.683 20.7869,356.85 18.5,323C 20.289,306.265 22.6223,289.598 25.5,273C 22.3333,257.167 19.1667,241.333 16,225.5C 16.2631,234.686 17.0964,243.853 18.5,253C 16.9242,262.212 15.0909,271.379 13,280.5C 10.3167,283.016 7.81675,285.683 5.5,288.5C 3.92908,287.691 2.26241,287.357 0.5,287.5C 0.784479,285.585 0.451145,283.919 -0.5,282.5C -0.5,272.5 -0.5,262.5 -0.5,252.5C 0.977579,246.363 2.14425,240.029 3,233.5C 3.27795,208.832 6.27795,184.499 12,160.5C 16.048,156.12 19.7147,151.454 23,146.5C 25.4075,144.044 28.2409,142.211 31.5,141C 36.7581,138.358 42.2581,136.525 48,135.5C 106.483,137.787 164.983,139.287 223.5,140C 277.494,134.585 331.327,128.418 385,121.5C 385.422,119.645 385.922,117.811 386.5,116C 382.594,110.384 378.094,105.218 373,100.5C 372.501,96.8484 372.335,93.1817 372.5,89.5C 375.817,88.7791 379.151,88.6124 382.5,89C 389.002,92.75 395.335,96.75 401.5,101C 414.167,101.667 426.833,101.667 439.5,101C 449.028,93.9723 458.695,87.139 468.5,80.5C 472.094,81.4259 475.76,81.7592 479.5,81.5C 479.078,85.8786 478.411,90.212 477.5,94.5C 469.833,99.6667 462.167,104.833 454.5,110C 472.667,128.833 490.833,147.667 509,166.5C 509.757,168.315 510.59,169.981 511.5,171.5 Z"/></g>
</svg>
