<?xml version="1.0" encoding="UTF-8"?>
<!DOCTYPE svg PUBLIC "-//W3C//DTD SVG 1.1//EN" "http://www.w3.org/Graphics/SVG/1.1/DTD/svg11.dtd">
<svg xmlns="http://www.w3.org/2000/svg" version="1.1" width="512px" height="512px" style="shape-rendering:geometricPrecision; text-rendering:geometricPrecision; image-rendering:optimizeQuality; fill-rule:evenodd; clip-rule:evenodd" xmlns:xlink="http://www.w3.org/1999/xlink">
<g><path style="opacity:0.983" fill="#090808" d="M 511.5,367.5 C 511.5,378.167 511.5,388.833 511.5,399.5C 509.979,406.896 507.812,414.23 505,421.5C 502.435,423.179 499.602,423.846 496.5,423.5C 495.685,422.163 494.518,421.163 493,420.5C 492.077,418.966 491.577,417.299 491.5,415.5C 502.325,376.752 495.158,341.752 470,310.5C 465.786,306.618 461.286,303.118 456.5,300C 451.166,297.792 445.666,296.292 440,295.5C 435.478,295.507 431.311,296.507 427.5,298.5C 415.34,304.156 405.84,312.822 399,324.5C 389.748,339.921 384.748,356.588 384,374.5C 406.014,392.179 415.347,415.179 412,443.5C 417.9,447.522 424.4,449.855 431.5,450.5C 436.416,451.611 441.416,451.778 446.5,451C 453.416,449.396 460.249,447.563 467,445.5C 468.167,445.667 469.333,445.833 470.5,446C 471.705,447.376 473.038,448.542 474.5,449.5C 474.893,452.93 474.227,456.096 472.5,459C 450.545,469.141 428.712,468.974 407,458.5C 394.892,482.578 375.392,496.745 348.5,501C 314.866,505.507 283.866,498.507 255.5,480C 240.932,470.018 231.432,456.518 227,439.5C 224.834,426.162 227.334,413.829 234.5,402.5C 157.502,401.667 80.5022,401.167 3.5,401C 1.64977,400.31 0.316435,399.144 -0.5,397.5C -0.5,394.833 -0.5,392.167 -0.5,389.5C 0.316435,387.856 1.64977,386.69 3.5,386C 19.1667,385.667 34.8333,385.333 50.5,385C 36.7613,374.369 27.928,360.536 24,343.5C 22.7134,312.868 22.0467,282.201 22,251.5C 6.0542,247.296 -0.61247,236.963 2,220.5C 7.49437,205.328 18.3277,199.328 34.5,202.5C 32.339,169.16 41.1723,139.16 61,112.5C 69.9399,101.618 81.1065,94.1184 94.5,90C 96.4727,89.5045 98.4727,89.3379 100.5,89.5C 102.082,80.2525 104.582,71.2525 108,62.5C 110.68,59.4384 113.847,58.7718 117.5,60.5C 119.564,62.5616 121.231,64.895 122.5,67.5C 120.905,74.6169 118.905,81.6169 116.5,88.5C 136.386,96.204 151.552,109.537 162,128.5C 165.007,134.868 168.007,141.201 171,147.5C 176.549,132.723 184.382,119.39 194.5,107.5C 203.251,98.9577 213.584,93.291 225.5,90.5C 221.678,69.6891 212.678,51.5224 198.5,36C 188.293,26.4866 176.293,22.8199 162.5,25C 160.277,25.5662 158.277,26.3995 156.5,27.5C 151.473,29.6834 146.807,32.5168 142.5,36C 139.225,36.9818 136.559,36.1485 134.5,33.5C 132.05,30.3996 131.883,27.0663 134,23.5C 162.36,1.93781 189.026,3.93781 214,29.5C 223.305,40.435 230.305,52.7684 235,66.5C 241.419,48.1382 251.919,32.6382 266.5,20C 287.618,5.05825 308.951,4.72492 330.5,19C 352.188,37.5303 365.188,61.0303 369.5,89.5C 379.928,90.6975 389.262,94.5308 397.5,101C 419.183,121.868 431.683,147.368 435,177.5C 435.5,185.827 435.666,194.16 435.5,202.5C 455.33,199.196 466.33,207.363 468.5,227C 468.176,240.655 461.342,248.821 448,251.5C 447.333,261.167 447.333,270.833 448,280.5C 465.877,285.04 479.877,295.04 490,310.5C 501.237,328.054 508.404,347.054 511.5,367.5 Z"/></g>
<g><path style="opacity:1" fill="#f9d39d" d="M 194.5,107.5 C 193.689,76.3909 182.356,49.8909 160.5,28C 159.207,27.51 157.873,27.3433 156.5,27.5C 158.277,26.3995 160.277,25.5662 162.5,25C 176.293,22.8199 188.293,26.4866 198.5,36C 212.678,51.5224 221.678,69.6891 225.5,90.5C 213.584,93.291 203.251,98.9577 194.5,107.5 Z"/></g>
<g><path style="opacity:1" fill="#f7dec1" d="M 323.5,107.5 C 323.196,98.3201 321.863,89.3201 319.5,80.5C 323.85,86.6639 328.683,86.9972 334,81.5C 332.084,68.1695 326.251,56.6695 316.5,47C 312.687,44.9735 309.02,45.1402 305.5,47.5C 300.219,39.8859 294.219,32.8859 287.5,26.5C 294.939,22.7016 302.605,22.5349 310.5,26C 323.889,32.0562 334.056,41.5562 341,54.5C 347.666,65.6661 351.833,77.6661 353.5,90.5C 341.703,93.0634 331.703,98.7301 323.5,107.5 Z"/></g>
<g><path style="opacity:0.998" fill="#fdddaf" d="M 156.5,27.5 C 157.873,27.3433 159.207,27.51 160.5,28C 182.356,49.8909 193.689,76.3909 194.5,107.5C 184.382,119.39 176.549,132.723 171,147.5C 168.007,141.201 165.007,134.868 162,128.5C 151.552,109.537 136.386,96.204 116.5,88.5C 118.905,81.6169 120.905,74.6169 122.5,67.5C 121.231,64.895 119.564,62.5616 117.5,60.5C 121.406,50.3475 127.072,41.3475 134.5,33.5C 136.559,36.1485 139.225,36.9818 142.5,36C 146.807,32.5168 151.473,29.6834 156.5,27.5 Z"/></g>
<g><path style="opacity:1" fill="#fdefea" d="M 287.5,26.5 C 294.219,32.8859 300.219,39.8859 305.5,47.5C 304.532,50.4453 304.366,53.4453 305,56.5C 311.633,63.4368 316.467,71.4368 319.5,80.5C 321.863,89.3201 323.196,98.3201 323.5,107.5C 313.06,119.368 304.894,132.701 299,147.5C 291.921,127.478 280.088,110.978 263.5,98C 257.583,94.3722 251.25,91.8722 244.5,90.5C 248.519,67.2893 259.186,47.7893 276.5,32C 279.91,29.6284 283.577,27.7951 287.5,26.5 Z"/></g>
<g><path style="opacity:1" fill="#0c0b0b" d="M 319.5,80.5 C 316.467,71.4368 311.633,63.4368 305,56.5C 304.366,53.4453 304.532,50.4453 305.5,47.5C 309.02,45.1402 312.687,44.9735 316.5,47C 326.251,56.6695 332.084,68.1695 334,81.5C 328.683,86.9972 323.85,86.6639 319.5,80.5 Z"/></g>
<g><path style="opacity:1" fill="#fae0c3" d="M 130.5,202.5 C 132.96,168.046 122.96,137.88 100.5,112C 98.5448,111.047 96.8782,109.713 95.5,108C 94.552,107.517 93.552,107.351 92.5,107.5C 106.694,101.875 119.694,104.042 131.5,114C 155.239,138.714 165.573,168.214 162.5,202.5C 151.833,202.5 141.167,202.5 130.5,202.5 Z"/></g>
<g><path style="opacity:1" fill="#f9d39d" d="M 387.5,202.5 C 389.779,167.594 379.446,137.094 356.5,111C 354.473,109.121 352.14,107.954 349.5,107.5C 363.095,102.149 375.761,103.982 387.5,113C 411.978,137.672 422.978,167.505 420.5,202.5C 409.5,202.5 398.5,202.5 387.5,202.5 Z"/></g>
<g><path style="opacity:1" fill="#f4c481" d="M 259.5,202.5 C 259.923,189.379 258.923,176.379 256.5,163.5C 265.442,168.036 269.942,165.369 270,155.5C 265.746,145.263 259.912,136.096 252.5,128C 248.647,125.866 244.98,126.033 241.5,128.5C 236.969,120.297 230.969,113.297 223.5,107.5C 236.54,103.25 248.54,105.416 259.5,114C 283.708,138.447 294.375,167.947 291.5,202.5C 280.833,202.5 270.167,202.5 259.5,202.5 Z"/></g>
<g><path style="opacity:1" fill="#fdefea" d="M 92.5,107.5 C 93.552,107.351 94.552,107.517 95.5,108C 96.8782,109.713 98.5448,111.047 100.5,112C 122.96,137.88 132.96,168.046 130.5,202.5C 103.5,202.5 76.5,202.5 49.5,202.5C 47.0195,167.523 58.0195,137.689 82.5,113C 85.7271,110.888 89.0604,109.055 92.5,107.5 Z"/></g>
<g><path style="opacity:1" fill="#fbd49e" d="M 223.5,107.5 C 230.969,113.297 236.969,120.297 241.5,128.5C 239.667,130.496 239.167,132.829 240,135.5C 247.301,143.768 252.801,153.102 256.5,163.5C 258.923,176.379 259.923,189.379 259.5,202.5C 232.5,202.5 205.5,202.5 178.5,202.5C 175.625,167.947 186.292,138.447 210.5,114C 214.309,110.762 218.642,108.596 223.5,107.5 Z"/></g>
<g><path style="opacity:1" fill="#feddaf" d="M 349.5,107.5 C 352.14,107.954 354.473,109.121 356.5,111C 379.446,137.094 389.779,167.594 387.5,202.5C 360.833,202.5 334.167,202.5 307.5,202.5C 304.427,168.214 314.761,138.714 338.5,114C 341.892,111.306 345.559,109.14 349.5,107.5 Z"/></g>
<g><path style="opacity:1" fill="#0c0a09" d="M 256.5,163.5 C 252.801,153.102 247.301,143.768 240,135.5C 239.167,132.829 239.667,130.496 241.5,128.5C 244.98,126.033 248.647,125.866 252.5,128C 259.912,136.096 265.746,145.263 270,155.5C 269.942,165.369 265.442,168.036 256.5,163.5 Z"/></g>
<g><path style="opacity:1" fill="#8b5844" d="M 22.5,217.5 C 164.167,217.333 305.834,217.5 447.5,218C 453.612,221.293 455.112,226.127 452,232.5C 451.097,233.701 449.931,234.535 448.5,235C 306.167,235.667 163.833,235.667 21.5,235C 16.8451,232.103 15.3451,227.937 17,222.5C 18.7297,220.598 20.563,218.931 22.5,217.5 Z"/></g>
<g><path style="opacity:1" fill="#b58a50" d="M 431.5,281.5 C 431.5,271.5 431.5,261.5 431.5,251.5C 420.833,251.5 410.167,251.5 399.5,251.5C 279.167,251.5 158.833,251.5 38.5,251.5C 38.5,278.833 38.5,306.167 38.5,333.5C 37.5021,306.005 37.1687,278.338 37.5,250.5C 169.167,250.5 300.833,250.5 432.5,250.5C 432.828,261.014 432.494,271.347 431.5,281.5 Z"/></g>
<g><path style="opacity:1" fill="#e7b165" d="M 399.5,251.5 C 399.5,267.5 399.5,283.5 399.5,299.5C 383.045,318.42 373.045,340.42 369.5,365.5C 326.736,351.822 287.403,358.322 251.5,385C 196.5,385.667 141.5,385.667 86.5,385C 58.8754,378.546 42.8754,361.379 38.5,333.5C 38.5,306.167 38.5,278.833 38.5,251.5C 158.833,251.5 279.167,251.5 399.5,251.5 Z"/></g>
<g><path style="opacity:1" fill="#d8a258" d="M 399.5,251.5 C 410.167,251.5 420.833,251.5 431.5,251.5C 431.5,261.5 431.5,271.5 431.5,281.5C 419.068,284.382 408.401,290.382 399.5,299.5C 399.5,283.5 399.5,267.5 399.5,251.5 Z"/></g>
<g><path style="opacity:1" fill="#fae0c3" d="M 496.5,423.5 C 490.955,433.709 483.622,442.375 474.5,449.5C 473.038,448.542 471.705,447.376 470.5,446C 469.333,445.833 468.167,445.667 467,445.5C 460.249,447.563 453.416,449.396 446.5,451C 441.416,451.778 436.416,451.611 431.5,450.5C 453.989,434.134 464.655,411.801 463.5,383.5C 463.879,357.807 456.712,334.474 442,313.5C 437.636,307.97 432.802,302.97 427.5,298.5C 431.311,296.507 435.478,295.507 440,295.5C 445.666,296.292 451.166,297.792 456.5,300C 461.286,303.118 465.786,306.618 470,310.5C 495.158,341.752 502.325,376.752 491.5,415.5C 491.577,417.299 492.077,418.966 493,420.5C 494.518,421.163 495.685,422.163 496.5,423.5 Z"/></g>
<g><path style="opacity:1" fill="#fef0eb" d="M 427.5,298.5 C 432.802,302.97 437.636,307.97 442,313.5C 456.712,334.474 463.879,357.807 463.5,383.5C 464.655,411.801 453.989,434.134 431.5,450.5C 424.4,449.855 417.9,447.522 412,443.5C 415.347,415.179 406.014,392.179 384,374.5C 384.748,356.588 389.748,339.921 399,324.5C 405.84,312.822 415.34,304.156 427.5,298.5 Z"/></g>
<g><path style="opacity:1" fill="#feddaf" d="M 316.5,374.5 C 321.959,374.103 327.292,374.603 332.5,376C 340.638,380.64 347.305,386.807 352.5,394.5C 347.193,398.875 347.193,403.375 352.5,408C 357.067,410.26 360.733,413.426 363.5,417.5C 367.851,448.463 356.518,471.463 329.5,486.5C 298.003,487.158 271.503,476.158 250,453.5C 236.715,433.246 239.215,415.079 257.5,399C 274.61,384.781 294.277,376.615 316.5,374.5 Z"/></g>
<g><path style="opacity:1" fill="#f8d29c" d="M 316.5,374.5 C 339.087,370.879 359.754,375.712 378.5,389C 397.37,407.402 401.87,428.902 392,453.5C 382.046,472.099 366.546,482.932 345.5,486C 340.177,486.499 334.844,486.666 329.5,486.5C 356.518,471.463 367.851,448.463 363.5,417.5C 364.793,418.842 365.626,420.509 366,422.5C 365.765,427.466 366.932,431.966 369.5,436C 373.714,438.269 377.547,437.769 381,434.5C 383.005,415.675 375.505,402.175 358.5,394C 356.402,393.322 354.402,393.489 352.5,394.5C 347.305,386.807 340.638,380.64 332.5,376C 327.292,374.603 321.959,374.103 316.5,374.5 Z"/></g>
<g><path style="opacity:1" fill="#0e0c0b" d="M 363.5,417.5 C 360.733,413.426 357.067,410.26 352.5,408C 347.193,403.375 347.193,398.875 352.5,394.5C 354.402,393.489 356.402,393.322 358.5,394C 375.505,402.175 383.005,415.675 381,434.5C 377.547,437.769 373.714,438.269 369.5,436C 366.932,431.966 365.765,427.466 366,422.5C 365.626,420.509 364.793,418.842 363.5,417.5 Z"/></g>
</svg>
