<?xml version="1.0" encoding="UTF-8"?>
<!DOCTYPE svg PUBLIC "-//W3C//DTD SVG 1.1//EN" "http://www.w3.org/Graphics/SVG/1.1/DTD/svg11.dtd">
<svg xmlns="http://www.w3.org/2000/svg" version="1.1" width="512px" height="512px" style="shape-rendering:geometricPrecision; text-rendering:geometricPrecision; image-rendering:optimizeQuality; fill-rule:evenodd; clip-rule:evenodd" xmlns:xlink="http://www.w3.org/1999/xlink">
<g><path style="opacity:0.998" fill="#231f20" d="M 387.5,15.5 C 401.598,15.0351 415.598,15.5351 429.5,17C 430.126,17.7504 430.626,18.5838 431,19.5C 431.5,28.8274 431.666,38.1607 431.5,47.5C 434.961,47.1459 437.461,48.4792 439,51.5C 439.5,76.8311 439.667,102.164 439.5,127.5C 446.175,127.334 452.842,127.5 459.5,128C 460.416,128.374 461.25,128.874 462,129.5C 463.449,139.395 463.949,149.395 463.5,159.5C 478.752,156.705 489.252,162.372 495,176.5C 495.667,277.167 495.667,377.833 495,478.5C 492.167,486.667 486.667,492.167 478.5,495C 431.167,495.667 383.833,495.667 336.5,495C 328.333,492.167 322.833,486.667 320,478.5C 319.333,377.833 319.333,277.167 320,176.5C 325.748,162.372 336.248,156.705 351.5,159.5C 351.051,149.395 351.551,139.395 353,129.5C 353.75,128.874 354.584,128.374 355.5,128C 362.158,127.5 368.825,127.334 375.5,127.5C 375.5,116.833 375.5,106.167 375.5,95.5C 355.164,95.3334 334.831,95.5 314.5,96C 306.833,101 299.167,106 291.5,111C 287.756,111.929 284.256,111.429 281,109.5C 275.667,101.5 270.333,93.5 265,85.5C 262.891,81.2191 263.058,77.0524 265.5,73C 276.833,64.6667 288.167,56.3333 299.5,48C 327.498,47.5 355.498,47.3334 383.5,47.5C 383.334,38.1607 383.5,28.8274 384,19.5C 384.69,17.6498 385.856,16.3164 387.5,15.5 Z"/></g>
<g><path style="opacity:1" fill="#004eac" d="M 399.5,31.5 C 404.833,31.5 410.167,31.5 415.5,31.5C 415.5,36.8333 415.5,42.1667 415.5,47.5C 410.167,47.5 404.833,47.5 399.5,47.5C 399.5,42.1667 399.5,36.8333 399.5,31.5 Z"/></g>
<g><path style="opacity:0.985" fill="#231f20" d="M 155.5,47.5 C 159.257,47.0708 162.757,47.7375 166,49.5C 167.379,54.036 167.879,58.7027 167.5,63.5C 171.514,63.3345 175.514,63.5012 179.5,64C 182.516,65.5286 183.849,68.0286 183.5,71.5C 183.596,73.9259 182.93,76.0926 181.5,78C 176.964,79.3789 172.297,79.8789 167.5,79.5C 167.666,83.5138 167.499,87.5138 167,91.5C 165.471,94.516 162.971,95.8494 159.5,95.5C 157.074,95.5965 154.907,94.9298 153,93.5C 151.621,88.964 151.121,84.2973 151.5,79.5C 147.486,79.6655 143.486,79.4988 139.5,79C 136.484,77.4714 135.151,74.9714 135.5,71.5C 135.404,69.0741 136.07,66.9074 137.5,65C 142.036,63.6211 146.703,63.1211 151.5,63.5C 151.334,59.4862 151.501,55.4862 152,51.5C 152.69,49.6498 153.856,48.3164 155.5,47.5 Z"/></g>
<g><path style="opacity:1" fill="#006cee" d="M 305.5,63.5 C 328.833,63.5 352.167,63.5 375.5,63.5C 375.5,68.8333 375.5,74.1667 375.5,79.5C 353.164,79.3334 330.831,79.5 308.5,80C 302.247,84.0429 296.08,88.2095 290,92.5C 287.5,88.8333 285,85.1667 282.5,81.5C 290.21,75.4455 297.876,69.4455 305.5,63.5 Z"/></g>
<g><path style="opacity:1" fill="#57a4ff" d="M 415.5,63.5 C 415.5,84.8333 415.5,106.167 415.5,127.5C 407.5,127.5 399.5,127.5 391.5,127.5C 391.5,106.167 391.5,84.8333 391.5,63.5C 399.5,63.5 407.5,63.5 415.5,63.5 Z"/></g>
<g><path style="opacity:1" fill="#2487ff" d="M 415.5,63.5 C 418.167,63.5 420.833,63.5 423.5,63.5C 423.5,84.8333 423.5,106.167 423.5,127.5C 420.833,127.5 418.167,127.5 415.5,127.5C 415.5,106.167 415.5,84.8333 415.5,63.5 Z"/></g>
<g><path style="opacity:0.985" fill="#231f20" d="M 88.5,87.5 C 103.367,85.0115 113.534,90.6782 119,104.5C 121.982,119.376 116.482,129.543 102.5,135C 87.6239,137.982 77.4572,132.482 72,118.5C 69.1465,103.533 74.6465,93.1994 88.5,87.5 Z"/></g>
<g><path style="opacity:0.982" fill="#221f20" d="M 219.5,95.5 C 222.978,95.1842 226.312,95.6842 229.5,97C 237.303,103.796 243.136,111.963 247,121.5C 249.674,135.991 244.174,145.825 230.5,151C 215.624,153.982 205.457,148.482 200,134.5C 198.06,124.656 200.394,115.989 207,108.5C 210.697,103.638 214.864,99.3043 219.5,95.5 Z"/></g>
<g><path style="opacity:1" fill="#96c2f6" d="M 92.5,103.5 C 100.658,102.823 104.158,106.49 103,114.5C 100.774,118.861 97.2742,120.361 92.5,119C 88.1392,116.774 86.6392,113.274 88,108.5C 89.025,106.313 90.525,104.646 92.5,103.5 Z"/></g>
<g><path style="opacity:1" fill="#0269e7" d="M 222.5,115.5 C 227.191,118.513 230.191,122.847 231.5,128.5C 229.326,135.25 224.993,137.084 218.5,134C 215.191,130.923 214.691,127.423 217,123.5C 219.054,120.953 220.887,118.286 222.5,115.5 Z"/></g>
<g><path style="opacity:0.985" fill="#231f20" d="M 152.5,127.5 C 167.367,125.012 177.534,130.678 183,144.5C 185.982,159.376 180.482,169.543 166.5,175C 151.624,177.982 141.457,172.482 136,158.5C 133.146,143.533 138.646,133.199 152.5,127.5 Z"/></g>
<g><path style="opacity:0.985" fill="#231f20" d="M 267.5,143.5 C 271.839,142.846 275.673,143.846 279,146.5C 289.012,157.849 297.012,170.516 303,184.5C 304.675,212.491 291.509,225.324 263.5,223C 244.87,216.926 237.036,204.093 240,184.5C 246.651,169.039 255.818,155.372 267.5,143.5 Z"/></g>
<g><path style="opacity:1" fill="#a5a7aa" d="M 367.5,143.5 C 394.167,143.5 420.833,143.5 447.5,143.5C 447.5,148.833 447.5,154.167 447.5,159.5C 420.833,159.5 394.167,159.5 367.5,159.5C 367.5,154.167 367.5,148.833 367.5,143.5 Z"/></g>
<g><path style="opacity:1" fill="#549ef5" d="M 156.5,143.5 C 164.658,142.823 168.158,146.49 167,154.5C 164.774,158.861 161.274,160.361 156.5,159C 152.139,156.774 150.639,153.274 152,148.5C 153.025,146.313 154.525,144.646 156.5,143.5 Z"/></g>
<g><path style="opacity:1" fill="#016bec" d="M 270.5,164.5 C 271.496,164.414 272.329,164.748 273,165.5C 277.727,171.897 282.06,178.564 286,185.5C 289.307,198.705 284.14,206.038 270.5,207.5C 256.065,203.624 252.231,194.957 259,181.5C 262.663,175.679 266.497,170.012 270.5,164.5 Z"/></g>
<g><path style="opacity:0.995" fill="#231f20" d="M 75.5,166.5 C 78.1873,166.336 80.854,166.503 83.5,167C 97.8783,175.523 112.545,183.523 127.5,191C 130.833,191.667 134.167,191.667 137.5,191C 148.423,186.949 159.423,186.616 170.5,190C 196.09,203.933 221.423,218.266 246.5,233C 251.426,235.353 253.26,239.186 252,244.5C 248.616,252.445 243.449,258.945 236.5,264C 254.002,274.586 271.669,284.919 289.5,295C 302.033,307.563 302.7,320.729 291.5,334.5C 300.393,347.512 299.226,359.512 288,370.5C 287.774,374.887 287.274,379.221 286.5,383.5C 303.391,391.67 307.891,404.337 300,421.5C 296.48,426.191 291.98,429.525 286.5,431.5C 290.224,445.173 285.891,455.34 273.5,462C 267.247,463.204 260.914,463.871 254.5,464C 258.164,479.007 252.83,489.34 238.5,495C 194.833,495.667 151.167,495.667 107.5,495C 96.3221,491.506 86.9887,485.173 79.5,476C 77.2827,474.725 74.9494,473.725 72.5,473C 54.8714,471.752 37.2048,471.086 19.5,471C 18.5838,470.626 17.7504,470.126 17,469.5C 15.3452,428.917 15.0118,388.251 16,347.5C 16.5,345.667 17.6667,344.5 19.5,344C 35.1667,343.667 50.8333,343.333 66.5,343C 70.9315,342.856 74.9315,341.523 78.5,339C 75.6267,335.423 73.1267,331.589 71,327.5C 69.2618,320.618 66.9285,313.952 64,307.5C 61.8333,305.333 59.6667,303.167 57.5,301C 44.1667,293.333 30.8333,285.667 17.5,278C 15.5715,274.744 15.0715,271.244 16,267.5C 34.9349,233.121 54.7682,199.454 75.5,166.5 Z"/></g>
<g><path style="opacity:1" fill="#9ac8fe" d="M 469.5,175.5 C 469.987,176.473 470.487,177.473 471,178.5C 471.5,198.831 471.667,219.164 471.5,239.5C 426.167,239.5 380.833,239.5 335.5,239.5C 335.333,219.831 335.5,200.164 336,180.5C 336.833,178.333 338.333,176.833 340.5,176C 383.499,175.5 426.499,175.333 469.5,175.5 Z"/></g>
<g><path style="opacity:1" fill="#56a3fd" d="M 469.5,175.5 C 473.888,174.943 477.055,176.61 479,180.5C 479.5,200.164 479.667,219.831 479.5,239.5C 476.833,239.5 474.167,239.5 471.5,239.5C 471.667,219.164 471.5,198.831 471,178.5C 470.487,177.473 469.987,176.473 469.5,175.5 Z"/></g>
<g><path style="opacity:1" fill="#fd9c82" d="M 282.5,317.5 C 279.689,317.174 277.022,316.341 274.5,315C 253.833,303 233.167,291 212.5,279C 208.157,277.757 204.823,278.924 202.5,282.5C 195.51,279.563 191.177,281.73 189.5,289C 189.703,291.406 190.703,293.406 192.5,295C 220.67,311.586 249.003,327.919 277.5,344C 279.93,346.305 280.93,349.138 280.5,352.5C 275.808,352.159 271.474,350.659 267.5,348C 244.167,334.333 220.833,320.667 197.5,307C 187.055,305.024 183.388,309.191 186.5,319.5C 160.831,319.333 135.165,319.5 109.5,320C 102.926,321.371 97.0928,324.204 92,328.5C 89.9565,326.792 88.2899,324.792 87,322.5C 84.8913,312.835 81.2246,303.835 76,295.5C 73.1312,292.296 69.9646,289.463 66.5,287C 55.5723,281.065 44.9056,274.732 34.5,268C 50.2885,240.253 66.4551,212.753 83,185.5C 92.9159,191.207 102.749,197.041 112.5,203C 124.179,209.456 136.179,210.122 148.5,205C 153.5,204.333 158.5,204.333 163.5,205C 186.742,217.535 209.575,230.702 232,244.5C 231.394,247.46 229.561,249.627 226.5,251C 222.259,252.457 217.926,252.791 213.5,252C 204.637,246.486 195.47,241.653 186,237.5C 181.485,238.512 178.318,241.178 176.5,245.5C 169.819,252.007 161.819,254.507 152.5,253C 147.608,251.106 142.941,248.772 138.5,246C 132.243,244.257 128.576,246.59 127.5,253C 127.795,255.923 129.129,258.257 131.5,260C 151.037,273.508 169.704,272.508 187.5,257C 188.5,256.333 189.5,256.333 190.5,257C 219.337,273.919 248.337,290.586 277.5,307C 281.938,309.497 283.605,312.997 282.5,317.5 Z"/></g>
<g><path style="opacity:1" fill="#006cef" d="M 471.5,255.5 C 471.5,314.167 471.5,372.833 471.5,431.5C 426.167,431.5 380.833,431.5 335.5,431.5C 335.5,372.833 335.5,314.167 335.5,255.5C 380.833,255.5 426.167,255.5 471.5,255.5 Z"/></g>
<g><path style="opacity:1" fill="#005dce" d="M 471.5,255.5 C 474.167,255.5 476.833,255.5 479.5,255.5C 479.5,314.167 479.5,372.833 479.5,431.5C 476.833,431.5 474.167,431.5 471.5,431.5C 471.5,372.833 471.5,314.167 471.5,255.5 Z"/></g>
<g><path style="opacity:1" fill="#fa9176" d="M 282.5,317.5 C 280.797,322.187 277.463,324.02 272.5,323C 249.02,309.672 225.687,296.172 202.5,282.5C 204.823,278.924 208.157,277.757 212.5,279C 233.167,291 253.833,303 274.5,315C 277.022,316.341 279.689,317.174 282.5,317.5 Z"/></g>
<g><path style="opacity:1" fill="#231f20" d="M 388.5,287.5 C 401.907,287.056 415.24,287.556 428.5,289C 429.701,289.903 430.535,291.069 431,292.5C 431.5,301.494 431.666,310.494 431.5,319.5C 441.247,319.08 450.914,319.58 460.5,321C 461.701,321.903 462.535,323.069 463,324.5C 463.667,336.833 463.667,349.167 463,361.5C 462.727,363.329 461.893,364.829 460.5,366C 450.914,367.42 441.247,367.92 431.5,367.5C 431.92,377.247 431.42,386.914 430,396.5C 428.829,397.893 427.329,398.727 425.5,399C 413.167,399.667 400.833,399.667 388.5,399C 387.069,398.535 385.903,397.701 385,396.5C 383.58,386.914 383.08,377.247 383.5,367.5C 373.727,367.948 364.061,367.448 354.5,366C 353.107,364.829 352.273,363.329 352,361.5C 351.333,349.167 351.333,336.833 352,324.5C 352.465,323.069 353.299,321.903 354.5,321C 364.061,319.552 373.727,319.052 383.5,319.5C 383.334,310.494 383.5,301.494 384,292.5C 385.025,290.313 386.525,288.646 388.5,287.5 Z"/></g>
<g><path style="opacity:1" fill="#ec1c24" d="M 399.5,303.5 C 404.833,303.5 410.167,303.5 415.5,303.5C 415.08,313.247 415.58,322.914 417,332.5C 417.903,333.701 419.069,334.535 420.5,335C 429.494,335.5 438.494,335.666 447.5,335.5C 447.5,340.833 447.5,346.167 447.5,351.5C 437.727,351.052 428.061,351.552 418.5,353C 417.299,353.903 416.465,355.069 416,356.5C 415.5,365.494 415.334,374.494 415.5,383.5C 410.167,383.5 404.833,383.5 399.5,383.5C 399.948,373.727 399.448,364.061 398,354.5C 396.829,353.107 395.329,352.273 393.5,352C 384.84,351.5 376.173,351.334 367.5,351.5C 367.5,346.167 367.5,340.833 367.5,335.5C 377.247,335.92 386.914,335.42 396.5,334C 397.893,332.829 398.727,331.329 399,329.5C 399.5,320.84 399.666,312.173 399.5,303.5 Z"/></g>
<g><path style="opacity:1" fill="#fb9277" d="M 280.5,352.5 C 280.853,354.635 280.02,355.968 278,356.5C 271.45,352.431 264.283,350.597 256.5,351C 239.665,340.748 222.665,330.748 205.5,321C 199.258,319.63 192.925,319.13 186.5,319.5C 183.388,309.191 187.055,305.024 197.5,307C 220.833,320.667 244.167,334.333 267.5,348C 271.474,350.659 275.808,352.159 280.5,352.5 Z"/></g>
<g><path style="opacity:1" fill="#fea690" d="M 188.5,344.5 C 178.008,343.341 167.341,343.175 156.5,344C 153.211,345.41 151.544,347.91 151.5,351.5C 144.056,353.054 141.889,357.388 145,364.5C 145.903,365.701 147.069,366.535 148.5,367C 187.5,367.333 226.5,367.667 265.5,368C 268.749,369.08 270.749,371.247 271.5,374.5C 243.856,375.299 216.19,375.799 188.5,376C 185.211,377.41 183.544,379.91 183.5,383.5C 176.056,385.054 173.889,389.388 177,396.5C 177.903,397.701 179.069,398.535 180.5,399C 214.167,399.333 247.833,399.667 281.5,400C 284.409,401.406 286.409,403.572 287.5,406.5C 254.523,407.305 221.523,407.805 188.5,408C 185.211,409.41 183.544,411.91 183.5,415.5C 176.056,417.054 173.889,421.388 177,428.5C 177.903,429.701 179.069,430.535 180.5,431C 208.833,431.333 237.167,431.667 265.5,432C 268.309,432.312 269.976,433.812 270.5,436.5C 270.119,437.931 269.119,438.764 267.5,439C 241.167,439.333 214.833,439.667 188.5,440C 185.211,441.41 183.544,443.91 183.5,447.5C 176.056,449.054 173.889,453.388 177,460.5C 177.903,461.701 179.069,462.535 180.5,463C 198.167,463.333 215.833,463.667 233.5,464C 236.309,464.312 237.976,465.812 238.5,468.5C 238.119,469.931 237.119,470.764 235.5,471C 193.833,471.667 152.167,471.667 110.5,471C 106.281,469.891 102.281,468.225 98.5,466C 92.0831,458.627 84.4165,452.96 75.5,449C 60.892,447.568 46.2253,447.068 31.5,447.5C 31.5,418.167 31.5,388.833 31.5,359.5C 46.8727,359.879 62.2061,359.379 77.5,358C 87.3874,354.217 95.7208,348.217 102.5,340C 104.956,338.289 107.623,336.956 110.5,336C 137.498,335.5 164.498,335.333 191.5,335.5C 191.472,338.916 190.472,341.916 188.5,344.5 Z"/></g>
<g><path style="opacity:1" fill="#f5987f" d="M 206.5,340.5 C 212.779,343.976 219.112,347.476 225.5,351C 218.144,351.831 210.811,351.665 203.5,350.5C 205.312,347.397 206.312,344.064 206.5,340.5 Z"/></g>
<g><path style="opacity:1" fill="#fc9277" d="M 188.5,344.5 C 186.5,347.994 183.5,350.16 179.5,351C 170.173,351.5 160.839,351.666 151.5,351.5C 151.544,347.91 153.211,345.41 156.5,344C 167.341,343.175 178.008,343.341 188.5,344.5 Z"/></g>
<g><path style="opacity:1" fill="#fe9377" d="M 271.5,374.5 C 271.755,378.493 270.089,381.326 266.5,383C 238.835,383.5 211.169,383.667 183.5,383.5C 183.544,379.91 185.211,377.41 188.5,376C 216.19,375.799 243.856,375.299 271.5,374.5 Z"/></g>
<g><path style="opacity:1" fill="#fe9377" d="M 287.5,406.5 C 287.755,410.493 286.089,413.326 282.5,415C 249.502,415.5 216.502,415.667 183.5,415.5C 183.544,411.91 185.211,409.41 188.5,408C 221.523,407.805 254.523,407.305 287.5,406.5 Z"/></g>
<g><path style="opacity:1" fill="#fd9377" d="M 270.5,436.5 C 272.461,441.101 271.128,444.601 266.5,447C 238.835,447.5 211.169,447.667 183.5,447.5C 183.544,443.91 185.211,441.41 188.5,440C 214.833,439.667 241.167,439.333 267.5,439C 269.119,438.764 270.119,437.931 270.5,436.5 Z"/></g>
<g><path style="opacity:1" fill="#fd9377" d="M 31.5,447.5 C 46.2253,447.068 60.892,447.568 75.5,449C 84.4165,452.96 92.0831,458.627 98.5,466C 102.281,468.225 106.281,469.891 110.5,471C 152.167,471.667 193.833,471.667 235.5,471C 237.119,470.764 238.119,469.931 238.5,468.5C 240.461,473.101 239.128,476.601 234.5,479C 193.167,479.667 151.833,479.667 110.5,479C 107.833,477.667 105.167,476.333 102.5,475C 95.7208,466.783 87.3874,460.783 77.5,457C 62.2104,455.601 46.877,455.101 31.5,455.5C 31.5,452.833 31.5,450.167 31.5,447.5 Z"/></g>
<g><path style="opacity:1" fill="#9ac8fe" d="M 471.5,447.5 C 471.666,456.506 471.5,465.506 471,474.5C 470.648,476.247 470.148,477.914 469.5,479.5C 426.499,479.667 383.499,479.5 340.5,479C 338.333,478.167 336.833,476.667 336,474.5C 335.5,465.506 335.334,456.506 335.5,447.5C 380.833,447.5 426.167,447.5 471.5,447.5 Z"/></g>
<g><path style="opacity:1" fill="#56a3fd" d="M 471.5,447.5 C 474.167,447.5 476.833,447.5 479.5,447.5C 479.666,456.173 479.5,464.84 479,473.5C 477.529,477.958 474.362,479.958 469.5,479.5C 470.148,477.914 470.648,476.247 471,474.5C 471.5,465.506 471.666,456.506 471.5,447.5 Z"/></g>
</svg>
