<?xml version="1.0" encoding="UTF-8"?>
<!DOCTYPE svg PUBLIC "-//W3C//DTD SVG 1.1//EN" "http://www.w3.org/Graphics/SVG/1.1/DTD/svg11.dtd">
<svg xmlns="http://www.w3.org/2000/svg" version="1.1" width="512px" height="512px" style="shape-rendering:geometricPrecision; text-rendering:geometricPrecision; image-rendering:optimizeQuality; fill-rule:evenodd; clip-rule:evenodd" xmlns:xlink="http://www.w3.org/1999/xlink">
<g><path style="opacity:0.971" fill="#020202" d="M 336.5,-0.5 C 348.167,-0.5 359.833,-0.5 371.5,-0.5C 436.32,9.47754 480.487,45.1442 504,106.5C 507.326,117.457 509.826,128.457 511.5,139.5C 511.5,151.167 511.5,162.833 511.5,174.5C 503.076,231.42 473.41,273.253 422.5,300C 433.213,318.728 430.88,335.728 415.5,351C 400.633,361.39 385.3,362.057 369.5,353C 363.684,348.018 358.017,342.851 352.5,337.5C 244.407,395.543 136.407,453.543 28.5,511.5C 24.1667,511.5 19.8333,511.5 15.5,511.5C 8.25068,508.585 2.91735,503.585 -0.5,496.5C -0.5,491.833 -0.5,487.167 -0.5,482.5C 24.1233,436.593 48.79,390.593 73.5,344.5C 76.266,341.857 79.5994,340.857 83.5,341.5C 108.705,366.112 138.705,382.446 173.5,390.5C 185.44,394.266 197.774,396.099 210.5,396C 254.326,372.588 297.993,348.921 341.5,325C 335.965,319.297 330.298,313.797 324.5,308.5C 314.035,297.535 303.369,286.702 292.5,276C 282.662,270.774 273.329,271.441 264.5,278C 252.833,289.667 241.167,301.333 229.5,313C 212.822,321.245 200.989,316.745 194,299.5C 192.842,292.967 194.176,286.967 198,281.5C 209.667,269.833 221.333,258.167 233,246.5C 239.48,237.588 240.147,228.255 235,218.5C 218.667,202.167 202.333,185.833 186,169.5C 157.412,221.674 129.079,274.007 101,326.5C 97.9211,329.485 94.4211,330.152 90.5,328.5C 86.3755,325.664 85.5421,321.998 88,317.5C 116.5,264.5 145,211.5 173.5,158.5C 168.149,152.983 162.982,147.316 158,141.5C 147.56,122.379 150.06,105.212 165.5,90C 180.413,79.5295 195.579,79.0295 211,88.5C 237.747,37.5904 279.58,7.92375 336.5,-0.5 Z"/></g>
<g><path style="opacity:1" fill="#6de1f5" d="M 488.5,110.5 C 491.925,157.392 478.092,198.392 447,233.5C 430.275,252.568 410.442,267.401 387.5,278C 386.207,278.49 384.873,278.657 383.5,278.5C 375.18,275.012 369.347,269.012 366,260.5C 361.083,232.584 344.583,216.417 316.5,212C 307.519,207.686 301.352,200.853 298,191.5C 295.569,173.406 286.403,159.906 270.5,151C 262.776,148.819 255.109,146.486 247.5,144C 241.333,140.5 236.5,135.667 233,129.5C 230.627,119.713 227.46,110.213 223.5,101C 246.03,51.5011 284.364,22.8344 338.5,15C 407.165,11.7282 456.332,40.8949 486,102.5C 487.136,105.096 487.969,107.763 488.5,110.5 Z"/></g>
<g><path style="opacity:1" fill="#b5eff9" d="M 399.5,299.5 C 398.349,318.318 388.349,328.652 369.5,330.5C 347.006,308.173 324.34,286.007 301.5,264C 285.672,254.782 270.338,255.449 255.5,266C 243.833,277.667 232.167,289.333 220.5,301C 214.093,303.796 210.093,301.796 208.5,295C 208.625,293.373 209.125,291.873 210,290.5C 223.73,277.439 236.73,263.772 249,249.5C 256.83,232.573 254.497,217.239 242,203.5C 218.333,179.833 194.667,156.167 171,132.5C 163.503,116.651 167.67,105.151 183.5,98C 195.581,95.791 204.748,99.9577 211,110.5C 213.948,117.622 216.281,124.955 218,132.5C 222.339,142.506 229.172,150.339 238.5,156C 248.5,159.667 258.5,163.333 268.5,167C 274.203,171.365 278.37,176.865 281,183.5C 285.584,211.084 301.751,226.917 329.5,231C 338.058,235.224 344.224,241.724 348,250.5C 350.722,271.13 361.555,285.63 380.5,294C 387.079,295.139 393.412,296.972 399.5,299.5 Z"/></g>
<g><path style="opacity:1" fill="#25d1ef" d="M 488.5,110.5 C 503.946,159.241 496.446,204.241 466,245.5C 450.742,264.12 432.076,278.12 410,287.5C 401.218,284.009 392.385,281.009 383.5,278.5C 384.873,278.657 386.207,278.49 387.5,278C 410.442,267.401 430.275,252.568 447,233.5C 478.092,198.392 491.925,157.392 488.5,110.5 Z"/></g>
<g><path style="opacity:1" fill="#feb947" d="M 324.5,308.5 C 274.361,336.072 224.028,363.405 173.5,390.5C 138.705,382.446 108.705,366.112 83.5,341.5C 86.0877,337.326 88.421,332.993 90.5,328.5C 94.4211,330.152 97.9211,329.485 101,326.5C 129.079,274.007 157.412,221.674 186,169.5C 202.333,185.833 218.667,202.167 235,218.5C 240.147,228.255 239.48,237.588 233,246.5C 221.333,258.167 209.667,269.833 198,281.5C 194.176,286.967 192.842,292.967 194,299.5C 200.989,316.745 212.822,321.245 229.5,313C 241.167,301.333 252.833,289.667 264.5,278C 273.329,271.441 282.662,270.774 292.5,276C 303.369,286.702 314.035,297.535 324.5,308.5 Z"/></g>
<g><path style="opacity:1" fill="#6ddff3" d="M 399.5,299.5 C 414.403,308.391 417.57,320.391 409,335.5C 399.945,344.215 389.778,345.715 378.5,340C 375.296,336.964 372.296,333.797 369.5,330.5C 388.349,328.652 398.349,318.318 399.5,299.5 Z"/></g>
<g><path style="opacity:1" fill="#fc9841" d="M 324.5,308.5 C 330.298,313.797 335.965,319.297 341.5,325C 297.993,348.921 254.326,372.588 210.5,396C 197.774,396.099 185.44,394.266 173.5,390.5C 224.028,363.405 274.361,336.072 324.5,308.5 Z"/></g>
<g><path style="opacity:1" fill="#fd9841" d="M 153.5,401.5 C 110.15,424.529 66.8164,447.529 23.5,470.5C 42.9,434.034 62.5667,397.701 82.5,361.5C 103.959,378.73 127.626,392.064 153.5,401.5 Z"/></g>
<g><path style="opacity:1" fill="#fc793b" d="M 153.5,401.5 C 164.404,404.476 175.404,406.976 186.5,409C 132.5,438 78.5,467 24.5,496C 16.8914,496.72 13.7247,493.22 15,485.5C 17.8453,480.473 20.6786,475.473 23.5,470.5C 66.8164,447.529 110.15,424.529 153.5,401.5 Z"/></g>
</svg>
