<?xml version="1.0" encoding="UTF-8"?>
<!DOCTYPE svg PUBLIC "-//W3C//DTD SVG 1.1//EN" "http://www.w3.org/Graphics/SVG/1.1/DTD/svg11.dtd">
<svg xmlns="http://www.w3.org/2000/svg" version="1.1" width="512px" height="512px" style="shape-rendering:geometricPrecision; text-rendering:geometricPrecision; image-rendering:optimizeQuality; fill-rule:evenodd; clip-rule:evenodd" xmlns:xlink="http://www.w3.org/1999/xlink">
<g><path style="opacity:0.979" fill="#010000" d="M 36.5,-0.5 C 90.1667,-0.5 143.833,-0.5 197.5,-0.5C 218.818,5.31865 232.318,18.9853 238,40.5C 238.5,60.8306 238.667,81.1639 238.5,101.5C 311.834,101.333 385.167,101.5 458.5,102C 473.436,105.936 482.602,115.436 486,130.5C 486.667,247.833 486.667,365.167 486,482.5C 483.283,497.376 474.783,507.043 460.5,511.5C 346.833,511.5 233.167,511.5 119.5,511.5C 104.444,506.603 95.6108,496.269 93,480.5C 92.3333,364.833 92.3333,249.167 93,133.5C 94.4634,118.399 102.297,108.232 116.5,103C 139.781,101.541 163.114,101.041 186.5,101.5C 186.5,84.8333 186.5,68.1667 186.5,51.5C 136.12,51.9817 85.7869,51.4817 35.5,50C 31,48.1667 27.8333,45 26,40.5C 24,30.1667 24,19.8333 26,9.5C 28.1059,4.55732 31.6059,1.22399 36.5,-0.5 Z"/></g>
<g><path style="opacity:1" fill="#fde939" d="M 187.5,16.5 C 195.305,22.754 200.638,30.754 203.5,40.5C 203.043,41.2975 202.376,41.6309 201.5,41.5C 199.131,37.8051 195.797,35.3051 191.5,34C 141.834,33.5 92.1678,33.3333 42.5,33.5C 42.5,27.8333 42.5,22.1667 42.5,16.5C 90.8333,16.5 139.167,16.5 187.5,16.5 Z"/></g>
<g><path style="opacity:1" fill="#f9d533" d="M 187.5,16.5 C 204.724,17.8827 215.891,26.8827 221,43.5C 221.5,62.8305 221.667,82.1638 221.5,101.5C 215.833,101.5 210.167,101.5 204.5,101.5C 204.667,83.1636 204.5,64.8303 204,46.5C 203.153,44.8068 202.32,43.1401 201.5,41.5C 202.376,41.6309 203.043,41.2975 203.5,40.5C 200.638,30.754 195.305,22.754 187.5,16.5 Z"/></g>
<g><path style="opacity:1" fill="#f24234" d="M 124.5,119.5 C 199.5,119.5 274.5,119.5 349.5,119.5C 349.829,134.343 349.496,149.01 348.5,163.5C 345.105,153.273 338.105,147.106 327.5,145C 267.5,144.333 207.5,144.333 147.5,145C 138.822,147.678 132.655,153.178 129,161.5C 127.88,169.594 127.38,177.76 127.5,186C 127.667,193.167 127.833,200.333 128,207.5C 129.398,218.235 135.231,225.402 145.5,229C 206.833,229.667 268.167,229.667 329.5,229C 339.625,226.709 345.958,220.542 348.5,210.5C 349.499,304.999 349.833,399.665 349.5,494.5C 273.833,494.667 198.166,494.5 122.5,494C 117,491.833 113.167,488 111,482.5C 110.333,365.167 110.333,247.833 111,130.5C 113.586,124.408 118.086,120.741 124.5,119.5 Z"/></g>
<g><path style="opacity:1" fill="#c41e1d" d="M 124.5,119.5 C 204.998,118.501 285.665,118.167 366.5,118.5C 366.5,243.833 366.5,369.167 366.5,494.5C 360.833,494.5 355.167,494.5 349.5,494.5C 349.833,399.665 349.499,304.999 348.5,210.5C 349.804,194.791 349.804,179.124 348.5,163.5C 349.496,149.01 349.829,134.343 349.5,119.5C 274.5,119.5 199.5,119.5 124.5,119.5 Z"/></g>
<g><path style="opacity:1" fill="#eb4033" d="M 395.5,119.5 C 405.161,118.834 414.994,118.5 425,118.5C 435.321,118.343 445.488,118.843 455.5,120C 445.667,129.833 435.833,139.667 426,149.5C 415.965,139.298 405.798,129.298 395.5,119.5 Z"/></g>
<g><path style="opacity:1" fill="#c71d1d" d="M 456.5,493.5 C 449.5,493.5 442.5,493.5 435.5,493.5C 435.83,473.326 435.497,453.326 434.5,433.5C 432.012,426.573 427.345,424.739 420.5,428C 419.789,429.255 418.956,430.421 418,431.5C 417.5,452.497 417.333,473.497 417.5,494.5C 406.167,494.5 394.833,494.5 383.5,494.5C 383.333,373.5 383.5,252.5 384,131.5C 395,142.5 406,153.5 417,164.5C 417.333,243.833 417.667,323.167 418,402.5C 419.123,406.819 421.956,408.819 426.5,408.5C 430.177,408.664 432.677,406.997 434,403.5C 434.333,323.833 434.667,244.167 435,164.5C 445.681,153.652 456.514,142.986 467.5,132.5C 468.667,249.165 468.833,365.832 468,482.5C 466.278,488.389 462.445,492.056 456.5,493.5 Z"/></g>
<g><path style="opacity:1" fill="#040100" d="M 348.5,163.5 C 349.804,179.124 349.804,194.791 348.5,210.5C 345.958,220.542 339.625,226.709 329.5,229C 268.167,229.667 206.833,229.667 145.5,229C 135.231,225.402 129.398,218.235 128,207.5C 127.833,200.333 127.667,193.167 127.5,186C 127.38,177.76 127.88,169.594 129,161.5C 132.655,153.178 138.822,147.678 147.5,145C 207.5,144.333 267.5,144.333 327.5,145C 338.105,147.106 345.105,153.273 348.5,163.5 Z"/></g>
<g><path style="opacity:1" fill="#fe9700" d="M 326.5,162.5 C 322.154,162.334 317.821,162.501 313.5,163C 314.126,163.75 314.626,164.584 315,165.5C 315.667,179.833 315.667,194.167 315,208.5C 314.209,209.745 313.709,211.078 313.5,212.5C 258.832,212.667 204.166,212.5 149.5,212C 147.333,211.167 145.833,209.667 145,207.5C 144.333,193.833 144.333,180.167 145,166.5C 146.543,164.622 148.376,163.122 150.5,162C 209.335,161.168 268.001,161.335 326.5,162.5 Z"/></g>
<g><path style="opacity:1" fill="#f17a00" d="M 326.5,162.5 C 329.091,163.254 330.924,164.921 332,167.5C 332.667,180.5 332.667,193.5 332,206.5C 331.315,209.057 329.815,210.891 327.5,212C 322.845,212.499 318.179,212.666 313.5,212.5C 313.709,211.078 314.209,209.745 315,208.5C 315.667,194.167 315.667,179.833 315,165.5C 314.626,164.584 314.126,163.75 313.5,163C 317.821,162.501 322.154,162.334 326.5,162.5 Z"/></g>
<g><path style="opacity:1" fill="#030100" d="M 209.5,247.5 C 214.126,246.7 217.96,248.034 221,251.5C 226.858,258.376 231.524,266.043 235,274.5C 240.899,266.463 248.733,261.296 258.5,259C 270.828,257.612 282.828,258.946 294.5,263C 297.181,265.194 298.681,268.027 299,271.5C 299.585,280.892 299.085,290.225 297.5,299.5C 315.558,302.713 327.725,313.046 334,330.5C 346.887,369.839 341.554,406.506 318,440.5C 297.047,468.24 270.38,475.574 238,462.5C 222.537,468.875 206.704,470.042 190.5,466C 167.33,453.856 151.497,435.356 143,410.5C 134.745,384.603 134.411,358.603 142,332.5C 152.977,304.759 173.144,293.926 202.5,300C 209.856,301.73 217.19,303.563 224.5,305.5C 225.167,305.167 225.833,304.833 226.5,304.5C 223.359,287.221 216.192,271.887 205,258.5C 203.776,253.626 205.276,249.959 209.5,247.5 Z"/></g>
<g><path style="opacity:1" fill="#a1c000" d="M 261.5,276.5 C 262.833,276.5 264.167,276.5 265.5,276.5C 266.603,288.322 264.27,299.322 258.5,309.5C 254.563,309.793 250.73,309.46 247,308.5C 246.333,302.5 246.333,296.5 247,290.5C 248.473,282.191 253.306,277.525 261.5,276.5 Z"/></g>
<g><path style="opacity:1" fill="#8ca700" d="M 261.5,276.5 C 268.039,275.269 274.705,275.436 281.5,277C 283.727,287.53 281.727,297.197 275.5,306C 270.269,309.101 264.602,310.267 258.5,309.5C 264.27,299.322 266.603,288.322 265.5,276.5C 264.167,276.5 262.833,276.5 261.5,276.5 Z"/></g>
<g><path style="opacity:1" fill="#5fa816" d="M 289.5,316.5 C 302.002,331.635 307.668,349.135 306.5,369C 306.749,402.322 294.415,429.822 269.5,451.5C 260.295,452.199 251.628,450.365 243.5,446C 239.833,445.333 236.167,445.333 232.5,446C 220.984,451.589 208.984,452.923 196.5,450C 180.496,441.662 168.996,429.162 162,412.5C 154.097,393.948 151.43,374.615 154,354.5C 155.528,341.554 160.695,330.387 169.5,321C 172.339,319.08 175.339,317.413 178.5,316C 186.87,315.316 195.203,315.649 203.5,317C 211.59,319.886 219.923,321.886 228.5,323C 229.451,326.057 229.784,329.223 229.5,332.5C 225.486,332.334 221.486,332.501 217.5,333C 213.723,335.955 212.557,339.788 214,344.5C 214.833,346.667 216.333,348.167 218.5,349C 231.5,349.667 244.5,349.667 257.5,349C 263.095,346.646 264.928,342.479 263,336.5C 262.167,335.667 261.333,334.833 260.5,334C 255.964,332.621 251.297,332.121 246.5,332.5C 246.5,330.5 246.5,328.5 246.5,326.5C 262.466,329.322 276.8,325.989 289.5,316.5 Z"/></g>
<g><path style="opacity:1" fill="#529213" d="M 269.5,451.5 C 294.415,429.822 306.749,402.322 306.5,369C 307.668,349.135 302.002,331.635 289.5,316.5C 300.006,315.167 308.173,319.167 314,328.5C 323.041,346.468 326.041,365.468 323,385.5C 319.798,403.23 312.798,419.23 302,433.5C 295.204,441.303 287.037,447.136 277.5,451C 274.854,451.497 272.187,451.664 269.5,451.5 Z"/></g>
<g><path style="opacity:1" fill="#a31818" d="M 434.5,433.5 C 435.497,453.326 435.83,473.326 435.5,493.5C 442.5,493.5 449.5,493.5 456.5,493.5C 449.352,494.492 442.019,494.825 434.5,494.5C 434.5,474.167 434.5,453.833 434.5,433.5 Z"/></g>
</svg>
