<?xml version="1.0" encoding="UTF-8"?>
<!DOCTYPE svg PUBLIC "-//W3C//DTD SVG 1.1//EN" "http://www.w3.org/Graphics/SVG/1.1/DTD/svg11.dtd">
<svg xmlns="http://www.w3.org/2000/svg" version="1.1" width="512px" height="512px" style="shape-rendering:geometricPrecision; text-rendering:geometricPrecision; image-rendering:optimizeQuality; fill-rule:evenodd; clip-rule:evenodd" xmlns:xlink="http://www.w3.org/1999/xlink">
<g><path style="opacity:0.979" fill="#010101" d="M 117.5,-0.5 C 209.5,-0.5 301.5,-0.5 393.5,-0.5C 397.761,2.34585 400.261,6.34585 401,11.5C 401.333,26.8333 401.667,42.1667 402,57.5C 416.539,81.9165 430.539,106.583 444,131.5C 444.667,222.167 444.667,312.833 444,403.5C 443.561,408.107 441.061,410.44 436.5,410.5C 432.91,410.456 430.41,408.789 429,405.5C 428.5,317.167 428.333,228.834 428.5,140.5C 405.006,139.502 381.339,139.169 357.5,139.5C 357.167,258.668 357.5,377.668 358.5,496.5C 381.169,496.667 403.836,496.5 426.5,496C 427,495.5 427.5,495 428,494.5C 428.333,474.5 428.667,454.5 429,434.5C 430.913,431.72 433.413,430.053 436.5,429.5C 440.888,430.388 443.388,433.054 444,437.5C 444.667,456.167 444.667,474.833 444,493.5C 443.149,501.844 438.982,507.844 431.5,511.5C 314.167,511.5 196.833,511.5 79.5,511.5C 72.018,507.844 67.8514,501.844 67,493.5C 66.3333,372.833 66.3333,252.167 67,131.5C 80.4613,106.583 94.4613,81.9165 109,57.5C 109.333,42.1667 109.667,26.8333 110,11.5C 110.739,6.34585 113.239,2.34585 117.5,-0.5 Z"/></g>
<g><path style="opacity:1" fill="#5adbfc" d="M 340.5,14.5 C 340.5,26.5 340.5,38.5 340.5,50.5C 268.833,50.5 197.167,50.5 125.5,50.5C 125.5,38.5 125.5,26.5 125.5,14.5C 197.167,14.5 268.833,14.5 340.5,14.5 Z"/></g>
<g><path style="opacity:1" fill="#48c7e5" d="M 340.5,14.5 C 355.5,14.5 370.5,14.5 385.5,14.5C 385.5,26.5 385.5,38.5 385.5,50.5C 370.5,50.5 355.5,50.5 340.5,50.5C 340.5,38.5 340.5,26.5 340.5,14.5 Z"/></g>
<g><path style="opacity:1" fill="#afeefd" d="M 335.5,65.5 C 324.247,85.0051 313.247,104.672 302.5,124.5C 253.832,124.333 205.166,124.5 156.5,125C 152.952,127.591 151.618,131.091 152.5,135.5C 151.596,134.791 151.263,133.791 151.5,132.5C 144.745,132.207 138.078,132.54 131.5,133.5C 132.051,128.882 130.051,126.049 125.5,125C 113.153,124.833 100.82,124.333 88.5,123.5C 99.7526,104.664 110.753,85.6636 121.5,66.5C 192.83,65.5 264.164,65.1667 335.5,65.5 Z"/></g>
<g><path style="opacity:1" fill="#5bdbfc" d="M 335.5,65.5 C 350.182,65.1674 364.848,65.5007 379.5,66.5C 368.247,85.3364 357.247,104.336 346.5,123.5C 331.848,124.499 317.182,124.833 302.5,124.5C 313.247,104.672 324.247,85.0051 335.5,65.5 Z"/></g>
<g><path style="opacity:1" fill="#f0e5d4" d="M 392.5,73.5 C 402.977,89.7717 412.977,106.438 422.5,123.5C 402.842,124.666 383.175,124.833 363.5,124C 373.052,107.058 382.719,90.2244 392.5,73.5 Z"/></g>
<g><path style="opacity:1" fill="#fef8ef" d="M 152.5,135.5 C 154.014,138.095 156.348,139.429 159.5,139.5C 205.33,140.499 251.33,140.832 297.5,140.5C 297.83,159.674 297.497,178.674 296.5,197.5C 294.399,195.891 292.065,195.391 289.5,196C 282.95,204.377 276.616,212.877 270.5,221.5C 269.833,213.833 269.167,206.167 268.5,198.5C 265.319,195.054 261.819,194.721 258,197.5C 257.333,217.833 257.333,238.167 258,258.5C 261.465,261.128 264.965,261.128 268.5,258.5C 269.296,251.883 269.796,245.217 270,238.5C 271.093,236.651 272.426,234.984 274,233.5C 279.695,242.913 285.862,251.913 292.5,260.5C 293.919,261.451 295.585,261.784 297.5,261.5C 297.5,272.5 297.5,283.5 297.5,294.5C 288.9,295.601 280.567,297.768 272.5,301C 258.5,308 244.5,315 230.5,322C 204.096,330.237 178.096,329.237 152.5,319C 141.061,312.562 129.395,306.562 117.5,301C 106.221,296.711 94.5544,294.544 82.5,294.5C 82.5,242.833 82.5,191.167 82.5,139.5C 97.5037,139.667 112.504,139.5 127.5,139C 129.819,137.853 131.152,136.019 131.5,133.5C 138.078,132.54 144.745,132.207 151.5,132.5C 151.263,133.791 151.596,134.791 152.5,135.5 Z"/></g>
<g><path style="opacity:1" fill="#f2e7d5" d="M 159.5,139.5 C 220.5,139.5 281.5,139.5 342.5,139.5C 342.5,191.5 342.5,243.5 342.5,295.5C 327.554,293.335 312.554,293.002 297.5,294.5C 297.5,283.5 297.5,272.5 297.5,261.5C 295.585,261.784 293.919,261.451 292.5,260.5C 298.337,261.482 301.17,259.149 301,253.5C 299.489,251.138 297.989,248.805 296.5,246.5C 297.833,232.833 297.833,219.167 296.5,205.5C 299.167,202.833 299.167,200.167 296.5,197.5C 297.497,178.674 297.83,159.674 297.5,140.5C 251.33,140.832 205.33,140.499 159.5,139.5 Z"/></g>
<g><path style="opacity:1" fill="#c7bcac" d="M 428.5,140.5 C 405.167,140.5 381.833,140.5 358.5,140.5C 358.5,259.167 358.5,377.833 358.5,496.5C 357.5,377.668 357.167,258.668 357.5,139.5C 381.339,139.169 405.006,139.502 428.5,140.5 Z"/></g>
<g><path style="opacity:1" fill="#e4d7c5" d="M 428.5,140.5 C 428.333,228.834 428.5,317.167 429,405.5C 430.41,408.789 432.91,410.456 436.5,410.5C 436.5,416.833 436.5,423.167 436.5,429.5C 433.413,430.053 430.913,431.72 429,434.5C 428.667,454.5 428.333,474.5 428,494.5C 427.5,495 427,495.5 426.5,496C 403.836,496.5 381.169,496.667 358.5,496.5C 358.5,377.833 358.5,259.167 358.5,140.5C 381.833,140.5 405.167,140.5 428.5,140.5 Z"/></g>
<g><path style="opacity:1" fill="#f9682e" d="M 142.5,220.5 C 142.217,219.711 141.717,219.044 141,218.5C 140.5,231.496 140.333,244.496 140.5,257.5C 139.575,259.884 137.742,260.884 135,260.5C 132.966,260.646 131.299,259.98 130,258.5C 129.333,238.5 129.333,218.5 130,198.5C 136.343,193.848 141.343,195.181 145,202.5C 148.078,208.991 151.412,215.325 155,221.5C 159.667,213.5 164.333,205.5 169,197.5C 173.264,194.655 177.264,194.988 181,198.5C 181.667,218.5 181.667,238.5 181,258.5C 177.264,261.089 173.598,261.089 170,258.5C 169.667,245.5 169.333,232.5 169,219.5C 165.667,225.5 162.333,231.5 159,237.5C 156.034,240.265 153.367,239.932 151,236.5C 148.339,231.024 145.506,225.691 142.5,220.5 Z"/></g>
<g><path style="opacity:1" fill="#f96b32" d="M 194.5,195.5 C 197.602,195.154 200.435,195.821 203,197.5C 203.667,217.833 203.667,238.167 203,258.5C 200.503,260.478 197.669,260.978 194.5,260C 193.333,259.5 192.5,258.667 192,257.5C 191.333,237.833 191.333,218.167 192,198.5C 192.698,197.309 193.531,196.309 194.5,195.5 Z"/></g>
<g><path style="opacity:1" fill="#f9662b" d="M 216.5,195.5 C 219.602,195.154 222.435,195.821 225,197.5C 225.5,215.164 225.667,232.83 225.5,250.5C 233.752,250.184 241.919,250.518 250,251.5C 250.777,254.429 250.61,257.263 249.5,260C 238.5,260.667 227.5,260.667 216.5,260C 216,259.5 215.5,259 215,258.5C 214.333,238.167 214.333,217.833 215,197.5C 215.717,196.956 216.217,196.289 216.5,195.5 Z"/></g>
<g><path style="opacity:1" fill="#f9682e" d="M 268.5,198.5 C 268.334,206.84 268.5,215.173 269,223.5C 269.717,222.956 270.217,222.289 270.5,221.5C 276.616,212.877 282.95,204.377 289.5,196C 292.065,195.391 294.399,195.891 296.5,197.5C 299.167,200.167 299.167,202.833 296.5,205.5C 291.553,211.456 286.553,217.456 281.5,223.5C 286.262,231.366 291.262,239.032 296.5,246.5C 297.989,248.805 299.489,251.138 301,253.5C 301.17,259.149 298.337,261.482 292.5,260.5C 285.862,251.913 279.695,242.913 274,233.5C 272.426,234.984 271.093,236.651 270,238.5C 269.796,245.217 269.296,251.883 268.5,258.5C 264.965,261.128 261.465,261.128 258,258.5C 257.333,238.167 257.333,217.833 258,197.5C 261.819,194.721 265.319,195.054 268.5,198.5 Z"/></g>
<g><path style="opacity:1" fill="#fca681" d="M 268.5,198.5 C 269.167,206.167 269.833,213.833 270.5,221.5C 270.217,222.289 269.717,222.956 269,223.5C 268.5,215.173 268.334,206.84 268.5,198.5 Z"/></g>
<g><path style="opacity:1" fill="#fff5eb" d="M 296.5,205.5 C 297.833,219.167 297.833,232.833 296.5,246.5C 291.262,239.032 286.262,231.366 281.5,223.5C 286.553,217.456 291.553,211.456 296.5,205.5 Z"/></g>
<g><path style="opacity:1" fill="#fba17c" d="M 142.5,220.5 C 141.833,232.833 141.167,245.167 140.5,257.5C 140.333,244.496 140.5,231.496 141,218.5C 141.717,219.044 142.217,219.711 142.5,220.5 Z"/></g>
<g><path style="opacity:1" fill="#5adbfc" d="M 295.5,310.5 C 297.496,372.158 298.163,434.158 297.5,496.5C 226.499,496.667 155.499,496.5 84.5,496C 84,495.5 83.5,495 83,494.5C 82.5,432.834 82.3333,371.168 82.5,309.5C 92.8306,309.466 102.831,311.299 112.5,315C 124.959,321.063 137.292,327.396 149.5,334C 181.746,345.801 213.746,345.134 245.5,332C 255.5,326.667 265.5,321.333 275.5,316C 281.873,313.042 288.539,311.208 295.5,310.5 Z"/></g>
<g><path style="opacity:1" fill="#47c6e4" d="M 297.5,496.5 C 298.163,434.158 297.496,372.158 295.5,310.5C 300.59,309.035 305.923,308.368 311.5,308.5C 321.912,308.84 332.245,309.84 342.5,311.5C 342.5,373.167 342.5,434.833 342.5,496.5C 327.5,496.5 312.5,496.5 297.5,496.5 Z"/></g>
</svg>
