<?xml version="1.0" encoding="UTF-8"?>
<!DOCTYPE svg PUBLIC "-//W3C//DTD SVG 1.1//EN" "http://www.w3.org/Graphics/SVG/1.1/DTD/svg11.dtd">
<svg xmlns="http://www.w3.org/2000/svg" version="1.1" width="512px" height="512px" style="shape-rendering:geometricPrecision; text-rendering:geometricPrecision; image-rendering:optimizeQuality; fill-rule:evenodd; clip-rule:evenodd" xmlns:xlink="http://www.w3.org/1999/xlink">
<g><path style="opacity:0.961" fill="#020100" d="M 283.5,-0.5 C 288.5,-0.5 293.5,-0.5 298.5,-0.5C 343.945,9.42329 389.611,18.9233 435.5,28C 452.818,34.6039 457.651,46.4373 450,63.5C 440.5,73 431,82.5 421.5,92C 418.408,92.7358 415.408,92.5691 412.5,91.5C 410.12,87.644 409.954,83.644 412,79.5C 421.031,70.8036 429.697,61.8036 438,52.5C 438.658,48.9748 437.491,46.1414 434.5,44C 392.553,35.176 350.553,26.676 308.5,18.5C 301.741,15.8938 294.741,14.7271 287.5,15C 283.633,18.6602 282.466,23.1602 284,28.5C 293.283,74.5817 302.95,120.582 313,166.5C 315.653,169.194 318.82,170.027 322.5,169C 327.037,164.631 331.37,160.131 335.5,155.5C 352.632,138.868 369.632,122.035 386.5,105C 390.573,103.066 394.573,103.233 398.5,105.5C 399.987,108.913 399.82,112.247 398,115.5C 376.167,137.333 354.333,159.167 332.5,181C 323.527,185.623 314.527,185.623 305.5,181C 301.542,177.579 298.708,173.412 297,168.5C 287.205,121.194 277.539,73.8608 268,26.5C 266.503,13.4757 271.67,4.47565 283.5,-0.5 Z"/></g>
<g><path style="opacity:1" fill="#f5c200" d="M 308.5,18.5 C 309.111,25.5557 310.111,32.5557 311.5,39.5C 305.913,40.5905 303.746,43.9239 305,49.5C 307.128,54.3618 310.628,55.6952 315.5,53.5C 316.546,62.2311 318.046,70.8977 320,79.5C 320.48,81.133 321.313,82.4664 322.5,83.5C 315.573,83.9992 313.073,87.6658 315,94.5C 317.769,98.2326 321.269,99.2326 325.5,97.5C 325.295,105.189 326.295,112.856 328.5,120.5C 328.942,121.739 329.609,122.739 330.5,123.5C 324.866,122.468 321.866,124.802 321.5,130.5C 322.276,136.237 325.609,138.57 331.5,137.5C 332.957,143.45 334.29,149.45 335.5,155.5C 331.37,160.131 327.037,164.631 322.5,169C 318.82,170.027 315.653,169.194 313,166.5C 302.95,120.582 293.283,74.5817 284,28.5C 282.466,23.1602 283.633,18.6602 287.5,15C 294.741,14.7271 301.741,15.8938 308.5,18.5 Z"/></g>
<g><path style="opacity:1" fill="#fbd201" d="M 308.5,18.5 C 350.553,26.676 392.553,35.176 434.5,44C 437.491,46.1414 438.658,48.9748 438,52.5C 429.697,61.8036 421.031,70.8036 412,79.5C 409.954,83.644 410.12,87.644 412.5,91.5C 407.5,95.8333 402.833,100.5 398.5,105.5C 394.573,103.233 390.573,103.066 386.5,105C 369.632,122.035 352.632,138.868 335.5,155.5C 334.29,149.45 332.957,143.45 331.5,137.5C 338.371,132.318 338.038,127.652 330.5,123.5C 329.609,122.739 328.942,121.739 328.5,120.5C 326.295,112.856 325.295,105.189 325.5,97.5C 329.068,93.6652 329.402,89.4985 326.5,85C 325.255,84.2086 323.922,83.7086 322.5,83.5C 321.313,82.4664 320.48,81.133 320,79.5C 318.046,70.8977 316.546,62.2311 315.5,53.5C 321.623,46.7983 320.29,42.1317 311.5,39.5C 310.111,32.5557 309.111,25.5557 308.5,18.5 Z"/></g>
<g><path style="opacity:1" fill="#0c0801" d="M 311.5,39.5 C 320.29,42.1317 321.623,46.7983 315.5,53.5C 310.628,55.6952 307.128,54.3618 305,49.5C 303.746,43.9239 305.913,40.5905 311.5,39.5 Z"/></g>
<g><path style="opacity:1" fill="#060400" d="M 341.5,50.5 C 348.669,49.5131 352.169,52.5131 352,59.5C 348.937,64.8694 344.771,65.8694 339.5,62.5C 336.435,57.8295 337.102,53.8295 341.5,50.5 Z"/></g>
<g><path style="opacity:1" fill="#060500" d="M 391.5,51.5 C 399.201,51.3622 402.367,55.0289 401,62.5C 396.537,67.7413 392.204,67.7413 388,62.5C 386.663,57.9159 387.829,54.2493 391.5,51.5 Z"/></g>
<g><path style="opacity:1" fill="#090600" d="M 322.5,83.5 C 323.922,83.7086 325.255,84.2086 326.5,85C 329.402,89.4985 329.068,93.6652 325.5,97.5C 321.269,99.2326 317.769,98.2326 315,94.5C 313.073,87.6658 315.573,83.9992 322.5,83.5 Z"/></g>
<g><path style="opacity:1" fill="#080600" d="M 367.5,85.5 C 375.201,85.3622 378.367,89.0289 377,96.5C 372.537,101.741 368.204,101.741 364,96.5C 362.663,91.8721 363.83,88.2054 367.5,85.5 Z"/></g>
<g><path style="opacity:0.952" fill="#010000" d="M 243.5,165.5 C 239.755,164.088 237.422,161.421 236.5,157.5C 239.395,144.192 242.228,130.859 245,117.5C 247.833,105.667 243.333,101.167 231.5,104C 195.086,111.316 158.752,118.816 122.5,126.5C 112.648,127.837 102.982,130.004 93.5,133C 91.066,136.716 90.8993,140.549 93,144.5C 130.167,181.667 167.333,218.833 204.5,256C 208.451,258.101 212.284,257.934 216,255.5C 218.279,247.94 220.112,240.273 221.5,232.5C 224.524,218.212 227.358,203.878 230,189.5C 232.498,186.361 235.665,184.694 239.5,184.5C 242.936,186.019 244.936,188.685 245.5,192.5C 240.86,215.2 236.026,237.867 231,260.5C 221.319,274.626 209.152,277.126 194.5,268C 156.667,230.167 118.833,192.333 81,154.5C 73.7304,144.183 73.7304,133.85 81,123.5C 83.9904,120.509 87.4904,118.343 91.5,117C 138.806,107.205 186.139,97.5388 233.5,88C 250.122,86.4572 259.455,93.9572 261.5,110.5C 258.784,126.915 255.617,143.249 252,159.5C 250.828,163.837 247.994,165.837 243.5,165.5 Z"/></g>
<g><path style="opacity:0.999" fill="#fb9701" d="M 243.5,165.5 C 241.916,171.752 240.583,178.086 239.5,184.5C 235.665,184.694 232.498,186.361 230,189.5C 227.358,203.878 224.524,218.212 221.5,232.5C 216.226,228.895 211.559,224.562 207.5,219.5C 210.327,212.799 208.327,208.465 201.5,206.5C 199.7,206.902 198.033,207.569 196.5,208.5C 189.446,201.442 182.112,194.775 174.5,188.5C 173.55,185.885 171.883,183.885 169.5,182.5C 159.167,171.5 148.5,160.833 137.5,150.5C 137.852,145.864 135.852,142.864 131.5,141.5C 124.148,139.133 121.148,134.133 122.5,126.5C 158.752,118.816 195.086,111.316 231.5,104C 243.333,101.167 247.833,105.667 245,117.5C 242.228,130.859 239.395,144.192 236.5,157.5C 237.422,161.421 239.755,164.088 243.5,165.5 Z"/></g>
<g><path style="opacity:1" fill="#0a0700" d="M 330.5,123.5 C 338.038,127.652 338.371,132.318 331.5,137.5C 325.609,138.57 322.276,136.237 321.5,130.5C 321.866,124.802 324.866,122.468 330.5,123.5 Z"/></g>
<g><path style="opacity:1" fill="#070300" d="M 210.5,124.5 C 218.885,123.716 222.051,127.383 220,135.5C 215.667,139.5 211.333,139.5 207,135.5C 205.663,130.872 206.83,127.205 210.5,124.5 Z"/></g>
<g><path style="opacity:1" fill="#f68501" d="M 122.5,126.5 C 121.148,134.133 124.148,139.133 131.5,141.5C 121.711,142.925 120.044,147.425 126.5,155C 131.609,156.609 135.275,155.109 137.5,150.5C 148.5,160.833 159.167,171.5 169.5,182.5C 160.904,183.27 158.404,187.603 162,195.5C 169.84,199.5 174.006,197.166 174.5,188.5C 182.112,194.775 189.446,201.442 196.5,208.5C 192.44,219.774 196.107,223.44 207.5,219.5C 211.559,224.562 216.226,228.895 221.5,232.5C 220.112,240.273 218.279,247.94 216,255.5C 212.284,257.934 208.451,258.101 204.5,256C 167.333,218.833 130.167,181.667 93,144.5C 90.8993,140.549 91.066,136.716 93.5,133C 102.982,130.004 112.648,127.837 122.5,126.5 Z"/></g>
<g><path style="opacity:1" fill="#0a0500" d="M 166.5,134.5 C 172.523,133.197 176.189,135.53 177.5,141.5C 175.172,148.726 170.672,150.393 164,146.5C 161.523,141.669 162.356,137.669 166.5,134.5 Z"/></g>
<g><path style="opacity:1" fill="#090400" d="M 131.5,141.5 C 135.852,142.864 137.852,145.864 137.5,150.5C 135.275,155.109 131.609,156.609 126.5,155C 120.044,147.425 121.711,142.925 131.5,141.5 Z"/></g>
<g><path style="opacity:1" fill="#0e0700" d="M 199.5,157.5 C 209.832,157.675 212.499,162.175 207.5,171C 198.895,173.734 195.062,170.567 196,161.5C 197.376,160.295 198.542,158.962 199.5,157.5 Z"/></g>
<g><path style="opacity:1" fill="#0a0400" d="M 169.5,182.5 C 171.883,183.885 173.55,185.885 174.5,188.5C 174.006,197.166 169.84,199.5 162,195.5C 158.404,187.603 160.904,183.27 169.5,182.5 Z"/></g>
<g><path style="opacity:0.983" fill="#030100" d="M 456.5,511.5 C 322.5,511.5 188.5,511.5 54.5,511.5C 49.6917,508.573 46.8584,504.239 46,498.5C 35.6667,465.5 25.3333,432.5 15,399.5C 12.7632,392.155 14.9298,386.655 21.5,383C 26.1258,382.018 30.7924,381.184 35.5,380.5C 54,338.833 72.5,297.167 91,255.5C 97.4107,247.026 105.911,243.86 116.5,246C 120.283,247.058 123.617,248.891 126.5,251.5C 147.483,274.317 168.65,296.984 190,319.5C 200.215,310.982 212.049,306.816 225.5,307C 240.758,294.822 257.592,291.988 276,298.5C 296.779,268.721 317.946,239.221 339.5,210C 352.275,202.675 363.442,204.508 373,215.5C 391.375,245.084 409.875,274.584 428.5,304C 435.793,302.943 443.126,301.61 450.5,300C 471.827,298.327 481.327,308.161 479,329.5C 475.305,346.807 471.805,364.14 468.5,381.5C 475.589,381.116 482.589,381.616 489.5,383C 494.519,385.207 496.853,389.04 496.5,394.5C 486.05,431.352 474.884,468.019 463,504.5C 461.306,507.358 459.139,509.691 456.5,511.5 Z"/></g>
<g><path style="opacity:1" fill="#0a0500" d="M 207.5,219.5 C 196.107,223.44 192.44,219.774 196.5,208.5C 198.033,207.569 199.7,206.902 201.5,206.5C 208.327,208.465 210.327,212.799 207.5,219.5 Z"/></g>
<g><path style="opacity:1" fill="#f78601" d="M 368.5,238.5 C 367.883,238.389 367.383,238.056 367,237.5C 362.917,243.401 359.083,249.401 355.5,255.5C 348.819,251.841 344.486,253.674 342.5,261C 342.84,263.511 343.84,265.678 345.5,267.5C 340.585,275.754 335.251,283.754 329.5,291.5C 321.774,289.607 317.941,292.607 318,300.5C 318.662,301.984 319.496,303.317 320.5,304.5C 318.057,307.052 316.39,310.052 315.5,313.5C 307.061,310.247 298.394,308.081 289.5,307C 309.122,278.062 329.455,249.729 350.5,222C 352.833,221.333 355.167,221.333 357.5,222C 362.056,226.955 365.722,232.455 368.5,238.5 Z"/></g>
<g><path style="opacity:1" fill="#fa9601" d="M 368.5,238.5 C 383.304,261.493 397.97,284.66 412.5,308C 384.687,314.63 356.687,319.963 328.5,324C 324.871,319.528 320.537,316.028 315.5,313.5C 316.39,310.052 318.057,307.052 320.5,304.5C 327.19,307.312 331.19,305.145 332.5,298C 332.16,295.489 331.16,293.322 329.5,291.5C 335.251,283.754 340.585,275.754 345.5,267.5C 355.853,269.155 359.186,265.155 355.5,255.5C 359.083,249.401 362.917,243.401 367,237.5C 367.383,238.056 367.883,238.389 368.5,238.5 Z"/></g>
<g><path style="opacity:1" fill="#0d0600" d="M 355.5,255.5 C 359.186,265.155 355.853,269.155 345.5,267.5C 343.84,265.678 342.84,263.511 342.5,261C 344.486,253.674 348.819,251.841 355.5,255.5 Z"/></g>
<g><path style="opacity:1" fill="#f6c300" d="M 125.5,273.5 C 121.672,279.822 118.339,286.489 115.5,293.5C 108.394,293.105 105.228,296.439 106,303.5C 107.032,305.027 108.199,306.36 109.5,307.5C 105.5,316.5 101.5,325.5 97.5,334.5C 90.8576,334.64 88.0242,337.973 89,344.5C 89.9973,346.323 91.1639,347.99 92.5,349.5C 87.8444,356.144 84.1778,363.477 81.5,371.5C 73.1975,370.64 70.1975,374.14 72.5,382C 65.5,382.667 58.5,382.667 51.5,382C 69.021,342.456 86.6877,302.956 104.5,263.5C 106.933,260.758 109.933,259.925 113.5,261C 117.704,265.036 121.704,269.202 125.5,273.5 Z"/></g>
<g><path style="opacity:1" fill="#fbd201" d="M 125.5,273.5 C 143.8,292.636 161.967,311.969 180,331.5C 179.847,334.174 179.347,336.84 178.5,339.5C 170.826,339.334 163.159,339.5 155.5,340C 149.77,343.639 149.103,347.972 153.5,353C 155.677,354.202 158.011,354.702 160.5,354.5C 162.99,363.461 165.324,372.461 167.5,381.5C 140.5,381.5 113.5,381.5 86.5,381.5C 86.7845,379.585 86.4511,377.919 85.5,376.5C 84.9202,374.251 83.5869,372.585 81.5,371.5C 84.1778,363.477 87.8444,356.144 92.5,349.5C 101.56,349.954 104.727,345.954 102,337.5C 100.385,336.614 98.8853,335.614 97.5,334.5C 101.5,325.5 105.5,316.5 109.5,307.5C 117.614,309.222 121.114,305.889 120,297.5C 118.629,295.959 117.129,294.625 115.5,293.5C 118.339,286.489 121.672,279.822 125.5,273.5 Z"/></g>
<g><path style="opacity:1" fill="#0a0500" d="M 361.5,285.5 C 371.525,284.731 374.525,288.898 370.5,298C 363.864,301.33 359.531,299.497 357.5,292.5C 358.071,289.687 359.404,287.354 361.5,285.5 Z"/></g>
<g><path style="opacity:1" fill="#0e0700" d="M 329.5,291.5 C 331.16,293.322 332.16,295.489 332.5,298C 331.19,305.145 327.19,307.312 320.5,304.5C 319.496,303.317 318.662,301.984 318,300.5C 317.941,292.607 321.774,289.607 329.5,291.5 Z"/></g>
<g><path style="opacity:1" fill="#0f0b01" d="M 115.5,293.5 C 117.129,294.625 118.629,295.959 120,297.5C 121.114,305.889 117.614,309.222 109.5,307.5C 108.199,306.36 107.032,305.027 106,303.5C 105.228,296.439 108.394,293.105 115.5,293.5 Z"/></g>
<g><path style="opacity:1" fill="#fa4654" d="M 278.5,317.5 C 272.41,319.72 267.077,323.22 262.5,328C 252.028,327.047 242.362,329.38 233.5,335C 231.959,336.371 230.625,337.871 229.5,339.5C 217.833,339.5 206.167,339.5 194.5,339.5C 198.435,331.515 204.768,326.349 213.5,324C 219.914,323.871 226.247,323.204 232.5,322C 241.335,312.037 252.335,308.37 265.5,311C 270.139,312.653 274.472,314.819 278.5,317.5 Z"/></g>
<g><path style="opacity:1" fill="#f9d001" d="M 452.5,381.5 C 444.097,382.134 436.097,381.467 428.5,379.5C 429.294,371.225 425.627,368.058 417.5,370C 413.95,373.731 413.617,377.731 416.5,382C 393.502,382.5 370.502,382.667 347.5,382.5C 349.52,373.089 351.853,363.755 354.5,354.5C 360.391,355.57 363.724,353.237 364.5,347.5C 364.444,344.889 363.444,342.722 361.5,341C 353.603,339.73 345.603,339.063 337.5,339C 377.978,329.704 418.645,321.704 459.5,315C 462.934,316.529 464.6,319.196 464.5,323C 460.451,342.522 456.451,362.022 452.5,381.5 Z"/></g>
<g><path style="opacity:1" fill="#fc636e" d="M 278.5,317.5 C 280.63,319.127 282.63,320.96 284.5,323C 292.343,322.91 300.009,323.91 307.5,326C 312.996,328.997 317.329,333.163 320.5,338.5C 290.338,339.498 260.005,339.831 229.5,339.5C 230.625,337.871 231.959,336.371 233.5,335C 242.362,329.38 252.028,327.047 262.5,328C 267.077,323.22 272.41,319.72 278.5,317.5 Z"/></g>
<g><path style="opacity:1" fill="#090700" d="M 130.5,321.5 C 138.494,320.329 141.994,323.663 141,331.5C 138.487,335.212 134.987,336.378 130.5,335C 125.209,330.423 125.209,325.923 130.5,321.5 Z"/></g>
<g><path style="opacity:1" fill="#0d0901" d="M 97.5,334.5 C 98.8853,335.614 100.385,336.614 102,337.5C 104.727,345.954 101.56,349.954 92.5,349.5C 91.1639,347.99 89.9973,346.323 89,344.5C 88.0242,337.973 90.8576,334.64 97.5,334.5 Z"/></g>
<g><path style="opacity:1" fill="#0d0901" d="M 429.5,335.5 C 438.017,335.545 440.851,339.545 438,347.5C 432.785,352.019 428.451,351.353 425,345.5C 424.077,341.017 425.577,337.683 429.5,335.5 Z"/></g>
<g><path style="opacity:1" fill="#551f23" d="M 320.5,338.5 C 321.043,338.56 321.376,338.893 321.5,339.5C 279.002,340.831 236.669,340.831 194.5,339.5C 206.167,339.5 217.833,339.5 229.5,339.5C 260.005,339.831 290.338,339.498 320.5,338.5 Z"/></g>
<g><path style="opacity:1" fill="#0c0900" d="M 385.5,345.5 C 392.657,345.155 395.824,348.488 395,355.5C 390.333,362.167 385.667,362.167 381,355.5C 380.077,351.017 381.577,347.683 385.5,345.5 Z"/></g>
<g><path style="opacity:1" fill="#004f32" d="M 338.5,356.5 C 294.67,355.501 250.67,355.168 206.5,355.5C 196.319,355.173 186.319,355.506 176.5,356.5C 175.957,356.44 175.624,356.107 175.5,355.5C 230.167,354.167 284.833,354.167 339.5,355.5C 339.376,356.107 339.043,356.44 338.5,356.5 Z"/></g>
<g><path style="opacity:1" fill="#01653f" d="M 206.5,355.5 C 209.086,364.095 211.419,372.761 213.5,381.5C 252.833,381.5 292.167,381.5 331.5,381.5C 282.336,382.499 233.003,382.832 183.5,382.5C 181.167,373.834 178.834,365.167 176.5,356.5C 186.319,355.506 196.319,355.173 206.5,355.5 Z"/></g>
<g><path style="opacity:1" fill="#017a4d" d="M 206.5,355.5 C 250.67,355.168 294.67,355.501 338.5,356.5C 336.322,364.878 333.989,373.211 331.5,381.5C 292.167,381.5 252.833,381.5 213.5,381.5C 211.419,372.761 209.086,364.095 206.5,355.5 Z"/></g>
<g><path style="opacity:1" fill="#090600" d="M 123.5,356.5 C 131.794,355.036 135.294,358.37 134,366.5C 129.965,371.364 125.632,371.698 121,367.5C 118.584,363.078 119.417,359.411 123.5,356.5 Z"/></g>
<g><path style="opacity:1" fill="#b59701" d="M 85.5,376.5 C 86.4511,377.919 86.7845,379.585 86.5,381.5C 113.5,381.5 140.5,381.5 167.5,381.5C 140.338,382.498 113.005,382.831 85.5,382.5C 85.5,380.5 85.5,378.5 85.5,376.5 Z"/></g>
<g><path style="opacity:1" fill="#ba9b01" d="M 428.5,379.5 C 436.097,381.467 444.097,382.134 452.5,381.5C 444.01,382.657 435.343,382.824 426.5,382C 427.066,381.005 427.733,380.172 428.5,379.5 Z"/></g>
<g><path style="opacity:1" fill="#fa2b3a" d="M 73.5,397.5 C 79.477,416.075 85.1437,434.742 90.5,453.5C 76.5,453.5 62.5,453.5 48.5,453.5C 42.8045,434.913 36.8045,416.413 30.5,398C 44.8295,397.5 59.1628,397.333 73.5,397.5 Z"/></g>
<g><path style="opacity:1" fill="#fb4654" d="M 73.5,397.5 C 209.167,397.333 344.834,397.5 480.5,398C 474.205,416.385 468.205,434.885 462.5,453.5C 435.506,454.333 408.506,454.833 381.5,455C 378.179,456.812 376.845,459.645 377.5,463.5C 374.093,462.247 370.427,461.58 366.5,461.5C 362.573,461.58 358.907,462.247 355.5,463.5C 356.155,459.645 354.821,456.812 351.5,455C 250.333,454.833 149.333,454.333 48.5,453.5C 62.5,453.5 76.5,453.5 90.5,453.5C 85.1437,434.742 79.477,416.075 73.5,397.5 Z"/></g>
<g><path style="opacity:1" fill="#fa2a39" d="M 377.5,463.5 C 378.254,466.091 379.921,467.924 382.5,469C 407.507,469.167 432.507,469.667 457.5,470.5C 454.222,478.998 451.556,487.665 449.5,496.5C 334.5,496.5 219.5,496.5 104.5,496.5C 101.428,487.618 98.7616,478.618 96.5,469.5C 181.167,469.667 265.834,469.5 350.5,469C 353.079,467.924 354.746,466.091 355.5,463.5C 358.907,462.247 362.573,461.58 366.5,461.5C 370.427,461.58 374.093,462.247 377.5,463.5 Z"/></g>
<g><path style="opacity:1" fill="#e31f2c" d="M 96.5,469.5 C 98.7616,478.618 101.428,487.618 104.5,496.5C 90.1667,496.5 75.8333,496.5 61.5,496.5C 59.4443,487.665 56.7776,478.998 53.5,470.5C 67.8179,469.501 82.1512,469.167 96.5,469.5 Z"/></g>
</svg>
