<?xml version="1.0" encoding="UTF-8"?>
<!DOCTYPE svg PUBLIC "-//W3C//DTD SVG 1.1//EN" "http://www.w3.org/Graphics/SVG/1.1/DTD/svg11.dtd">
<svg xmlns="http://www.w3.org/2000/svg" version="1.1" width="512px" height="512px" style="shape-rendering:geometricPrecision; text-rendering:geometricPrecision; image-rendering:optimizeQuality; fill-rule:evenodd; clip-rule:evenodd" xmlns:xlink="http://www.w3.org/1999/xlink">
<g><path style="opacity:0.988" fill="#000000" d="M 80.5,15.5 C 95.837,15.3334 111.17,15.5001 126.5,16C 134.667,18.8333 140.167,24.3333 143,32.5C 143.667,46.8333 143.667,61.1667 143,75.5C 141.461,78.5208 138.961,79.8541 135.5,79.5C 135.334,86.175 135.5,92.8417 136,99.5C 150.626,111.124 164.959,123.124 179,135.5C 180.333,138.167 181.667,140.833 183,143.5C 183.667,201.833 183.667,260.167 183,318.5C 182.027,321.779 180.527,324.779 178.5,327.5C 185.167,338.167 185.167,348.833 178.5,359.5C 185.167,370.167 185.167,380.833 178.5,391.5C 185.167,402.167 185.167,412.833 178.5,423.5C 180.527,426.221 182.027,429.221 183,432.5C 183.667,443.167 183.667,453.833 183,464.5C 178.833,480.667 168.667,490.833 152.5,495C 136.167,495.167 119.833,495.333 103.5,495.5C 85.7833,495.64 68.1166,495.14 50.5,494C 36.3937,488.894 27.5604,479.061 24,464.5C 23.3333,453.833 23.3333,443.167 24,432.5C 24.9728,429.221 26.4728,426.221 28.5,423.5C 21.8333,412.833 21.8333,402.167 28.5,391.5C 21.8333,380.833 21.8333,370.167 28.5,359.5C 21.8333,348.833 21.8333,338.167 28.5,327.5C 26.4728,324.779 24.9728,321.779 24,318.5C 23.3333,260.167 23.3333,201.833 24,143.5C 25.7204,138.554 28.5538,134.387 32.5,131C 45.4252,120.62 58.2585,110.12 71,99.5C 71.4996,92.8417 71.6663,86.175 71.5,79.5C 68.0388,79.8541 65.5388,78.5208 64,75.5C 63.3333,61.1667 63.3333,46.8333 64,32.5C 67.0191,24.3156 72.5191,18.649 80.5,15.5 Z"/></g>
<g><path style="opacity:0.989" fill="#000000" d="M 320.5,15.5 C 335.837,15.3334 351.17,15.5001 366.5,16C 374.667,18.8333 380.167,24.3333 383,32.5C 383.667,46.8333 383.667,61.1667 383,75.5C 381.461,78.5208 378.961,79.8541 375.5,79.5C 375.19,85.7576 375.524,91.9242 376.5,98C 410.167,113.667 443.833,129.333 477.5,145C 482.252,148.414 485.419,152.914 487,158.5C 487.667,179.833 487.667,201.167 487,222.5C 486.027,225.779 484.527,228.779 482.5,231.5C 489.167,242.167 489.167,252.833 482.5,263.5C 489.167,274.167 489.167,284.833 482.5,295.5C 489.167,306.167 489.167,316.833 482.5,327.5C 489.167,338.167 489.167,348.833 482.5,359.5C 489.167,370.167 489.167,380.833 482.5,391.5C 489.167,402.167 489.167,412.833 482.5,423.5C 484.527,426.221 486.027,429.221 487,432.5C 487.667,443.167 487.667,453.833 487,464.5C 482.833,480.667 472.667,490.833 456.5,495C 381.167,495.667 305.833,495.667 230.5,495C 214.333,490.833 204.167,480.667 200,464.5C 199.333,453.833 199.333,443.167 200,432.5C 200.973,429.221 202.473,426.221 204.5,423.5C 197.833,412.833 197.833,402.167 204.5,391.5C 197.833,380.833 197.833,370.167 204.5,359.5C 197.833,348.833 197.833,338.167 204.5,327.5C 197.833,316.833 197.833,306.167 204.5,295.5C 197.833,284.833 197.833,274.167 204.5,263.5C 197.833,252.833 197.833,242.167 204.5,231.5C 202.473,228.779 200.973,225.779 200,222.5C 199.333,201.167 199.333,179.833 200,158.5C 201.581,152.914 204.748,148.414 209.5,145C 243.167,129.333 276.833,113.667 310.5,98C 311.476,91.9242 311.81,85.7576 311.5,79.5C 308.039,79.8541 305.539,78.5208 304,75.5C 303.333,61.1667 303.333,46.8333 304,32.5C 307.019,24.3156 312.519,18.649 320.5,15.5 Z"/></g>
<g><path style="opacity:1" fill="#e99e25" d="M 84.5,31.5 C 97.9321,31.037 111.265,31.537 124.5,33C 125.701,33.9025 126.535,35.0692 127,36.5C 127.5,45.4938 127.666,54.4938 127.5,63.5C 111.5,63.5 95.5,63.5 79.5,63.5C 79.3336,54.4938 79.5002,45.4938 80,36.5C 81.025,34.313 82.525,32.6464 84.5,31.5 Z"/></g>
<g><path style="opacity:1" fill="#e99e25" d="M 324.5,31.5 C 337.932,31.037 351.265,31.537 364.5,33C 365.701,33.9025 366.535,35.0692 367,36.5C 367.5,45.4938 367.666,54.4938 367.5,63.5C 351.5,63.5 335.5,63.5 319.5,63.5C 319.334,54.4938 319.5,45.4938 320,36.5C 321.025,34.313 322.525,32.6464 324.5,31.5 Z"/></g>
<g><path style="opacity:1" fill="#f1c836" d="M 87.5,79.5 C 98.1667,79.5 108.833,79.5 119.5,79.5C 119.5,84.8333 119.5,90.1667 119.5,95.5C 108.833,95.5 98.1667,95.5 87.5,95.5C 87.5,90.1667 87.5,84.8333 87.5,79.5 Z"/></g>
<g><path style="opacity:1" fill="#f1c836" d="M 327.5,79.5 C 338.167,79.5 348.833,79.5 359.5,79.5C 359.5,84.8333 359.5,90.1667 359.5,95.5C 348.833,95.5 338.167,95.5 327.5,95.5C 327.5,90.1667 327.5,84.8333 327.5,79.5 Z"/></g>
<g><path style="opacity:1" fill="#fdd239" d="M 81.5,111.5 C 96.1705,111.333 110.837,111.5 125.5,112C 139.333,123.833 153.167,135.667 167,147.5C 167.499,151.486 167.666,155.486 167.5,159.5C 124.833,159.5 82.1667,159.5 39.5,159.5C 39.3345,155.486 39.5012,151.486 40,147.5C 54.026,135.635 67.8593,123.635 81.5,111.5 Z"/></g>
<g><path style="opacity:1" fill="#fed239" d="M 320.5,111.5 C 335.837,111.333 351.17,111.5 366.5,112C 400.5,127.667 434.5,143.333 468.5,159C 449.833,159.333 431.167,159.667 412.5,160C 407.432,162.983 406.265,167.149 409,172.5C 409.903,173.701 411.069,174.535 412.5,175C 432.164,175.5 451.831,175.667 471.5,175.5C 471.667,189.837 471.5,204.171 471,218.5C 470.167,220.667 468.667,222.167 466.5,223C 384.5,223.667 302.5,223.667 220.5,223C 218.333,222.167 216.833,220.667 216,218.5C 215.5,204.171 215.333,189.837 215.5,175.5C 273.226,175.988 330.892,175.488 388.5,174C 392.379,169.631 392.379,165.298 388.5,161C 387.5,160.667 386.5,160.333 385.5,160C 329.833,159.667 274.167,159.333 218.5,159C 252.711,143.392 286.711,127.558 320.5,111.5 Z"/></g>
<g><path style="opacity:1" fill="#e99e25" d="M 39.5,175.5 C 82.1667,175.5 124.833,175.5 167.5,175.5C 167.5,212.833 167.5,250.167 167.5,287.5C 124.833,287.5 82.1667,287.5 39.5,287.5C 39.5,250.167 39.5,212.833 39.5,175.5 Z"/></g>
<g><path style="opacity:1" fill="#050300" d="M 100.5,191.5 C 103.972,191.126 106.972,192.126 109.5,194.5C 115.352,205.511 122.185,215.845 130,225.5C 139.539,241.902 136.706,255.735 121.5,267C 104.8,275.037 89.9665,272.537 77,259.5C 70.8127,250.251 69.9794,240.585 74.5,230.5C 83.2591,217.436 91.9257,204.436 100.5,191.5 Z"/></g>
<g><path style="opacity:1" fill="#edc435" d="M 102.5,216.5 C 103.496,216.414 104.329,216.748 105,217.5C 110.487,224.319 115.154,231.652 119,239.5C 120.068,247.128 116.901,252.294 109.5,255C 100.114,257.55 92.9469,254.717 88,246.5C 87.2989,243.072 87.6323,239.738 89,236.5C 93.7215,229.952 98.2215,223.285 102.5,216.5 Z"/></g>
<g><path style="opacity:1" fill="#face38" d="M 220.5,239.5 C 224.167,239.5 227.833,239.5 231.5,239.5C 231.5,244.833 231.5,250.167 231.5,255.5C 227.818,255.665 224.152,255.499 220.5,255C 216.139,252.774 214.639,249.274 216,244.5C 217.025,242.313 218.525,240.646 220.5,239.5 Z"/></g>
<g><path style="opacity:1" fill="#e99e25" d="M 247.5,239.5 C 311.5,239.5 375.5,239.5 439.5,239.5C 439.5,276.833 439.5,314.167 439.5,351.5C 375.5,351.5 311.5,351.5 247.5,351.5C 247.5,314.167 247.5,276.833 247.5,239.5 Z"/></g>
<g><path style="opacity:1" fill="#f9ce38" d="M 455.5,239.5 C 459.182,239.335 462.848,239.501 466.5,240C 472.259,243.892 472.926,248.559 468.5,254C 464.3,255.367 459.967,255.867 455.5,255.5C 455.5,250.167 455.5,244.833 455.5,239.5 Z"/></g>
<g><path style="opacity:1" fill="#050300" d="M 340.5,255.5 C 343.972,255.126 346.972,256.126 349.5,258.5C 355.352,269.511 362.185,279.845 370,289.5C 379.539,305.902 376.706,319.735 361.5,331C 344.8,339.037 329.966,336.537 317,323.5C 310.813,314.251 309.979,304.585 314.5,294.5C 323.259,281.436 331.926,268.436 340.5,255.5 Z"/></g>
<g><path style="opacity:1" fill="#face38" d="M 220.5,271.5 C 224.167,271.5 227.833,271.5 231.5,271.5C 231.5,276.833 231.5,282.167 231.5,287.5C 227.818,287.665 224.152,287.499 220.5,287C 216.139,284.774 214.639,281.274 216,276.5C 217.025,274.313 218.525,272.646 220.5,271.5 Z"/></g>
<g><path style="opacity:1" fill="#f9ce38" d="M 455.5,271.5 C 459.182,271.335 462.848,271.501 466.5,272C 472.259,275.892 472.926,280.559 468.5,286C 464.3,287.367 459.967,287.867 455.5,287.5C 455.5,282.167 455.5,276.833 455.5,271.5 Z"/></g>
<g><path style="opacity:1" fill="#edc436" d="M 342.5,280.5 C 343.496,280.414 344.329,280.748 345,281.5C 350.487,288.319 355.154,295.652 359,303.5C 360.068,311.128 356.901,316.294 349.5,319C 339.605,321.63 332.438,318.463 328,309.5C 327.333,307.167 327.333,304.833 328,302.5C 332.663,295.013 337.496,287.68 342.5,280.5 Z"/></g>
<g><path style="opacity:1" fill="#fed239" d="M 39.5,303.5 C 82.1667,303.5 124.833,303.5 167.5,303.5C 167.665,307.182 167.499,310.848 167,314.5C 166.167,316.667 164.667,318.167 162.5,319C 123.167,319.667 83.8333,319.667 44.5,319C 42.3333,318.167 40.8333,316.667 40,314.5C 39.5014,310.848 39.3347,307.182 39.5,303.5 Z"/></g>
<g><path style="opacity:1" fill="#face38" d="M 220.5,303.5 C 224.167,303.5 227.833,303.5 231.5,303.5C 231.5,308.833 231.5,314.167 231.5,319.5C 227.818,319.665 224.152,319.499 220.5,319C 216.139,316.774 214.639,313.274 216,308.5C 217.025,306.313 218.525,304.646 220.5,303.5 Z"/></g>
<g><path style="opacity:1" fill="#f9ce38" d="M 455.5,303.5 C 459.182,303.335 462.848,303.501 466.5,304C 472.259,307.892 472.926,312.559 468.5,318C 464.3,319.367 459.967,319.867 455.5,319.5C 455.5,314.167 455.5,308.833 455.5,303.5 Z"/></g>
<g><path style="opacity:1" fill="#fdd239" d="M 44.5,335.5 C 83.8347,335.333 123.168,335.5 162.5,336C 167.535,339.013 168.702,343.18 166,348.5C 165.097,349.701 163.931,350.535 162.5,351C 123.167,351.667 83.8333,351.667 44.5,351C 39.4648,347.987 38.2981,343.82 41,338.5C 42.1451,337.364 43.3117,336.364 44.5,335.5 Z"/></g>
<g><path style="opacity:1" fill="#face38" d="M 220.5,335.5 C 224.167,335.5 227.833,335.5 231.5,335.5C 231.5,340.833 231.5,346.167 231.5,351.5C 227.818,351.665 224.152,351.499 220.5,351C 216.139,348.774 214.639,345.274 216,340.5C 217.025,338.313 218.525,336.646 220.5,335.5 Z"/></g>
<g><path style="opacity:1" fill="#f9ce38" d="M 455.5,335.5 C 459.182,335.335 462.848,335.501 466.5,336C 472.259,339.892 472.926,344.559 468.5,350C 464.3,351.367 459.967,351.867 455.5,351.5C 455.5,346.167 455.5,340.833 455.5,335.5 Z"/></g>
<g><path style="opacity:1" fill="#fdd239" d="M 44.5,367.5 C 83.8347,367.333 123.168,367.5 162.5,368C 167.535,371.013 168.702,375.18 166,380.5C 165.097,381.701 163.931,382.535 162.5,383C 123.167,383.667 83.8333,383.667 44.5,383C 39.4648,379.987 38.2981,375.82 41,370.5C 42.1451,369.364 43.3117,368.364 44.5,367.5 Z"/></g>
<g><path style="opacity:1" fill="#fed239" d="M 220.5,367.5 C 302.501,367.333 384.501,367.5 466.5,368C 471.535,371.013 472.702,375.18 470,380.5C 469.097,381.701 467.931,382.535 466.5,383C 384.5,383.667 302.5,383.667 220.5,383C 215.465,379.987 214.298,375.82 217,370.5C 218.145,369.364 219.312,368.364 220.5,367.5 Z"/></g>
<g><path style="opacity:1" fill="#fdd239" d="M 44.5,399.5 C 83.8347,399.333 123.168,399.5 162.5,400C 167.535,403.013 168.702,407.18 166,412.5C 165.097,413.701 163.931,414.535 162.5,415C 123.167,415.667 83.8333,415.667 44.5,415C 39.4648,411.987 38.2981,407.82 41,402.5C 42.1451,401.364 43.3117,400.364 44.5,399.5 Z"/></g>
<g><path style="opacity:1" fill="#fed239" d="M 220.5,399.5 C 302.501,399.333 384.501,399.5 466.5,400C 471.535,403.013 472.702,407.18 470,412.5C 469.097,413.701 467.931,414.535 466.5,415C 384.5,415.667 302.5,415.667 220.5,415C 215.465,411.987 214.298,407.82 217,402.5C 218.145,401.364 219.312,400.364 220.5,399.5 Z"/></g>
<g><path style="opacity:1" fill="#fed239" d="M 44.5,431.5 C 83.8347,431.333 123.168,431.5 162.5,432C 164.667,432.833 166.167,434.333 167,436.5C 167.667,444.833 167.667,453.167 167,461.5C 163.74,470.427 157.573,476.261 148.5,479C 118.167,479.667 87.8333,479.667 57.5,479C 49,475.833 43.1667,470 40,461.5C 39.3333,453.167 39.3333,444.833 40,436.5C 41.025,434.313 42.525,432.646 44.5,431.5 Z"/></g>
<g><path style="opacity:1" fill="#fed239" d="M 220.5,431.5 C 302.501,431.333 384.501,431.5 466.5,432C 468.667,432.833 470.167,434.333 471,436.5C 471.667,444.833 471.667,453.167 471,461.5C 467.74,470.427 461.573,476.261 452.5,479C 379.5,479.667 306.5,479.667 233.5,479C 225,475.833 219.167,470 216,461.5C 215.333,453.167 215.333,444.833 216,436.5C 217.025,434.313 218.525,432.646 220.5,431.5 Z"/></g>
</svg>
