<?xml version="1.0" encoding="UTF-8"?>
<!DOCTYPE svg PUBLIC "-//W3C//DTD SVG 1.1//EN" "http://www.w3.org/Graphics/SVG/1.1/DTD/svg11.dtd">
<svg xmlns="http://www.w3.org/2000/svg" version="1.1" width="128px" height="128px" style="shape-rendering:geometricPrecision; text-rendering:geometricPrecision; image-rendering:optimizeQuality; fill-rule:evenodd; clip-rule:evenodd" xmlns:xlink="http://www.w3.org/1999/xlink">
<g><path style="opacity:0.887" fill="#060606" d="M 31.5,-0.5 C 43.1667,-0.5 54.8333,-0.5 66.5,-0.5C 69.3451,2.51215 72.0118,5.67881 74.5,9C 72.4264,13.4454 69.0931,15.7787 64.5,16C 63.8333,15.3333 63.1667,14.6667 62.5,14C 58.5138,13.5012 54.5138,13.3345 50.5,13.5C 50.5,15.5 50.5,17.5 50.5,19.5C 53.0444,19.1043 55.2111,19.771 57,21.5C 57.7024,28.3075 57.3691,34.9742 56,41.5C 60.3333,44.5 64,48.1667 67,52.5C 68.8962,50.4701 71.0629,48.8034 73.5,47.5C 73.9787,42.4873 74.9787,37.654 76.5,33C 90.2263,28.0532 96.393,32.8865 95,47.5C 105.346,54.3417 109.846,64.0084 108.5,76.5C 108.333,79.8333 108.167,83.1667 108,86.5C 107.617,87.056 107.117,87.3893 106.5,87.5C 104.93,79.6959 103.764,71.6959 103,63.5C 101.043,58.0496 97.5432,54.0496 92.5,51.5C 87.3497,50.3493 82.0164,50.1826 76.5,51C 74.3395,51.9959 72.6728,53.4959 71.5,55.5C 70.1201,55.9623 69.4534,56.9623 69.5,58.5C 72.1302,66.6586 72.9636,74.9919 72,83.5C 71.6174,84.056 71.1174,84.3893 70.5,84.5C 69.8826,84.3893 69.3826,84.056 69,83.5C 70.8917,66.8132 65.2251,53.4799 52,43.5C 51.5045,41.5273 51.3379,39.5273 51.5,37.5C 46.1667,37.5 40.8333,37.5 35.5,37.5C 35.5,38.8333 35.5,40.1667 35.5,41.5C 30.5185,46.3241 26.0185,51.6575 22,57.5C 19.033,65.8718 17.6996,74.5384 18,83.5C 17.3292,84.2524 16.4959,84.5858 15.5,84.5C 12.6864,72.7272 14.5197,61.3939 21,50.5C 24.035,47.1298 27.3683,44.1298 31,41.5C 29.5714,35.0369 29.2381,28.3703 30,21.5C 31.4443,19.8446 33.2776,19.178 35.5,19.5C 35.5,17.5 35.5,15.5 35.5,13.5C 29.608,12.7357 27.4413,9.4024 29,3.5C 29.6622,2.01608 30.4955,0.682751 31.5,-0.5 Z"/></g>
<g><path style="opacity:0.823" fill="#030304" d="M 82.5,-0.5 C 85.1667,-0.5 87.8333,-0.5 90.5,-0.5C 95.734,3.95975 95.734,8.45975 90.5,13C 82.2087,14.9546 78.7087,11.788 80,3.5C 80.6622,2.01608 81.4955,0.682751 82.5,-0.5 Z"/></g>
<g><path style="opacity:1" fill="#ebe6ce" d="M 33.5,3.5 C 43.8387,3.33351 54.172,3.50017 64.5,4C 66.1667,5.66667 67.8333,7.33333 69.5,9C 68.1015,11.5618 66.4348,11.8951 64.5,10C 54.5,9.66667 44.5,9.33333 34.5,9C 32.1904,7.54148 31.8571,5.70814 33.5,3.5 Z"/></g>
<g><path style="opacity:1" fill="#b0cbdd" d="M 84.5,3.5 C 89.1585,3.01463 90.4919,4.84796 88.5,9C 83.7282,9.81044 82.3948,7.97711 84.5,3.5 Z"/></g>
<g><path style="opacity:0.817" fill="#060708" d="M 99.5,12.5 C 112.116,12.9426 115.949,18.9426 111,30.5C 104.413,35.8956 98.4133,35.2289 93,28.5C 90.7242,21.1262 92.8909,15.7929 99.5,12.5 Z"/></g>
<g><path style="opacity:1" fill="#eee8d0" d="M 40.5,13.5 C 42.5,13.5 44.5,13.5 46.5,13.5C 46.5,15.5 46.5,17.5 46.5,19.5C 44.5,19.5 42.5,19.5 40.5,19.5C 40.5,17.5 40.5,15.5 40.5,13.5 Z"/></g>
<g><path style="opacity:1" fill="#b9d6e9" d="M 99.5,17.5 C 108.16,16.6866 110.827,20.1866 107.5,28C 99.7585,31.2479 96.2585,28.7479 97,20.5C 98.045,19.6266 98.8783,18.6266 99.5,17.5 Z"/></g>
<g><path style="opacity:1" fill="#ede9d1" d="M 52.5,23.5 C 52.5,26.8333 52.5,30.1667 52.5,33.5C 46.1667,33.5 39.8333,33.5 33.5,33.5C 33.5,30.1667 33.5,26.8333 33.5,23.5C 39.8333,23.5 46.1667,23.5 52.5,23.5 Z"/></g>
<g><path style="opacity:1" fill="#5a574a" d="M 52.5,23.5 C 53.4816,26.9619 53.815,30.6286 53.5,34.5C 46.6457,34.824 39.979,34.4907 33.5,33.5C 39.8333,33.5 46.1667,33.5 52.5,33.5C 52.5,30.1667 52.5,26.8333 52.5,23.5 Z"/></g>
<g><path style="opacity:1" fill="#f8d65f" d="M 89.5,37.5 C 89.5,40.5 89.5,43.5 89.5,46.5C 85.8333,46.5 82.1667,46.5 78.5,46.5C 76.3249,37.5104 79.6582,34.0104 88.5,36C 89.056,36.3826 89.3893,36.8826 89.5,37.5 Z"/></g>
<g><path style="opacity:1" fill="#2dcdf2" d="M 70.5,84.5 C 70.5,86.1667 70.5,87.8333 70.5,89.5C 69.8826,89.6107 69.3826,89.944 69,90.5C 68.6667,98.5 68.3333,106.5 68,114.5C 66.5259,118.641 63.6926,121.474 59.5,123C 48.5,123.667 37.5,123.667 26.5,123C 24.6763,122.34 23.343,121.173 22.5,119.5C 33.505,119.667 44.505,119.5 55.5,119C 60.2353,117.932 63.4019,115.099 65,110.5C 65.6667,98.1667 65.6667,85.8333 65,73.5C 63.5899,62.6698 58.5899,54.0031 50,47.5C 49.2078,45.4127 48.0412,43.5793 46.5,42C 42.8484,41.5014 39.1817,41.3347 35.5,41.5C 35.5,40.1667 35.5,38.8333 35.5,37.5C 40.8333,37.5 46.1667,37.5 51.5,37.5C 51.3379,39.5273 51.5045,41.5273 52,43.5C 65.2251,53.4799 70.8917,66.8132 69,83.5C 69.3826,84.056 69.8826,84.3893 70.5,84.5 Z"/></g>
<g><path style="opacity:0.998" fill="#85e5fb" d="M 35.5,41.5 C 39.1817,41.3347 42.8484,41.5014 46.5,42C 48.0412,43.5793 49.2078,45.4127 50,47.5C 58.5899,54.0031 63.5899,62.6698 65,73.5C 65.6667,85.8333 65.6667,98.1667 65,110.5C 63.4019,115.099 60.2353,117.932 55.5,119C 44.505,119.5 33.505,119.667 22.5,119.5C 20.8267,118.657 19.66,117.324 19,115.5C 18.6667,107.167 18.3333,98.8333 18,90.5C 17.3292,89.7476 16.4959,89.4142 15.5,89.5C 15.5,87.8333 15.5,86.1667 15.5,84.5C 16.4959,84.5858 17.3292,84.2524 18,83.5C 17.6996,74.5384 19.033,65.8718 22,57.5C 26.0185,51.6575 30.5185,46.3241 35.5,41.5 Z"/></g>
<g><path style="opacity:1" fill="#755b25" d="M 89.5,37.5 C 90.4794,40.6248 90.8128,43.9581 90.5,47.5C 86.2984,47.8168 82.2984,47.4834 78.5,46.5C 82.1667,46.5 85.8333,46.5 89.5,46.5C 89.5,43.5 89.5,40.5 89.5,37.5 Z"/></g>
<g><path style="opacity:1" fill="#fc91e2" d="M 92.5,51.5 C 91.7611,51.369 91.0944,51.5357 90.5,52C 96.1508,56.4672 99.3175,62.3005 100,69.5C 100.667,83.8333 100.667,98.1667 100,112.5C 98.8333,116.333 96.3333,118.833 92.5,120C 87.1667,120.667 81.8333,120.667 76.5,120C 76,119.5 75.5,119 75,118.5C 75.4146,106.545 75.5812,94.5447 75.5,82.5C 81.263,87.8097 87.0963,87.8097 93,82.5C 96.5624,71.0643 92.3957,65.8977 80.5,67C 78.6769,67.9973 77.0103,69.1639 75.5,70.5C 74.9103,65.287 73.577,60.287 71.5,55.5C 72.6728,53.4959 74.3395,51.9959 76.5,51C 82.0164,50.1826 87.3497,50.3493 92.5,51.5 Z"/></g>
<g><path style="opacity:1" fill="#f66ec9" d="M 92.5,51.5 C 97.5432,54.0496 101.043,58.0496 103,63.5C 103.764,71.6959 104.93,79.6959 106.5,87.5C 106.5,88.8333 106.5,90.1667 106.5,91.5C 104.748,98.9001 103.915,106.567 104,114.5C 102.402,119.099 99.2353,121.932 94.5,123C 87.1667,123.667 79.8333,123.667 72.5,123C 71.09,122.632 70.09,121.799 69.5,120.5C 71.9563,114.609 72.9563,108.442 72.5,102C 72.3333,98.1667 72.1667,94.3333 72,90.5C 71.6174,89.944 71.1174,89.6107 70.5,89.5C 70.5,87.8333 70.5,86.1667 70.5,84.5C 71.1174,84.3893 71.6174,84.056 72,83.5C 72.9636,74.9919 72.1302,66.6586 69.5,58.5C 69.4534,56.9623 70.1201,55.9623 71.5,55.5C 73.577,60.287 74.9103,65.287 75.5,70.5C 74.2337,74.5323 74.2337,78.5323 75.5,82.5C 75.5812,94.5447 75.4146,106.545 75,118.5C 75.5,119 76,119.5 76.5,120C 81.8333,120.667 87.1667,120.667 92.5,120C 96.3333,118.833 98.8333,116.333 100,112.5C 100.667,98.1667 100.667,83.8333 100,69.5C 99.3175,62.3005 96.1508,56.4672 90.5,52C 91.0944,51.5357 91.7611,51.369 92.5,51.5 Z"/></g>
<g><path style="opacity:1" fill="#10120f" d="M 39.5,54.5 C 45.369,54.0657 50.2023,56.0657 54,60.5C 62.583,76.1249 62.583,91.7916 54,107.5C 47.9504,114.555 41.2837,115.222 34,109.5C 26.9723,98.4866 24.639,86.4866 27,73.5C 28.6958,65.4159 32.8625,59.0826 39.5,54.5 Z"/></g>
<g><path style="opacity:1" fill="#fbde64" d="M 39.5,58.5 C 43.5164,57.8999 47.0164,58.8999 50,61.5C 57.4958,74.2598 58.4958,87.5931 53,101.5C 48.2787,110.792 42.2787,111.792 35,104.5C 29,90.8333 29,77.1667 35,63.5C 36.7073,61.9625 38.2073,60.2959 39.5,58.5 Z"/></g>
<g><path style="opacity:1" fill="#0d0d10" d="M 75.5,82.5 C 74.2337,78.5323 74.2337,74.5323 75.5,70.5C 77.0103,69.1639 78.6769,67.9973 80.5,67C 92.3957,65.8977 96.5624,71.0643 93,82.5C 87.0963,87.8097 81.263,87.8097 75.5,82.5 Z"/></g>
<g><path style="opacity:1" fill="#81def3" d="M 80.5,70.5 C 90.4863,69.4244 93.153,73.2577 88.5,82C 81.388,84.5545 77.888,82.0545 78,74.5C 78.6622,73.0161 79.4955,71.6828 80.5,70.5 Z"/></g>
<g><path style="opacity:0.896" fill="#080b0d" d="M 15.5,89.5 C 16.4959,89.4142 17.3292,89.7476 18,90.5C 18.3333,98.8333 18.6667,107.167 19,115.5C 19.66,117.324 20.8267,118.657 22.5,119.5C 23.343,121.173 24.6763,122.34 26.5,123C 37.5,123.667 48.5,123.667 59.5,123C 63.6926,121.474 66.5259,118.641 68,114.5C 68.3333,106.5 68.6667,98.5 69,90.5C 69.3826,89.944 69.8826,89.6107 70.5,89.5C 71.1174,89.6107 71.6174,89.944 72,90.5C 72.1667,94.3333 72.3333,98.1667 72.5,102C 72.9563,108.442 71.9563,114.609 69.5,120.5C 70.09,121.799 71.09,122.632 72.5,123C 79.8333,123.667 87.1667,123.667 94.5,123C 99.2353,121.932 102.402,119.099 104,114.5C 103.915,106.567 104.748,98.9001 106.5,91.5C 107.824,95.107 108.491,99.107 108.5,103.5C 110.57,114.346 106.903,122.346 97.5,127.5C 88.8333,127.5 80.1667,127.5 71.5,127.5C 68.1667,123.5 64.8333,123.5 61.5,127.5C 49.5,127.5 37.5,127.5 25.5,127.5C 15.2594,122.074 11.2594,113.407 13.5,101.5C 13.5093,97.107 14.176,93.107 15.5,89.5 Z"/></g>
</svg>
