<?xml version="1.0" encoding="UTF-8"?>
<!DOCTYPE svg PUBLIC "-//W3C//DTD SVG 1.1//EN" "http://www.w3.org/Graphics/SVG/1.1/DTD/svg11.dtd">
<svg xmlns="http://www.w3.org/2000/svg" version="1.1" width="512px" height="512px" style="shape-rendering:geometricPrecision; text-rendering:geometricPrecision; image-rendering:optimizeQuality; fill-rule:evenodd; clip-rule:evenodd" xmlns:xlink="http://www.w3.org/1999/xlink">
<g><path style="opacity:0.979" fill="#000000" d="M 226.5,-0.5 C 246.167,-0.5 265.833,-0.5 285.5,-0.5C 289.811,1.6467 292.978,4.98004 295,9.5C 295.667,28.8333 295.667,48.1667 295,67.5C 293.813,71.7092 291.313,74.8759 287.5,77C 282.264,78.339 276.93,78.839 271.5,78.5C 271.5,84.8333 271.5,91.1667 271.5,97.5C 285.504,97.3334 299.504,97.5001 313.5,98C 319,99.5 322.5,103 324,108.5C 324.5,117.16 324.666,125.827 324.5,134.5C 278.833,134.5 233.167,134.5 187.5,134.5C 187.334,125.494 187.5,116.494 188,107.5C 189.927,102.572 193.427,99.4056 198.5,98C 212.496,97.5001 226.496,97.3334 240.5,97.5C 240.5,91.1667 240.5,84.8333 240.5,78.5C 222.145,80.8112 214.145,72.8112 216.5,54.5C 200.497,54.3334 184.497,54.5001 168.5,55C 166.667,56.1667 165.167,57.6667 164,59.5C 163.758,65.8844 163.092,72.2178 162,78.5C 156.205,87.7812 148.372,89.9479 138.5,85C 133.079,79.8559 131.079,73.5225 132.5,66C 131.781,48.4011 139.115,35.4011 154.5,27C 157.774,25.7977 161.107,24.7977 164.5,24C 181.83,23.5001 199.163,23.3334 216.5,23.5C 213.864,12.6817 217.198,4.68174 226.5,-0.5 Z"/></g>
<g><path style="opacity:0.994" fill="#000000" d="M 368.5,511.5 C 293.167,511.5 217.833,511.5 142.5,511.5C 137.126,508.444 133.959,503.777 133,497.5C 132.333,404.167 132.333,310.833 133,217.5C 136.332,187.501 152.832,169.667 182.5,164C 231.5,163.333 280.5,163.333 329.5,164C 355.735,169.029 371.902,184.529 378,210.5C 378.667,307.5 378.667,404.5 378,501.5C 375.978,506.02 372.811,509.353 368.5,511.5 Z"/></g>
</svg>
