<?xml version="1.0" encoding="UTF-8"?>
<!DOCTYPE svg PUBLIC "-//W3C//DTD SVG 1.1//EN" "http://www.w3.org/Graphics/SVG/1.1/DTD/svg11.dtd">
<svg xmlns="http://www.w3.org/2000/svg" version="1.1" width="512px" height="512px" style="shape-rendering:geometricPrecision; text-rendering:geometricPrecision; image-rendering:optimizeQuality; fill-rule:evenodd; clip-rule:evenodd" xmlns:xlink="http://www.w3.org/1999/xlink">
<g><path style="opacity:0.997" fill="#fa6d00" d="M 143.5,55.5 C 122.167,55.5 100.833,55.5 79.5,55.5C 79.0505,45.3949 79.5505,35.3949 81,25.5C 81.7504,24.8742 82.5838,24.3742 83.5,24C 92.8333,23.8333 102.167,23.6667 111.5,23.5C 121.595,23.3568 131.595,23.8568 141.5,25C 142.126,25.7504 142.626,26.5838 143,27.5C 143.5,36.8274 143.666,46.1607 143.5,55.5 Z"/></g>
<g><path style="opacity:0.998" fill="#f35144" d="M 287.5,55.5 C 266.167,55.5 244.833,55.5 223.5,55.5C 223.051,45.3949 223.551,35.3949 225,25.5C 225.75,24.8742 226.584,24.3742 227.5,24C 236.833,23.8333 246.167,23.6667 255.5,23.5C 265.595,23.3568 275.595,23.8568 285.5,25C 286.126,25.7504 286.626,26.5838 287,27.5C 287.5,36.8274 287.666,46.1607 287.5,55.5 Z"/></g>
<g><path style="opacity:0.997" fill="#7db356" d="M 431.5,55.5 C 410.167,55.5 388.833,55.5 367.5,55.5C 367.051,45.3949 367.551,35.3949 369,25.5C 369.75,24.8742 370.584,24.3742 371.5,24C 380.833,23.8333 390.167,23.6667 399.5,23.5C 409.595,23.3568 419.595,23.8568 429.5,25C 430.126,25.7504 430.626,26.5838 431,27.5C 431.5,36.8274 431.666,46.1607 431.5,55.5 Z"/></g>
<g><path style="opacity:1" fill="#eaebe8" d="M 79.5,55.5 C 100.833,55.5 122.167,55.5 143.5,55.5C 146.167,55.5 148.833,55.5 151.5,55.5C 151.5,60.8333 151.5,66.1667 151.5,71.5C 148.833,71.5 146.167,71.5 143.5,71.5C 122.167,71.5 100.833,71.5 79.5,71.5C 76.8333,71.5 74.1667,71.5 71.5,71.5C 71.5,66.1667 71.5,60.8333 71.5,55.5C 74.1667,55.5 76.8333,55.5 79.5,55.5 Z"/></g>
<g><path style="opacity:1" fill="#eaebe8" d="M 223.5,55.5 C 244.833,55.5 266.167,55.5 287.5,55.5C 290.167,55.5 292.833,55.5 295.5,55.5C 295.5,60.8333 295.5,66.1667 295.5,71.5C 292.833,71.5 290.167,71.5 287.5,71.5C 266.167,71.5 244.833,71.5 223.5,71.5C 220.833,71.5 218.167,71.5 215.5,71.5C 215.5,66.1667 215.5,60.8333 215.5,55.5C 218.167,55.5 220.833,55.5 223.5,55.5 Z"/></g>
<g><path style="opacity:1" fill="#eaebe8" d="M 367.5,55.5 C 388.833,55.5 410.167,55.5 431.5,55.5C 434.167,55.5 436.833,55.5 439.5,55.5C 439.5,60.8333 439.5,66.1667 439.5,71.5C 436.833,71.5 434.167,71.5 431.5,71.5C 410.167,71.5 388.833,71.5 367.5,71.5C 364.833,71.5 362.167,71.5 359.5,71.5C 359.5,66.1667 359.5,60.8333 359.5,55.5C 362.167,55.5 364.833,55.5 367.5,55.5 Z"/></g>
<g><path style="opacity:1" fill="#dfe0dd" d="M 79.5,71.5 C 100.833,71.5 122.167,71.5 143.5,71.5C 143.5,74.1667 143.5,76.8333 143.5,79.5C 143.5,82.1667 143.5,84.8333 143.5,87.5C 122.167,87.5 100.833,87.5 79.5,87.5C 79.5,84.8333 79.5,82.1667 79.5,79.5C 79.5,76.8333 79.5,74.1667 79.5,71.5 Z"/></g>
<g><path style="opacity:1" fill="#dfe0dd" d="M 223.5,71.5 C 244.833,71.5 266.167,71.5 287.5,71.5C 287.5,74.1667 287.5,76.8333 287.5,79.5C 287.5,82.1667 287.5,84.8333 287.5,87.5C 266.167,87.5 244.833,87.5 223.5,87.5C 223.5,84.8333 223.5,82.1667 223.5,79.5C 223.5,76.8333 223.5,74.1667 223.5,71.5 Z"/></g>
<g><path style="opacity:1" fill="#dfe0dd" d="M 367.5,71.5 C 388.833,71.5 410.167,71.5 431.5,71.5C 431.5,74.1667 431.5,76.8333 431.5,79.5C 431.5,82.1667 431.5,84.8333 431.5,87.5C 410.167,87.5 388.833,87.5 367.5,87.5C 367.5,84.8333 367.5,82.1667 367.5,79.5C 367.5,76.8333 367.5,74.1667 367.5,71.5 Z"/></g>
<g><path style="opacity:0.988" fill="#eaeae8" d="M 79.5,79.5 C 79.5,82.1667 79.5,84.8333 79.5,87.5C 100.833,87.5 122.167,87.5 143.5,87.5C 143.5,84.8333 143.5,82.1667 143.5,79.5C 144.279,90.3869 146.613,101.054 150.5,111.5C 124.5,111.5 98.5,111.5 72.5,111.5C 76.3872,101.054 78.7206,90.3869 79.5,79.5 Z"/></g>
<g><path style="opacity:0.986" fill="#eaeae8" d="M 223.5,79.5 C 223.5,82.1667 223.5,84.8333 223.5,87.5C 244.833,87.5 266.167,87.5 287.5,87.5C 287.5,84.8333 287.5,82.1667 287.5,79.5C 288.279,90.3869 290.613,101.054 294.5,111.5C 268.5,111.5 242.5,111.5 216.5,111.5C 220.387,101.054 222.721,90.3869 223.5,79.5 Z"/></g>
<g><path style="opacity:0.986" fill="#eaeae8" d="M 367.5,79.5 C 367.5,82.1667 367.5,84.8333 367.5,87.5C 388.833,87.5 410.167,87.5 431.5,87.5C 431.5,84.8333 431.5,82.1667 431.5,79.5C 432.279,90.3869 434.613,101.054 438.5,111.5C 412.5,111.5 386.5,111.5 360.5,111.5C 364.387,101.054 366.721,90.3869 367.5,79.5 Z"/></g>
<g><path style="opacity:1" fill="#f96d01" d="M 72.5,111.5 C 98.5,111.5 124.5,111.5 150.5,111.5C 153.904,117.3 157.571,122.967 161.5,128.5C 162.08,130.749 163.413,132.415 165.5,133.5C 171.5,139.167 177.5,144.833 183.5,150.5C 178.763,158.445 174.596,166.778 171,175.5C 168.423,183.293 167.257,191.293 167.5,199.5C 119.5,199.5 71.5,199.5 23.5,199.5C 23.1218,181.134 28.6218,164.801 40,150.5C 52.7582,138.907 63.5916,125.907 72.5,111.5 Z"/></g>
<g><path style="opacity:1" fill="#693924" d="M 216.5,111.5 C 242.5,111.5 268.5,111.5 294.5,111.5C 303.362,126.17 314.362,139.17 327.5,150.5C 332.162,158.49 336.329,166.824 340,175.5C 342.24,183.346 343.407,191.346 343.5,199.5C 341.5,199.5 339.5,199.5 337.5,199.5C 280.833,199.5 224.167,199.5 167.5,199.5C 167.257,191.293 168.423,183.293 171,175.5C 174.596,166.778 178.763,158.445 183.5,150.5C 196.638,139.17 207.638,126.17 216.5,111.5 Z"/></g>
<g><path style="opacity:1" fill="#7eb457" d="M 360.5,111.5 C 386.5,111.5 412.5,111.5 438.5,111.5C 447.408,125.907 458.242,138.907 471,150.5C 482.378,164.801 487.878,181.134 487.5,199.5C 485.5,199.5 483.5,199.5 481.5,199.5C 435.5,199.5 389.5,199.5 343.5,199.5C 343.407,191.346 342.24,183.346 340,175.5C 336.329,166.824 332.162,158.49 327.5,150.5C 340.638,139.17 351.638,126.17 360.5,111.5 Z"/></g>
<g><path style="opacity:0.957" fill="#f99f64" d="M 161.5,128.5 C 163.587,129.585 164.92,131.251 165.5,133.5C 163.413,132.415 162.08,130.749 161.5,128.5 Z"/></g>
<g><path style="opacity:1" fill="#f88400" d="M 23.5,199.5 C 71.5,199.5 119.5,199.5 167.5,199.5C 167.5,212.833 167.5,226.167 167.5,239.5C 147.988,265.35 126.322,289.35 102.5,311.5C 102.167,311.5 101.833,311.5 101.5,311.5C 75.5,311.5 49.5,311.5 23.5,311.5C 23.5,274.167 23.5,236.833 23.5,199.5 Z"/></g>
<g><path style="opacity:1" fill="#f25143" d="M 167.5,199.5 C 224.167,199.5 280.833,199.5 337.5,199.5C 327.826,216.188 317.159,232.188 305.5,247.5C 291.5,247.5 277.5,247.5 263.5,247.5C 263.5,260.833 263.5,274.167 263.5,287.5C 263.5,295.5 263.5,303.5 263.5,311.5C 257.5,311.5 251.5,311.5 245.5,311.5C 219.5,311.5 193.5,311.5 167.5,311.5C 167.5,287.5 167.5,263.5 167.5,239.5C 167.5,226.167 167.5,212.833 167.5,199.5 Z"/></g>
<g><path style="opacity:1" fill="#e64c3f" d="M 337.5,199.5 C 339.5,199.5 341.5,199.5 343.5,199.5C 343.5,215.5 343.5,231.5 343.5,247.5C 330.833,247.5 318.167,247.5 305.5,247.5C 317.159,232.188 327.826,216.188 337.5,199.5 Z"/></g>
<g><path style="opacity:1" fill="#d0d24b" d="M 343.5,199.5 C 389.5,199.5 435.5,199.5 481.5,199.5C 465.079,227.679 445.746,253.679 423.5,277.5C 423.5,267.5 423.5,257.5 423.5,247.5C 396.833,247.5 370.167,247.5 343.5,247.5C 343.5,231.5 343.5,215.5 343.5,199.5 Z"/></g>
<g><path style="opacity:1" fill="#c7c934" d="M 481.5,199.5 C 483.5,199.5 485.5,199.5 487.5,199.5C 487.5,236.833 487.5,274.167 487.5,311.5C 466.167,311.5 444.833,311.5 423.5,311.5C 423.5,303.5 423.5,295.5 423.5,287.5C 423.5,284.167 423.5,280.833 423.5,277.5C 445.746,253.679 465.079,227.679 481.5,199.5 Z"/></g>
<g><path style="opacity:1" fill="#fe9418" d="M 47.5,223.5 C 52.8333,223.5 58.1667,223.5 63.5,223.5C 63.5,228.833 63.5,234.167 63.5,239.5C 58.1667,239.5 52.8333,239.5 47.5,239.5C 47.5,234.167 47.5,228.833 47.5,223.5 Z"/></g>
<g><path style="opacity:1" fill="#fb685a" d="M 191.5,223.5 C 196.833,223.5 202.167,223.5 207.5,223.5C 207.5,228.833 207.5,234.167 207.5,239.5C 202.167,239.5 196.833,239.5 191.5,239.5C 191.5,234.167 191.5,228.833 191.5,223.5 Z"/></g>
<g><path style="opacity:1" fill="#f77c00" d="M 167.5,239.5 C 167.5,263.5 167.5,287.5 167.5,311.5C 145.833,311.5 124.167,311.5 102.5,311.5C 126.322,289.35 147.988,265.35 167.5,239.5 Z"/></g>
<g><path style="opacity:1" fill="#eaebe8" d="M 305.5,247.5 C 318.167,247.5 330.833,247.5 343.5,247.5C 370.167,247.5 396.833,247.5 423.5,247.5C 423.5,257.5 423.5,267.5 423.5,277.5C 423.5,280.833 423.5,284.167 423.5,287.5C 370.167,287.5 316.833,287.5 263.5,287.5C 263.5,274.167 263.5,260.833 263.5,247.5C 277.5,247.5 291.5,247.5 305.5,247.5 Z"/></g>
<g><path style="opacity:1" fill="#fe9418" d="M 47.5,255.5 C 52.8333,255.5 58.1667,255.5 63.5,255.5C 63.5,266.167 63.5,276.833 63.5,287.5C 58.1667,287.5 52.8333,287.5 47.5,287.5C 47.5,276.833 47.5,266.167 47.5,255.5 Z"/></g>
<g><path style="opacity:1" fill="#fb685a" d="M 191.5,255.5 C 196.833,255.5 202.167,255.5 207.5,255.5C 207.5,266.167 207.5,276.833 207.5,287.5C 202.167,287.5 196.833,287.5 191.5,287.5C 191.5,276.833 191.5,266.167 191.5,255.5 Z"/></g>
<g><path style="opacity:1" fill="#f88500" d="M 263.5,287.5 C 316.833,287.5 370.167,287.5 423.5,287.5C 423.5,295.5 423.5,303.5 423.5,311.5C 423.806,314.385 423.473,317.052 422.5,319.5C 422.631,318.761 422.464,318.094 422,317.5C 403.964,344.994 383.131,369.661 359.5,391.5C 354.167,391.5 348.833,391.5 343.5,391.5C 343.5,396.833 343.5,402.167 343.5,407.5C 337.167,412.833 330.833,418.167 324.5,423.5C 322.833,423.5 321.167,423.5 319.5,423.5C 319.5,424.833 319.5,426.167 319.5,427.5C 310.643,433.758 301.643,439.758 292.5,445.5C 291.991,422.103 288.824,399.103 283,376.5C 276.553,363.607 271.22,350.274 267,336.5C 265.344,328.217 264.177,319.884 263.5,311.5C 263.5,303.5 263.5,295.5 263.5,287.5 Z"/></g>
<g><path style="opacity:1" fill="#f96e03" d="M 23.5,311.5 C 49.5,311.5 75.5,311.5 101.5,311.5C 81.1728,330.482 58.8394,346.815 34.5,360.5C 33.5344,362.396 33.2011,364.396 33.5,366.5C 31.442,354.789 28.6087,343.122 25,331.5C 23.7896,324.888 23.2896,318.222 23.5,311.5 Z"/></g>
<g><path style="opacity:1" fill="#f76400" d="M 101.5,311.5 C 101.833,311.5 102.167,311.5 102.5,311.5C 124.167,311.5 145.833,311.5 167.5,311.5C 167.629,319.237 168.462,326.904 170,334.5C 173.216,344.119 175.716,353.786 177.5,363.5C 177.795,373.545 177.295,383.545 176,393.5C 173.127,404.453 170.46,415.453 168,426.5C 167.333,439.5 167.333,452.5 168,465.5C 170.382,474.376 175.549,481.042 183.5,485.5C 173.479,488.799 163.812,487.965 154.5,483C 150.985,479.318 147.318,475.818 143.5,472.5C 127.386,489.216 109.052,492.049 88.5,481C 85.6511,477.984 82.6511,475.15 79.5,472.5C 75.6819,475.818 72.0152,479.318 68.5,483C 56.6142,489.229 44.9475,488.895 33.5,482C 30.2809,478.448 27.4476,474.615 25,470.5C 23.899,462.392 23.399,454.226 23.5,446C 23.6667,439.167 23.8333,432.333 24,425.5C 26.4599,414.453 29.1266,403.453 32,392.5C 33.2014,383.875 33.7014,375.208 33.5,366.5C 33.2011,364.396 33.5344,362.396 34.5,360.5C 58.8394,346.815 81.1728,330.482 101.5,311.5 Z"/></g>
<g><path style="opacity:1" fill="#693924" d="M 167.5,311.5 C 193.5,311.5 219.5,311.5 245.5,311.5C 225.039,330.451 202.705,346.951 178.5,361C 177.748,361.671 177.414,362.504 177.5,363.5C 175.716,353.786 173.216,344.119 170,334.5C 168.462,326.904 167.629,319.237 167.5,311.5 Z"/></g>
<g><path style="opacity:1" fill="#5c2e1a" d="M 245.5,311.5 C 251.5,311.5 257.5,311.5 263.5,311.5C 264.177,319.884 265.344,328.217 267,336.5C 271.22,350.274 276.553,363.607 283,376.5C 288.824,399.103 291.991,422.103 292.5,445.5C 292.968,456.513 293.635,467.513 294.5,478.5C 292.186,476.523 289.853,474.523 287.5,472.5C 271.386,489.216 253.052,492.049 232.5,481C 229.651,477.984 226.651,475.15 223.5,472.5C 219.682,475.818 216.015,479.318 212.5,483C 203.188,487.965 193.521,488.799 183.5,485.5C 175.549,481.042 170.382,474.376 168,465.5C 167.333,452.5 167.333,439.5 168,426.5C 170.46,415.453 173.127,404.453 176,393.5C 177.295,383.545 177.795,373.545 177.5,363.5C 177.414,362.504 177.748,361.671 178.5,361C 202.705,346.951 225.039,330.451 245.5,311.5 Z"/></g>
<g><path style="opacity:1" fill="#79ad54" d="M 423.5,311.5 C 444.833,311.5 466.167,311.5 487.5,311.5C 487.666,316.179 487.499,320.845 487,325.5C 484.54,336.547 481.873,347.547 479,358.5C 477,369.833 477,381.167 479,392.5C 481.873,403.453 484.54,414.453 487,425.5C 487.667,439.167 487.667,452.833 487,466.5C 480.34,484.748 467.507,491.248 448.5,486C 446.5,485 444.5,484 442.5,483C 438.985,479.318 435.318,475.818 431.5,472.5C 420.941,484.775 407.607,489.775 391.5,487.5C 393.781,455.456 396.614,423.456 400,391.5C 401.262,385.715 402.928,380.048 405,374.5C 409.609,364.282 413.943,353.948 418,343.5C 420.466,335.672 421.966,327.672 422.5,319.5C 423.473,317.052 423.806,314.385 423.5,311.5 Z"/></g>
<g><path style="opacity:1" fill="#f67c00" d="M 422.5,319.5 C 421.966,327.672 420.466,335.672 418,343.5C 413.943,353.948 409.609,364.282 405,374.5C 402.928,380.048 401.262,385.715 400,391.5C 396.614,423.456 393.781,455.456 391.5,487.5C 359.167,487.5 326.833,487.5 294.5,487.5C 294.5,484.5 294.5,481.5 294.5,478.5C 293.635,467.513 292.968,456.513 292.5,445.5C 301.643,439.758 310.643,433.758 319.5,427.5C 319.5,431.5 319.5,435.5 319.5,439.5C 324.833,439.5 330.167,439.5 335.5,439.5C 335.5,434.167 335.5,428.833 335.5,423.5C 331.833,423.5 328.167,423.5 324.5,423.5C 330.833,418.167 337.167,412.833 343.5,407.5C 348.833,407.5 354.167,407.5 359.5,407.5C 359.5,402.167 359.5,396.833 359.5,391.5C 383.131,369.661 403.964,344.994 422,317.5C 422.464,318.094 422.631,318.761 422.5,319.5 Z"/></g>
<g><path style="opacity:1" fill="#fe9418" d="M 327.5,335.5 C 332.833,335.5 338.167,335.5 343.5,335.5C 343.5,340.833 343.5,346.167 343.5,351.5C 338.167,351.5 332.833,351.5 327.5,351.5C 327.5,346.167 327.5,340.833 327.5,335.5 Z"/></g>
<g><path style="opacity:1" fill="#fe9418" d="M 359.5,391.5 C 359.5,396.833 359.5,402.167 359.5,407.5C 354.167,407.5 348.833,407.5 343.5,407.5C 343.5,402.167 343.5,396.833 343.5,391.5C 348.833,391.5 354.167,391.5 359.5,391.5 Z"/></g>
<g><path style="opacity:1" fill="#fe9418" d="M 324.5,423.5 C 328.167,423.5 331.833,423.5 335.5,423.5C 335.5,428.833 335.5,434.167 335.5,439.5C 330.167,439.5 324.833,439.5 319.5,439.5C 319.5,435.5 319.5,431.5 319.5,427.5C 319.5,426.167 319.5,424.833 319.5,423.5C 321.167,423.5 322.833,423.5 324.5,423.5 Z"/></g>
</svg>
