<?xml version="1.0" encoding="UTF-8"?>
<!DOCTYPE svg PUBLIC "-//W3C//DTD SVG 1.1//EN" "http://www.w3.org/Graphics/SVG/1.1/DTD/svg11.dtd">
<svg xmlns="http://www.w3.org/2000/svg" version="1.1" width="512px" height="512px" style="shape-rendering:geometricPrecision; text-rendering:geometricPrecision; image-rendering:optimizeQuality; fill-rule:evenodd; clip-rule:evenodd" xmlns:xlink="http://www.w3.org/1999/xlink">
<g><path style="opacity:0.997" fill="#d3e5e6" d="M 426.5,127.5 C 312.5,127.5 198.5,127.5 84.5,127.5C 89.6471,113.901 95.4804,100.568 102,87.5C 108.458,78.5209 116.958,72.3542 127.5,69C 137.342,68.2644 147.008,66.5978 156.5,64C 166.031,58.8055 174.031,51.8055 180.5,43C 186.419,38.3744 193.086,35.3744 200.5,34C 215.805,35.3956 230.139,32.3956 243.5,25C 250.5,20.6667 257.5,16.3333 264.5,12C 280.166,6.03325 295.832,6.03325 311.5,12C 324.451,21.2832 337.118,30.9499 349.5,41C 361.244,45.5754 372.578,50.9087 383.5,57C 393.483,65.7894 400.316,76.6227 404,89.5C 411.775,102.057 419.275,114.724 426.5,127.5 Z"/></g>
<g><path style="opacity:1" fill="#abc7c8" d="M 285.5,42.5 C 293.84,42.3336 302.173,42.5003 310.5,43C 317.394,48.8414 317.061,54.1747 309.5,59C 302.167,59.6667 294.833,59.6667 287.5,59C 281.908,56.5976 280.075,52.4309 282,46.5C 283.376,45.2949 284.542,43.9616 285.5,42.5 Z"/></g>
<g><path style="opacity:1" fill="#aac7c8" d="M 209.5,59.5 C 217.507,59.3336 225.507,59.5003 233.5,60C 237.768,62.2805 239.268,65.7805 238,70.5C 236.833,73 235,74.8333 232.5,76C 225.167,76.6667 217.833,76.6667 210.5,76C 204.456,73.0682 202.956,68.5682 206,62.5C 207.145,61.3636 208.312,60.3636 209.5,59.5 Z"/></g>
<g><path style="opacity:1" fill="#abc7c8" d="M 167.5,84.5 C 174.841,84.3337 182.174,84.5003 189.5,85C 194.945,87.1102 196.778,90.9436 195,96.5C 194.167,98.6667 192.667,100.167 190.5,101C 182.5,101.667 174.5,101.667 166.5,101C 159.713,95.1805 160.047,89.6805 167.5,84.5 Z"/></g>
<g><path style="opacity:1" fill="#abc7c8" d="M 261.5,84.5 C 268.841,84.3337 276.174,84.5003 283.5,85C 288.945,87.1102 290.778,90.9436 289,96.5C 288.167,98.6667 286.667,100.167 284.5,101C 276.5,101.667 268.5,101.667 260.5,101C 253.632,95.1442 253.965,89.6442 261.5,84.5 Z"/></g>
<g><path style="opacity:1" fill="#abc7c8" d="M 329.5,84.5 C 336.841,84.3337 344.174,84.5003 351.5,85C 357.092,87.4024 358.925,91.5691 357,97.5C 355.833,98.6667 354.667,99.8333 353.5,101C 345.167,101.667 336.833,101.667 328.5,101C 321.657,95.0515 321.991,89.5515 329.5,84.5 Z"/></g>
<g><path style="opacity:0.999" fill="#8f5c49" d="M 84.5,127.5 C 198.5,127.5 312.5,127.5 426.5,127.5C 434.174,127.334 441.841,127.5 449.5,128C 454.333,130.167 457.833,133.667 460,138.5C 460.667,153.833 460.667,169.167 460,184.5C 455.303,194.433 447.47,198.433 436.5,196.5C 315.833,195.167 195.167,195.167 74.5,196.5C 63.4917,198.414 55.6584,194.414 51,184.5C 50.3333,169.167 50.3333,153.833 51,138.5C 53.1667,133.667 56.6667,130.167 61.5,128C 69.1594,127.5 76.8261,127.334 84.5,127.5 Z"/></g>
<g><path style="opacity:0.996" fill="#a6725c" d="M 436.5,196.5 C 452.18,223.371 462.013,252.371 466,283.5C 470.624,315.836 470.624,348.17 466,380.5C 463.507,393.464 461.34,406.464 459.5,419.5C 459.667,422.167 459.833,424.833 460,427.5C 462.103,435.04 464.77,442.373 468,449.5C 472.276,472.447 464.109,489.28 443.5,500C 427.125,506.022 411.791,504.022 397.5,494C 392.213,491.803 386.713,490.636 381,490.5C 360.567,494.044 340.067,497.211 319.5,500C 276.833,504.667 234.167,504.667 191.5,500C 170.933,497.211 150.433,494.044 130,490.5C 124.287,490.636 118.787,491.803 113.5,494C 95.3482,506.218 77.0149,506.552 58.5,495C 44.3582,482.908 39.1916,467.742 43,449.5C 45.3333,443.5 47.6667,437.5 50,431.5C 50.9961,427.569 51.4961,423.569 51.5,419.5C 48.1281,400.934 45.2948,382.267 43,363.5C 37.8876,312.392 44.8876,263.059 64,215.5C 67.5244,209.112 71.0244,202.779 74.5,196.5C 195.167,195.167 315.833,195.167 436.5,196.5 Z"/></g>
<g><path style="opacity:1" fill="#fdfcfc" d="M 244.5,272.5 C 261.728,270.687 273.561,277.687 280,293.5C 281.503,304.842 277.003,308.509 266.5,304.5C 264.527,301.754 263.027,298.754 262,295.5C 252.976,286.728 245.31,287.728 239,298.5C 238.041,316.233 238.375,333.899 240,351.5C 245.475,358.037 251.975,359.204 259.5,355C 263.027,350.834 264.36,346.001 263.5,340.5C 257.124,339.595 254.624,335.928 256,329.5C 258.484,324.591 262.484,322.591 268,323.5C 273.652,322.828 277.985,324.828 281,329.5C 284.208,344.861 280.375,358.028 269.5,369C 258.083,375.981 246.417,376.315 234.5,370C 227.991,365.478 223.825,359.312 222,351.5C 221.333,332.833 221.333,314.167 222,295.5C 225.658,284.01 233.158,276.343 244.5,272.5 Z"/></g>
<g><path style="opacity:1" fill="#fdfcfc" d="M 91.5,272.5 C 107.821,271.071 119.321,277.738 126,292.5C 128.556,302.604 124.723,307.104 114.5,306C 111.385,302.764 109.218,298.931 108,294.5C 98.2604,286.559 90.5938,288.225 85,299.5C 84.1874,307.032 87.3541,312.199 94.5,315C 111.128,314.891 121.962,322.725 127,338.5C 128.938,355.887 121.771,367.72 105.5,374C 87.6253,377.15 75.4587,370.316 69,353.5C 67.1234,346.376 69.7901,342.042 77,340.5C 83.1283,342.052 86.4616,346.052 87,352.5C 91.9162,357.72 97.7496,358.887 104.5,356C 113.272,346.976 112.272,339.31 101.5,333C 84.0058,332.842 72.8391,324.342 68,307.5C 66.9544,289.736 74.7877,278.069 91.5,272.5 Z"/></g>
<g><path style="opacity:1" fill="#fefdfd" d="M 149.5,272.5 C 154.384,271.861 158.217,273.527 161,277.5C 161.333,301.167 161.667,324.833 162,348.5C 166.464,357.823 173.297,359.99 182.5,355C 184.617,353.269 186.117,351.102 187,348.5C 187.333,324.833 187.667,301.167 188,277.5C 191.013,272.465 195.18,271.298 200.5,274C 202.049,275.214 203.215,276.714 204,278.5C 204.952,303.875 204.619,329.208 203,354.5C 196.011,370.579 183.844,377.079 166.5,374C 156.333,370.5 149.5,363.667 146,353.5C 144.371,328.216 144.038,302.883 145,277.5C 146.707,275.963 148.207,274.296 149.5,272.5 Z"/></g>
<g><path style="opacity:1" fill="#fefdfd" d="M 341.5,368.5 C 341.5,359.167 341.5,349.833 341.5,340.5C 332.5,340.5 323.5,340.5 314.5,340.5C 314.5,349.833 314.5,359.167 314.5,368.5C 314.262,371.148 312.928,372.982 310.5,374C 305.788,375.443 301.955,374.277 299,370.5C 298.333,345.167 298.333,319.833 299,294.5C 308.712,272.928 324.212,267.428 345.5,278C 350.947,282.399 354.78,287.899 357,294.5C 357.667,319.833 357.667,345.167 357,370.5C 354.045,374.277 350.212,375.443 345.5,374C 343.181,372.853 341.848,371.019 341.5,368.5 Z"/></g>
<g><path style="opacity:1" fill="#fdfbfb" d="M 404.5,341.5 C 400.366,340.515 396.032,340.182 391.5,340.5C 391.5,349.833 391.5,359.167 391.5,368.5C 389.412,374.127 385.412,375.961 379.5,374C 377.622,372.457 376.122,370.624 375,368.5C 374.333,338.5 374.333,308.5 375,278.5C 376.167,276 378,274.167 380.5,273C 391.649,271.851 402.649,272.518 413.5,275C 434.758,286.78 439.925,303.614 429,325.5C 427.357,327.977 425.524,330.31 423.5,332.5C 434.347,343.56 437.514,356.56 433,371.5C 428.404,375.432 423.737,375.432 419,371.5C 417.796,365.247 417.129,358.914 417,352.5C 414.526,346.856 410.359,343.189 404.5,341.5 Z"/></g>
<g><path style="opacity:1" fill="#a6725d" d="M 324.5,289.5 C 331.402,288.867 336.569,291.534 340,297.5C 340.5,306.16 340.666,314.827 340.5,323.5C 332.167,323.5 323.833,323.5 315.5,323.5C 315.334,314.827 315.5,306.16 316,297.5C 318.074,293.923 320.907,291.256 324.5,289.5 Z"/></g>
<g><path style="opacity:1" fill="#a6735d" d="M 392.5,289.5 C 401.627,287.822 409.127,290.489 415,297.5C 420.095,316.591 412.595,325.258 392.5,323.5C 392.5,312.167 392.5,300.833 392.5,289.5 Z"/></g>
<g><path style="opacity:1" fill="#dbc6bd" d="M 341.5,368.5 C 340.507,359.682 340.173,350.682 340.5,341.5C 332.167,341.5 323.833,341.5 315.5,341.5C 315.827,350.682 315.493,359.682 314.5,368.5C 314.5,359.167 314.5,349.833 314.5,340.5C 323.5,340.5 332.5,340.5 341.5,340.5C 341.5,349.833 341.5,359.167 341.5,368.5 Z"/></g>
<g><path style="opacity:1" fill="#d1b7ac" d="M 404.5,341.5 C 400.5,341.5 396.5,341.5 392.5,341.5C 392.827,350.682 392.493,359.682 391.5,368.5C 391.5,359.167 391.5,349.833 391.5,340.5C 396.032,340.182 400.366,340.515 404.5,341.5 Z"/></g>
</svg>
