<?xml version="1.0" encoding="UTF-8"?>
<!DOCTYPE svg PUBLIC "-//W3C//DTD SVG 1.1//EN" "http://www.w3.org/Graphics/SVG/1.1/DTD/svg11.dtd">
<svg xmlns="http://www.w3.org/2000/svg" version="1.1" width="128px" height="128px" style="shape-rendering:geometricPrecision; text-rendering:geometricPrecision; image-rendering:optimizeQuality; fill-rule:evenodd; clip-rule:evenodd" xmlns:xlink="http://www.w3.org/1999/xlink">
<g><path style="opacity:0.873" fill="#050809" d="M 120.5,18.5 C 120.607,20.9032 119.607,22.7365 117.5,24C 122.624,31.7111 122.791,39.5445 118,47.5C 93.4667,73.0319 69.3,98.8652 45.5,125C 43.8333,125.667 42.1667,125.667 40.5,125C 27.6667,112.167 14.8333,99.3333 2,86.5C 1.33333,84.8333 1.33333,83.1667 2,81.5C 6.07175,77.5502 10.2384,73.7169 14.5,70C 15.448,69.5172 16.448,69.3505 17.5,69.5C 18.5849,73.3215 17.0849,75.9882 13,77.5C 12.3333,78.1667 12.3333,78.8333 13,79.5C 23.7016,90.3688 34.5349,101.035 45.5,111.5C 46.2544,113.446 47.5878,114.279 49.5,114C 69,93.1667 88.5,72.3333 108,51.5C 109.643,49.0232 111.476,46.6898 113.5,44.5C 112.812,43.1451 111.812,42.1451 110.5,41.5C 104.325,35.1586 98.3251,28.6586 92.5,22C 92.7627,20.0543 93.7627,19.3877 95.5,20C 100.702,25.3697 106.035,30.5364 111.5,35.5C 112.793,37.2959 114.293,38.9625 116,40.5C 117.932,36.8988 117.932,33.2322 116,29.5C 109.833,23.3333 103.667,17.1667 97.5,11C 95.5643,10.187 93.5643,9.68701 91.5,9.5C 85.583,9.57976 85.083,11.2464 90,14.5C 90.6838,15.7839 90.5171,16.9505 89.5,18C 86.8333,16.6667 84.1667,15.3333 81.5,14C 73.3027,21.3664 65.3027,28.8664 57.5,36.5C 49.4845,43.1956 41.8178,50.3623 34.5,58C 33.2068,58.49 31.8734,58.6567 30.5,58.5C 31.3186,54.1474 33.652,50.6474 37.5,48C 52.5,34.3333 67.5,20.6667 82.5,7C 89.3024,4.6089 95.8024,5.1089 102,8.5C 104.822,6.34746 107.656,4.18079 110.5,2C 112.833,1.33333 115.167,1.33333 117.5,2C 120,4.5 122.5,7 125,9.5C 125.667,11.8333 125.667,14.1667 125,16.5C 123.951,18.1066 122.451,18.7733 120.5,18.5 Z"/></g>
<g><path style="opacity:1" fill="#e3e1e3" d="M 120.5,18.5 C 117.675,18.0807 115.509,19.0807 114,21.5C 111.167,18.6667 108.333,15.8333 105.5,13C 107.833,10.6667 110.167,8.33333 112.5,6C 113.5,5.33333 114.5,5.33333 115.5,6C 117.333,7.83333 119.167,9.66667 121,11.5C 121.018,13.7972 120.851,16.1305 120.5,18.5 Z"/></g>
<g><path style="opacity:1" fill="#78d4eb" d="M 91.5,9.5 C 97.1305,15.6314 102.964,21.6314 109,27.5C 110.707,29.9088 111.54,32.5755 111.5,35.5C 106.035,30.5364 100.702,25.3697 95.5,20C 93.7627,19.3877 92.7627,20.0543 92.5,22C 98.3251,28.6586 104.325,35.1586 110.5,41.5C 104.904,48.2697 99.0711,54.9363 93,61.5C 92.8019,59.6183 92.3019,57.9516 91.5,56.5C 87.6262,53.6486 84.2929,50.1486 81.5,46C 76.1312,44.6312 72.7978,41.2979 71.5,36C 69.9656,35.077 68.299,34.577 66.5,34.5C 63.5829,34.9638 60.9163,35.9638 58.5,37.5C 58.5,36.8333 58.1667,36.5 57.5,36.5C 65.3027,28.8664 73.3027,21.3664 81.5,14C 84.1667,15.3333 86.8333,16.6667 89.5,18C 90.5171,16.9505 90.6838,15.7839 90,14.5C 85.083,11.2464 85.583,9.57976 91.5,9.5 Z"/></g>
<g><path style="opacity:1" fill="#4abfea" d="M 91.5,9.5 C 93.5643,9.68701 95.5643,10.187 97.5,11C 103.667,17.1667 109.833,23.3333 116,29.5C 117.932,33.2322 117.932,36.8988 116,40.5C 114.293,38.9625 112.793,37.2959 111.5,35.5C 111.54,32.5755 110.707,29.9088 109,27.5C 102.964,21.6314 97.1305,15.6314 91.5,9.5 Z"/></g>
<g><path style="opacity:1" fill="#101213" d="M 91.5,56.5 C 91.8757,62.5826 89.8757,67.7493 85.5,72C 84.552,72.4828 83.552,72.6495 82.5,72.5C 81.4265,71.7494 81.2599,70.7494 82,69.5C 85.6623,66.1762 87.6623,62.1762 88,57.5C 79.146,58.3123 74.146,54.3123 73,45.5C 70.9602,43.6469 68.6269,42.3136 66,41.5C 65.5521,39.5911 66.3855,38.4244 68.5,38C 63.5238,38.4061 59.3572,40.5728 56,44.5C 51.0307,52.7721 46.8641,61.4388 43.5,70.5C 47.8092,69.5148 51.8092,67.6815 55.5,65C 60.0318,64.1004 62.6985,65.9337 63.5,70.5C 61.2043,74.4765 58.8709,78.4765 56.5,82.5C 57.1667,82.8333 57.8333,83.1667 58.5,83.5C 64.4403,81.1965 70.107,78.3632 75.5,75C 76.7494,74.2599 77.7494,74.4265 78.5,75.5C 78.719,76.675 78.3857,77.675 77.5,78.5C 76.2613,78.9424 75.2613,79.6091 74.5,80.5C 69.7013,82.733 65.0346,85.233 60.5,88C 54.6868,88.1708 52.5202,85.3375 54,79.5C 55.8333,76.5 57.6667,73.5 59.5,70.5C 58.277,69.3861 56.9437,69.2195 55.5,70C 52.2901,72.104 48.9568,73.9373 45.5,75.5C 40.9337,74.6985 39.1004,72.0318 40,67.5C 43.6062,60.6214 46.9395,53.6214 50,46.5C 52.3622,42.9734 55.1955,39.9734 58.5,37.5C 60.9163,35.9638 63.5829,34.9638 66.5,34.5C 68.299,34.577 69.9656,35.077 71.5,36C 72.7978,41.2979 76.1312,44.6312 81.5,46C 84.2929,50.1486 87.6262,53.6486 91.5,56.5 Z"/></g>
<g><path style="opacity:1" fill="#e7e5e7" d="M 82.5,72.5 C 81.5637,73.9744 80.2303,74.9744 78.5,75.5C 77.7494,74.4265 76.7494,74.2599 75.5,75C 70.107,78.3632 64.4403,81.1965 58.5,83.5C 57.8333,83.1667 57.1667,82.8333 56.5,82.5C 58.8709,78.4765 61.2043,74.4765 63.5,70.5C 62.6985,65.9337 60.0318,64.1004 55.5,65C 51.8092,67.6815 47.8092,69.5148 43.5,70.5C 46.8641,61.4388 51.0307,52.7721 56,44.5C 59.3572,40.5728 63.5238,38.4061 68.5,38C 66.3855,38.4244 65.5521,39.5911 66,41.5C 68.6269,42.3136 70.9602,43.6469 73,45.5C 74.146,54.3123 79.146,58.3123 88,57.5C 87.6623,62.1762 85.6623,66.1762 82,69.5C 81.2599,70.7494 81.4265,71.7494 82.5,72.5 Z"/></g>
<g><path style="opacity:0.999" fill="#77d2e9" d="M 57.5,36.5 C 58.1667,36.5 58.5,36.8333 58.5,37.5C 55.1955,39.9734 52.3622,42.9734 50,46.5C 46.9395,53.6214 43.6062,60.6214 40,67.5C 39.1004,72.0318 40.9337,74.6985 45.5,75.5C 48.9568,73.9373 52.2901,72.104 55.5,70C 56.9437,69.2195 58.277,69.3861 59.5,70.5C 57.6667,73.5 55.8333,76.5 54,79.5C 52.5202,85.3375 54.6868,88.1708 60.5,88C 65.0346,85.233 69.7013,82.733 74.5,80.5C 65.2217,91.1144 55.5551,101.448 45.5,111.5C 34.5349,101.035 23.7016,90.3688 13,79.5C 12.3333,78.8333 12.3333,78.1667 13,77.5C 17.0849,75.9882 18.5849,73.3215 17.5,69.5C 18.1667,69.5 18.5,69.1667 18.5,68.5C 19.7382,69.4124 21.0715,69.5791 22.5,69C 24,67.5 25.5,66 27,64.5C 27.4696,63.4232 27.3029,62.4232 26.5,61.5C 27.8333,60.5 29.1667,59.5 30.5,58.5C 31.8734,58.6567 33.2068,58.49 34.5,58C 41.8178,50.3623 49.4845,43.1956 57.5,36.5 Z"/></g>
<g><path style="opacity:1" fill="#c3c0c3" d="M 77.5,48.5 C 79.1998,49.016 80.5331,50.016 81.5,51.5C 78.5812,52.9318 77.2479,51.9318 77.5,48.5 Z"/></g>
<g><path style="opacity:0.797" fill="#070b0c" d="M 26.5,61.5 C 27.3029,62.4232 27.4696,63.4232 27,64.5C 25.5,66 24,67.5 22.5,69C 21.0715,69.5791 19.7382,69.4124 18.5,68.5C 18.33,67.1779 18.6634,66.0113 19.5,65C 21.5268,63.1207 23.8602,61.954 26.5,61.5 Z"/></g>
<g><path style="opacity:1" fill="#49bae3" d="M 110.5,41.5 C 111.812,42.1451 112.812,43.1451 113.5,44.5C 111.476,46.6898 109.643,49.0232 108,51.5C 88.5,72.3333 69,93.1667 49.5,114C 47.5878,114.279 46.2544,113.446 45.5,111.5C 55.5551,101.448 65.2217,91.1144 74.5,80.5C 75.2613,79.6091 76.2613,78.9424 77.5,78.5C 78.3857,77.675 78.719,76.675 78.5,75.5C 80.2303,74.9744 81.5637,73.9744 82.5,72.5C 83.552,72.6495 84.552,72.4828 85.5,72C 89.8757,67.7493 91.8757,62.5826 91.5,56.5C 92.3019,57.9516 92.8019,59.6183 93,61.5C 99.0711,54.9363 104.904,48.2697 110.5,41.5 Z"/></g>
<g><path style="opacity:1" fill="#71c8dd" d="M 8.5,81.5 C 12.3404,82.5678 12.5071,84.2345 9,86.5C 8.16667,85.6667 7.33333,84.8333 6.5,84C 7.38053,83.2917 8.0472,82.4584 8.5,81.5 Z"/></g>
<g><path style="opacity:1" fill="#67b5c9" d="M 14.5,86.5 C 18.1844,88.2033 18.351,90.2033 15,92.5C 11.8981,90.6627 11.7314,88.6627 14.5,86.5 Z"/></g>
<g><path style="opacity:1" fill="#69b9cd" d="M 19.5,92.5 C 22.9563,93.5362 23.2896,95.2029 20.5,97.5C 18.2957,96.218 17.9624,94.5514 19.5,92.5 Z"/></g>
<g><path style="opacity:1" fill="#6fc4d9" d="M 25.5,98.5 C 29.3404,99.5678 29.5071,101.235 26,103.5C 25.1667,102.667 24.3333,101.833 23.5,101C 24.3805,100.292 25.0472,99.4584 25.5,98.5 Z"/></g>
<g><path style="opacity:1" fill="#66b4c7" d="M 30.5,104.5 C 35.0486,104.932 35.5486,106.599 32,109.5C 29.676,108.225 29.176,106.558 30.5,104.5 Z"/></g>
<g><path style="opacity:1" fill="#6bbdd1" d="M 36.5,109.5 C 39.9563,110.536 40.2896,112.203 37.5,114.5C 34.1396,113.209 33.8063,111.543 36.5,109.5 Z"/></g>
<g><path style="opacity:1" fill="#44b1d9" d="M 42.5,115.5 C 46.3404,116.568 46.5071,118.235 43,120.5C 42.1667,119.667 41.3333,118.833 40.5,118C 41.3805,117.292 42.0472,116.458 42.5,115.5 Z"/></g>
</svg>
